<?xml version="1.0" encoding="utf-8"?>
<!-- Generator: Adobe Illustrator 25.2.3, SVG Export Plug-In . SVG Version: 6.00 Build 0)  -->
<svg version="1.1" xmlns="http://www.w3.org/2000/svg" xmlns:xlink="http://www.w3.org/1999/xlink" x="0px" y="0px"
	 viewBox="0 0 500 500" style="enable-background:new 0 0 500 500;" xml:space="preserve">
<style type="text/css">
	.st0{fill:#7FBEC0;}
	.st1{opacity:0.15;fill:#443D5E;}
	.st2{fill:#443D5E;}
	.st3{fill:#B8F5D5;}
	.st4{fill:#63779A;}
	.st5{fill:#FFFFFF;}
	.st6{fill:#615D7F;}
	.st7{fill:none;stroke:#615D7F;stroke-width:0.5;stroke-miterlimit:10;}
	.st8{fill:#4B2F91;}
	.st9{fill:url(#SVGID_1_);}
	.st10{fill:#4D4D4D;}
	.st11{opacity:0.12;fill:#1B1464;}
	.st12{fill:url(#SVGID_2_);}
	.st13{fill:#837BBC;}
	.st14{font-family:'Arial-BoldMT';}
	.st15{font-size:19.1618px;}
	.st16{fill:none;stroke:#8289E8;stroke-width:2;stroke-miterlimit:10;}
	.st17{fill:none;stroke:#8289E8;stroke-width:2;stroke-miterlimit:10;stroke-dasharray:13.2193,13.2193;}
	.st18{fill:#858CE8;}
	.st19{font-family:'ArialMT';}
	.st20{font-size:14.0906px;}
	.st21{opacity:0.76;fill:#5852A0;}
	.st22{font-size:15.9673px;}
	.st23{fill:none;stroke:#837BBC;stroke-width:6;stroke-miterlimit:10;}
	.st24{fill:url(#SVGID_3_);}
	.st25{fill:url(#SVGID_4_);}
	.st26{fill:#71AFAF;}
	.st27{opacity:0.25;}
	.st28{opacity:0.25;fill:#FFFFFF;}
	.st29{fill:#36334E;}
	.st30{fill:none;stroke:#443D5E;stroke-width:2;stroke-linecap:round;stroke-linejoin:round;stroke-miterlimit:10;}
</style>
<g id="BACKGROUND">
</g>
<g id="OBJECTS">
	<g id="XMLID_297_">
		<g id="XMLID_288_">
			<g id="XMLID_159_">
				<g id="XMLID_156_">
					<g id="XMLID_115_">
						<g id="XMLID_146_">
							<path id="XMLID_148_" class="st0" d="M2.85,386.4c0,0,25.35,41.41,100.15,41.41c74.8,0,96.56-41.41,96.56-41.41
								s-21.76-41.41-96.56-41.41C28.21,344.99,2.85,386.4,2.85,386.4z"/>
							<path id="XMLID_147_" class="st1" d="M2.85,386.4h196.71c0,0-21.76,41.41-96.56,41.41C28.21,427.81,2.85,386.4,2.85,386.4z"
								/>
						</g>
						<g id="XMLID_117_">
							<g id="XMLID_143_">
								<path class="st2" d="M36.1,386.4c10.38-0.39,20.77-0.65,31.15-0.78c10.38-0.16,20.77-0.2,31.15-0.22
									c10.38,0.02,20.77,0.06,31.15,0.22c10.38,0.13,20.77,0.39,31.15,0.78c-10.38,0.39-20.77,0.65-31.15,0.78
									c-10.38,0.16-20.77,0.2-31.15,0.22c-10.38-0.02-20.77-0.06-31.15-0.22C56.87,387.05,46.49,386.79,36.1,386.4z"/>
							</g>
							<g id="XMLID_140_">
								<path class="st2" d="M54.61,372.05c3.16,2.07,6.2,4.3,9.19,6.57c3,2.27,5.93,4.63,8.84,7l0.94,0.77l-0.94,0.77
									c-2.91,2.38-5.84,4.74-8.84,7.01c-2.99,2.28-6.03,4.5-9.2,6.57c2.64-2.71,5.4-5.27,8.2-7.78c2.8-2.51,5.67-4.94,8.56-7.34
									v1.54c-2.89-2.41-5.76-4.83-8.56-7.35C60.01,377.32,57.24,374.76,54.61,372.05z"/>
							</g>
							<g id="XMLID_137_">
								<path class="st2" d="M78.01,372.05c3.16,2.07,6.2,4.3,9.19,6.57c3,2.27,5.93,4.63,8.84,7l0.94,0.77l-0.94,0.77
									c-2.91,2.38-5.84,4.74-8.84,7.01c-2.99,2.28-6.03,4.5-9.2,6.57c2.64-2.71,5.4-5.27,8.2-7.78c2.8-2.51,5.67-4.94,8.56-7.34
									l0,1.54c-2.89-2.41-5.76-4.83-8.56-7.35C83.41,377.32,80.64,374.76,78.01,372.05z"/>
							</g>
							<g id="XMLID_134_">
								<path class="st2" d="M101.41,372.05c3.16,2.07,6.2,4.3,9.19,6.57c3,2.27,5.93,4.63,8.84,7l0.94,0.77l-0.94,0.77
									c-2.91,2.38-5.84,4.74-8.84,7.01c-2.99,2.28-6.03,4.5-9.2,6.57c2.64-2.71,5.4-5.27,8.2-7.78c2.8-2.51,5.67-4.94,8.56-7.34
									l0,1.54c-2.89-2.41-5.76-4.83-8.56-7.35C106.8,377.32,104.04,374.76,101.41,372.05z"/>
							</g>
							<g id="XMLID_118_">
								<path class="st2" d="M124.8,372.05c3.16,2.07,6.2,4.3,9.19,6.57c3,2.27,5.93,4.63,8.84,7l0.94,0.77l-0.94,0.77
									c-2.91,2.38-5.84,4.74-8.84,7.01c-2.99,2.28-6.03,4.5-9.2,6.57c2.64-2.71,5.4-5.27,8.2-7.78c2.8-2.51,5.67-4.94,8.56-7.34
									l0,1.54c-2.89-2.41-5.76-4.83-8.56-7.35C130.2,377.32,127.44,374.76,124.8,372.05z"/>
							</g>
						</g>
					</g>
					<g id="XMLID_127_">
						<g id="XMLID_126_">
							<path id="XMLID_111_" class="st0" d="M32.63,220.31c0,0-13.6,56.55,49.75,119.9c63.35,63.35,116.85,46.71,116.85,46.71
								s16.64-53.5-46.71-116.85S32.63,220.31,32.63,220.31z"/>
							<path id="XMLID_110_" class="st1" d="M32.63,220.31l166.61,166.61c0,0-53.5,16.64-116.85-46.71S32.63,220.31,32.63,220.31z"
								/>
						</g>
						<g id="XMLID_108_">
							<g id="XMLID_109_">
								<path class="st2" d="M60.79,248.47c9.07,8.52,18.05,17.13,26.93,25.83c8.91,8.68,17.73,17.45,26.54,26.23
									c8.78,8.81,17.55,17.63,26.23,26.54c8.7,8.89,17.31,17.87,25.83,26.94c-9.07-8.52-18.05-17.13-26.94-25.83
									c-8.91-8.68-17.73-17.45-26.54-26.23c-8.78-8.81-17.55-17.63-26.23-26.54C77.92,266.52,69.31,257.54,60.79,248.47z"/>
							</g>
							<g id="XMLID_113_">
								<path class="st2" d="M88.62,251.99c0.84,4.44,1.49,8.9,2.07,13.37c0.59,4.47,1.06,8.94,1.51,13.42l0.12,1.21l-1.21-0.12
									c-4.48-0.45-8.96-0.92-13.42-1.51c-4.47-0.58-8.93-1.22-13.37-2.07c4.52,0.02,9.02,0.23,13.52,0.52
									c4.5,0.27,8.98,0.66,13.47,1.07l-1.09,1.09c-0.41-4.48-0.8-8.97-1.07-13.47C88.85,261.01,88.64,256.51,88.62,251.99z"/>
							</g>
							<g id="XMLID_112_">
								<path class="st2" d="M108.43,271.81c0.84,4.44,1.49,8.9,2.07,13.37c0.59,4.47,1.06,8.94,1.51,13.42l0.12,1.21l-1.21-0.12
									c-4.48-0.45-8.96-0.92-13.42-1.51c-4.47-0.58-8.93-1.22-13.37-2.07c4.52,0.02,9.02,0.23,13.52,0.52
									c4.5,0.27,8.98,0.66,13.47,1.07l-1.09,1.09c-0.41-4.48-0.8-8.97-1.07-13.47C108.67,280.83,108.45,276.33,108.43,271.81z"/>
							</g>
							<g id="XMLID_116_">
								<path class="st2" d="M128.25,291.63c0.84,4.44,1.49,8.9,2.07,13.37c0.59,4.47,1.06,8.94,1.51,13.42l0.12,1.21l-1.21-0.12
									c-4.48-0.45-8.96-0.92-13.42-1.51c-4.47-0.58-8.93-1.22-13.37-2.07c4.52,0.02,9.02,0.23,13.52,0.52
									c4.5,0.27,8.98,0.66,13.47,1.07l-1.09,1.09c-0.41-4.48-0.8-8.97-1.07-13.47C128.49,300.65,128.27,296.15,128.25,291.63z"/>
							</g>
							<g id="XMLID_123_">
								<path class="st2" d="M148.07,311.44c0.84,4.44,1.49,8.9,2.07,13.37c0.59,4.47,1.06,8.94,1.51,13.42l0.12,1.21l-1.21-0.12
									c-4.48-0.45-8.96-0.92-13.42-1.51c-4.47-0.58-8.93-1.22-13.37-2.07c4.52,0.02,9.02,0.23,13.52,0.52
									c4.5,0.27,8.98,0.66,13.47,1.07l-1.09,1.09c-0.41-4.48-0.8-8.97-1.07-13.47C148.3,320.47,148.09,315.96,148.07,311.44z"/>
							</g>
						</g>
					</g>
				</g>
				<g id="XMLID_122_">
					<path id="XMLID_157_" class="st3" d="M194.35,271.38c-2.97-6.4,5.25-10.54-0.37-22.65c-5.45-11.75-24.11-8.35-28.09-15.74
						c-6.6-12.24,5.17-15.62,0.49-26.68c-3.86-9.13-20.29-5.18-24.84-13.99c-3.38-6.55,1.83-15.01-2.33-21.05
						c-5.1-7.42-23.97,2.54-28.34-6.58c-4.43-9.26,0.81-14.38-3.07-23.29c-2.53-5.82-11.95-9.95-25.88-3.44
						c-13.96,6.44-16.89,16.3-14.08,21.99c4.3,8.71,11.6,8.02,15.8,17.38c4.15,9.23-15.64,17.2-13.27,25.89
						c1.93,7.08,11.75,8.57,14.57,15.38c3.8,9.16-9.83,19.15-5.35,28c5.43,10.72,15.61,3.92,20.7,16.85
						c3.07,7.82-11.57,19.87-6.12,31.61c5.62,12.11,14.09,8.5,17.06,14.91c2.75,5.93-11.35,17.87-3.94,31.48
						c7.94,14.6,24.18,15.66,67.05-4.33c42.95-19.83,52.62-32.92,46.6-48.41C215.33,274.26,197.11,277.31,194.35,271.38z"/>
					<path id="XMLID_158_" class="st1" d="M67.84,159.95c4.3,8.71,11.6,8.02,15.8,17.38c4.15,9.23-15.64,17.2-13.27,25.89
						c1.93,7.08,11.75,8.57,14.57,15.38c3.8,9.16-9.83,19.15-5.35,28c5.43,10.72,15.61,3.92,20.7,16.85
						c3.07,7.82-11.57,19.87-6.12,31.61c5.62,12.11,14.09,8.5,17.06,14.91c2.75,5.93-11.35,17.87-3.94,31.48
						c7.94,14.6,24.18,15.66,67.05-4.33L81.92,137.96C67.96,144.4,65.03,154.26,67.84,159.95z"/>
				</g>
				<g id="XMLID_155_">
					<g id="XMLID_121_">
						<path id="XMLID_114_" class="st4" d="M141.31,408.91c1.05-5.91-3.35-11.67-8.71-14.38c-5.36-2.71-11.53-3.16-17.48-3.97
							c-5.95-0.82-12.17-2.21-16.57-6.3c-6.86-6.38-7.9-18.02-16.04-22.66c-4.44-2.53-9.87-2.25-14.98-2.46s-10.79-1.3-13.75-5.47
							c-4.51-6.35-0.16-15.88-4.02-22.65c-3.93-6.89-14.36-7.56-18.65-14.24c-3.4-5.3-1.66-12.23-2.24-18.51
							c-1.16-12.42-11.4-21.77-20.93-29.82c5.92-4.34,13.62-2.6,19.53,1.75c5.91,4.35,9.68,10.95,13.28,17.34
							c4.02,7.14,8.05,14.29,12.07,21.43c2.16,3.83,4.44,7.81,8.09,10.27c5.03,3.4,11.9,3.39,16.61,7.22
							c5.12,4.17,6.15,11.57,10.01,16.93c8.47,11.8,26.69,10.15,38.85,18.09c4.75,3.1,8.41,7.58,11.99,11.99
							c3.34,4.11,6.68,8.23,10.02,12.34c3.31,4.08,6.69,8.28,8.35,13.26c1.66,4.99,1.25,11.01-2.37,14.81
							c-2.44,2.56-6.34,3.81-9.69,2.69C141.31,415.47,140.69,412.39,141.31,408.91z"/>
						<path id="XMLID_124_" class="st1" d="M104.82,371.89c-8.36-6.22-13.38-17.05-23.21-20.49c-3.49-1.22-7.25-1.35-10.86-2.11
							c-3.61-0.76-7.34-2.36-9.22-5.54c-2.9-4.91-0.36-11.56-2.85-16.69c-2.88-5.93-10.9-7.14-15.47-11.89
							c-5.12-5.32-4.81-13.62-6.5-20.81c-1.63-6.96-5.64-13.22-10.97-17.93c-3.51-3.11-10.18-7.33-16.45-8.76
							c-0.45,0.25-0.91,0.47-1.34,0.79c9.53,8.05,19.77,17.4,20.93,29.82c0.59,6.27-1.16,13.2,2.24,18.51
							c4.28,6.68,14.72,7.35,18.65,14.24c3.86,6.77-0.49,16.3,4.02,22.65c2.96,4.17,8.64,5.27,13.75,5.47s10.53-0.08,14.98,2.46
							c8.14,4.64,9.18,16.28,16.04,22.66c4.4,4.09,10.62,5.48,16.57,6.3c5.95,0.82,12.12,1.26,17.48,3.97
							c5.36,2.71,9.75,8.46,8.71,14.38c-0.62,3.48,0,6.56,3.35,7.69c0.4,0.13,0.8,0.23,1.21,0.3c1.38-2.6,2.31-5.43,2.63-8.35
							c0.74-6.84-1.73-13.96-6.55-18.87C132.26,379.79,115.92,380.15,104.82,371.89z"/>
					</g>
					<g id="XMLID_120_">
						<path id="XMLID_119_" class="st4" d="M146.93,406.92c4.44-3.43,4.66-10.35,2.19-15.39c-2.47-5.04-6.96-8.73-11.05-12.57
							c-4.09-3.84-8.09-8.31-9.04-13.85c-0.9-5.23,1-11.02-1.53-15.67c-3.3-6.07-12.26-6.83-16.15-12.54
							c-6.14-9.02,4.69-22.11-0.28-31.82c-5.22-10.17-23.37-8.25-27.3-18.98c-3.33-9.11,7.11-18.04,6.46-27.73
							c-0.68-10.19-12.37-15.18-19.33-22.65c-9.63-10.34-9.55-28.22,0.16-38.48c-2.37,6.78,1.73,14.84,6.56,20.15
							c4.83,5.31,11.14,9.01,16.67,13.59c5.53,4.58,10.54,10.6,11.15,17.76c0.78,9.1-5.62,18.72-1.55,26.9
							c4.73,9.49,19.8,9.14,25.33,18.19c7.31,11.97-8.02,28.96-0.38,40.72c3.59,5.53,11.23,7.63,14.23,13.5
							c1.86,3.64,1.53,7.96,2.18,12c1.42,8.79,7.47,15.99,12.45,23.37c4.98,7.38,9.2,16.51,6.41,24.97
							c-1.68,5.1-6.53,9.48-11.88,9.05C146.9,417.01,142.69,410.2,146.93,406.92z"/>
						<path id="XMLID_154_" class="st1" d="M146.32,376.21c-6.41-10.6-12.83-21.19-19.24-31.79c-3.56-5.88-7.19-11.94-8.34-18.71
							c-1.8-10.57,2.17-23.08-4.94-31.09c-6.19-6.97-19.08-7.94-21.24-17c-1.32-5.52,2.42-10.87,3.52-16.44
							c1.66-8.42-2.88-16.85-8.36-23.45c-5.49-6.6-12.16-12.38-16.12-19.99c-1.9-3.66-2.98-7.85-2.9-11.98
							c0.06-2.83,1.77-5.75,2.35-8.48c-9.68,10.26-9.74,28.11-0.13,38.44c6.96,7.47,18.65,12.46,19.33,22.65
							c0.65,9.68-9.8,18.61-6.46,27.73c3.93,10.74,22.08,8.81,27.3,18.98c4.98,9.71-5.85,22.8,0.29,31.82
							c3.89,5.71,12.85,6.47,16.15,12.54c2.53,4.66,0.63,10.45,1.53,15.67c0.95,5.53,4.94,10.01,9.04,13.85
							c4.09,3.84,8.58,7.53,11.05,12.57c2.47,5.04,2.25,11.96-2.19,15.39c-4.25,3.28-0.04,10.09,5.31,10.52
							c0.41,0.03,0.81-0.01,1.21-0.03c0.27-0.41,0.59-0.78,0.84-1.21c3.48-6.24,3.43-13.95,1.44-20.81
							C153.76,388.52,150.02,382.32,146.32,376.21z"/>
					</g>
				</g>
			</g>
			<g id="XMLID_161_">
				<g id="XMLID_172_">
					<g id="XMLID_193_">
						<g id="XMLID_210_">
							<path id="XMLID_212_" class="st0" d="M497.15,386.4c0,0-25.35,41.41-100.15,41.41c-74.8,0-96.56-41.41-96.56-41.41
								s21.76-41.41,96.56-41.41C471.79,344.99,497.15,386.4,497.15,386.4z"/>
							<path id="XMLID_211_" class="st1" d="M497.15,386.4H300.44c0,0,21.76,41.41,96.56,41.41
								C471.79,427.81,497.15,386.4,497.15,386.4z"/>
						</g>
						<g id="XMLID_194_">
							<g id="XMLID_207_">
								<path class="st2" d="M463.9,386.4c-10.38,0.39-20.77,0.65-31.15,0.78c-10.38,0.16-20.77,0.2-31.15,0.22
									c-10.38-0.02-20.77-0.06-31.15-0.22c-10.38-0.13-20.77-0.39-31.15-0.78c10.38-0.39,20.77-0.65,31.15-0.78
									c10.38-0.16,20.77-0.2,31.15-0.22c10.38,0.02,20.77,0.06,31.15,0.22C443.13,385.75,453.51,386.01,463.9,386.4z"/>
							</g>
							<g id="XMLID_204_">
								<path class="st2" d="M445.39,372.05c-2.64,2.71-5.4,5.27-8.21,7.77c-2.8,2.51-5.67,4.94-8.56,7.35v-1.54
									c2.89,2.4,5.76,4.83,8.56,7.34c2.81,2.5,5.57,5.06,8.2,7.78c-3.16-2.07-6.2-4.29-9.2-6.57c-3-2.27-5.93-4.63-8.84-7.01
									l-0.94-0.77l0.94-0.77c2.91-2.38,5.84-4.73,8.84-7C439.19,376.35,442.23,374.12,445.39,372.05z"/>
							</g>
							<g id="XMLID_201_">
								<path class="st2" d="M421.99,372.05c-2.64,2.71-5.4,5.27-8.21,7.77c-2.8,2.51-5.67,4.94-8.56,7.35v-1.54
									c2.89,2.4,5.76,4.83,8.56,7.34c2.81,2.5,5.57,5.06,8.2,7.78c-3.16-2.07-6.2-4.29-9.2-6.57c-3-2.27-5.93-4.63-8.84-7.01
									l-0.94-0.77l0.94-0.77c2.91-2.38,5.84-4.73,8.84-7C415.79,376.35,418.83,374.12,421.99,372.05z"/>
							</g>
							<g id="XMLID_198_">
								<path class="st2" d="M398.59,372.05c-2.64,2.71-5.4,5.27-8.21,7.77c-2.8,2.51-5.67,4.94-8.56,7.35v-1.54
									c2.89,2.4,5.76,4.83,8.56,7.34c2.81,2.5,5.57,5.06,8.2,7.78c-3.16-2.07-6.2-4.29-9.2-6.57c-3-2.27-5.93-4.63-8.84-7.01
									l-0.94-0.77l0.94-0.77c2.91-2.38,5.84-4.73,8.84-7C392.39,376.35,395.43,374.12,398.59,372.05z"/>
							</g>
							<g id="XMLID_195_">
								<path class="st2" d="M375.2,372.05c-2.64,2.71-5.4,5.27-8.21,7.77c-2.8,2.51-5.67,4.94-8.56,7.35v-1.54
									c2.89,2.4,5.76,4.83,8.56,7.34c2.81,2.5,5.57,5.06,8.2,7.78c-3.16-2.07-6.2-4.29-9.2-6.57c-3-2.27-5.93-4.63-8.84-7.01
									l-0.94-0.77l0.94-0.77c2.91-2.38,5.84-4.73,8.84-7C368.99,376.35,372.03,374.12,375.2,372.05z"/>
							</g>
						</g>
					</g>
					<g id="XMLID_173_">
						<g id="XMLID_190_">
							<path id="XMLID_192_" class="st0" d="M467.37,220.31c0,0,13.6,56.55-49.75,119.9c-63.35,63.35-116.85,46.71-116.85,46.71
								s-16.64-53.5,46.71-116.85S467.37,220.31,467.37,220.31z"/>
							<path id="XMLID_191_" class="st1" d="M467.37,220.31L300.77,386.91c0,0,53.5,16.64,116.85-46.71
								C480.97,276.85,467.37,220.31,467.37,220.31z"/>
						</g>
						<g id="XMLID_174_">
							<g id="XMLID_187_">
								<path class="st2" d="M439.21,248.47c-8.52,9.07-17.13,18.05-25.83,26.93c-8.68,8.91-17.45,17.73-26.23,26.54
									c-8.81,8.78-17.63,17.55-26.54,26.23c-8.89,8.7-17.87,17.31-26.94,25.83c8.52-9.07,17.13-18.05,25.83-26.94
									c8.68-8.91,17.45-17.73,26.23-26.54c8.81-8.78,17.63-17.55,26.54-26.23C421.16,265.6,430.14,256.99,439.21,248.47z"/>
							</g>
							<g id="XMLID_184_">
								<path class="st2" d="M411.38,251.99c-0.02,4.52-0.23,9.02-0.52,13.52c-0.27,4.5-0.66,8.98-1.07,13.47l-1.09-1.09
									c4.48-0.41,8.97-0.8,13.47-1.07c4.5-0.28,9-0.5,13.52-0.52c-4.44,0.85-8.9,1.49-13.37,2.07c-4.47,0.59-8.94,1.06-13.42,1.51
									l-1.21,0.12l0.12-1.21c0.45-4.48,0.92-8.96,1.51-13.42C409.89,260.89,410.54,256.43,411.38,251.99z"/>
							</g>
							<g id="XMLID_181_">
								<path class="st2" d="M391.57,271.81c-0.02,4.52-0.23,9.02-0.52,13.52c-0.27,4.5-0.66,8.98-1.07,13.47l-1.09-1.09
									c4.48-0.41,8.97-0.8,13.47-1.07c4.5-0.28,9-0.5,13.52-0.52c-4.44,0.85-8.9,1.49-13.37,2.07c-4.47,0.59-8.94,1.06-13.42,1.51
									l-1.21,0.12l0.12-1.21c0.45-4.48,0.92-8.96,1.51-13.42C390.08,280.71,390.72,276.25,391.57,271.81z"/>
							</g>
							<g id="XMLID_178_">
								<path class="st2" d="M371.75,291.63c-0.02,4.52-0.23,9.02-0.52,13.52c-0.27,4.5-0.66,8.98-1.07,13.47l-1.09-1.09
									c4.48-0.41,8.97-0.8,13.47-1.07c4.5-0.28,9-0.5,13.52-0.52c-4.44,0.85-8.9,1.49-13.37,2.07c-4.47,0.59-8.94,1.06-13.42,1.51
									l-1.21,0.12l0.12-1.21c0.45-4.48,0.92-8.96,1.51-13.42C370.26,300.53,370.9,296.07,371.75,291.63z"/>
							</g>
							<g id="XMLID_175_">
								<path class="st2" d="M351.93,311.44c-0.02,4.52-0.23,9.02-0.52,13.52c-0.27,4.5-0.66,8.98-1.07,13.47l-1.09-1.09
									c4.48-0.41,8.97-0.8,13.47-1.07c4.5-0.28,9-0.5,13.52-0.52c-4.44,0.85-8.9,1.49-13.37,2.07c-4.47,0.59-8.94,1.06-13.42,1.51
									l-1.21,0.12l0.12-1.21c0.45-4.48,0.92-8.96,1.51-13.42C350.44,320.35,351.09,315.89,351.93,311.44z"/>
							</g>
						</g>
					</g>
				</g>
				<g id="XMLID_169_">
					<path id="XMLID_171_" class="st3" d="M305.65,271.38c2.97-6.4-5.25-10.54,0.37-22.65c5.45-11.75,24.11-8.35,28.09-15.74
						c6.6-12.24-5.17-15.62-0.49-26.68c3.86-9.13,20.29-5.18,24.84-13.99c3.38-6.55-1.83-15.01,2.33-21.05
						c5.1-7.42,23.97,2.54,28.34-6.58c4.43-9.26-0.81-14.38,3.07-23.29c2.53-5.82,11.95-9.95,25.88-3.44
						c13.97,6.44,16.89,16.3,14.08,21.99c-4.3,8.71-11.6,8.02-15.8,17.38c-4.15,9.23,15.64,17.2,13.27,25.89
						c-1.93,7.08-11.75,8.57-14.57,15.38c-3.8,9.16,9.83,19.15,5.35,28c-5.43,10.72-15.61,3.92-20.7,16.85
						c-3.07,7.82,11.57,19.87,6.12,31.61c-5.62,12.11-14.09,8.5-17.06,14.91c-2.75,5.93,11.35,17.87,3.94,31.48
						c-7.94,14.6-24.18,15.66-67.05-4.33c-42.95-19.83-52.62-32.92-46.6-48.41C284.67,274.26,302.89,277.31,305.65,271.38z"/>
					<path id="XMLID_170_" class="st1" d="M432.16,159.95c-4.3,8.71-11.6,8.02-15.8,17.38c-4.15,9.23,15.64,17.2,13.27,25.89
						c-1.93,7.08-11.75,8.57-14.57,15.38c-3.8,9.16,9.83,19.15,5.35,28c-5.43,10.72-15.61,3.92-20.7,16.85
						c-3.07,7.82,11.57,19.87,6.12,31.61c-5.62,12.11-14.09,8.5-17.06,14.91c-2.75,5.93,11.35,17.87,3.94,31.48
						c-7.94,14.6-24.18,15.66-67.05-4.33l92.42-199.15C432.04,144.4,434.97,154.26,432.16,159.95z"/>
				</g>
				<g id="XMLID_162_">
					<g id="XMLID_166_">
						<path id="XMLID_168_" class="st4" d="M358.69,408.91c-1.05-5.91,3.35-11.67,8.71-14.38c5.36-2.71,11.53-3.16,17.48-3.97
							c5.95-0.82,12.17-2.21,16.57-6.3c6.86-6.38,7.9-18.02,16.04-22.66c4.44-2.53,9.87-2.25,14.98-2.46
							c5.11-0.2,10.79-1.3,13.75-5.47c4.51-6.35,0.16-15.88,4.02-22.65c3.93-6.89,14.36-7.56,18.65-14.24
							c3.4-5.3,1.66-12.23,2.24-18.51c1.16-12.42,11.4-21.77,20.93-29.82c-5.92-4.34-13.62-2.6-19.53,1.75
							c-5.91,4.35-9.68,10.95-13.28,17.34c-4.02,7.14-8.05,14.29-12.07,21.43c-2.16,3.83-4.44,7.81-8.09,10.27
							c-5.03,3.4-11.9,3.39-16.61,7.22c-5.12,4.17-6.15,11.57-10.01,16.93c-8.47,11.8-26.69,10.15-38.85,18.09
							c-4.75,3.1-8.41,7.58-11.99,11.99c-3.34,4.11-6.68,8.23-10.02,12.34c-3.31,4.08-6.69,8.28-8.35,13.26
							c-1.66,4.99-1.25,11.01,2.37,14.81c2.44,2.56,6.34,3.81,9.69,2.69C358.69,415.47,359.31,412.39,358.69,408.91z"/>
						<path id="XMLID_167_" class="st1" d="M395.18,371.89c8.36-6.22,13.38-17.05,23.21-20.49c3.49-1.22,7.25-1.35,10.86-2.11
							c3.61-0.76,7.34-2.36,9.22-5.54c2.9-4.91,0.36-11.56,2.85-16.69c2.88-5.93,10.9-7.14,15.47-11.89
							c5.12-5.32,4.81-13.62,6.5-20.81c1.63-6.96,5.64-13.22,10.97-17.93c3.51-3.11,10.18-7.33,16.45-8.76
							c0.45,0.25,0.91,0.47,1.34,0.79c-9.53,8.05-19.77,17.4-20.93,29.82c-0.59,6.27,1.16,13.2-2.24,18.51
							c-4.28,6.68-14.72,7.35-18.65,14.24c-3.86,6.77,0.49,16.3-4.02,22.65c-2.96,4.17-8.64,5.27-13.75,5.47
							c-5.11,0.2-10.53-0.08-14.98,2.46c-8.14,4.64-9.18,16.28-16.04,22.66c-4.4,4.09-10.62,5.48-16.57,6.3
							c-5.95,0.82-12.12,1.26-17.48,3.97s-9.75,8.46-8.71,14.38c0.62,3.48,0,6.56-3.35,7.69c-0.4,0.13-0.8,0.23-1.21,0.3
							c-1.38-2.6-2.31-5.43-2.63-8.35c-0.74-6.84,1.73-13.96,6.55-18.87C367.74,379.79,384.08,380.15,395.18,371.89z"/>
					</g>
					<g id="XMLID_163_">
						<path id="XMLID_165_" class="st4" d="M353.07,406.92c-4.44-3.43-4.66-10.35-2.19-15.39c2.47-5.04,6.96-8.73,11.05-12.57
							c4.09-3.84,8.09-8.31,9.04-13.85c0.9-5.23-1-11.02,1.53-15.67c3.3-6.07,12.26-6.83,16.15-12.54
							c6.14-9.02-4.69-22.11,0.28-31.82c5.22-10.17,23.37-8.25,27.3-18.98c3.33-9.11-7.11-18.04-6.46-27.73
							c0.68-10.19,12.37-15.18,19.33-22.65c9.63-10.34,9.55-28.22-0.16-38.48c2.37,6.78-1.73,14.84-6.56,20.15
							c-4.83,5.31-11.14,9.01-16.67,13.59c-5.53,4.58-10.54,10.6-11.15,17.76c-0.78,9.1,5.62,18.72,1.55,26.9
							c-4.73,9.49-19.8,9.14-25.33,18.19c-7.31,11.97,8.02,28.96,0.38,40.72c-3.59,5.53-11.23,7.63-14.23,13.5
							c-1.86,3.64-1.52,7.96-2.18,12c-1.42,8.79-7.47,15.99-12.45,23.37c-4.98,7.38-9.2,16.51-6.41,24.97
							c1.68,5.1,6.53,9.48,11.88,9.05C353.1,417.01,357.31,410.2,353.07,406.92z"/>
						<path id="XMLID_164_" class="st1" d="M353.68,376.21c6.41-10.6,12.83-21.19,19.24-31.79c3.56-5.88,7.19-11.94,8.34-18.71
							c1.8-10.57-2.17-23.08,4.94-31.09c6.19-6.97,19.08-7.94,21.24-17c1.32-5.52-2.42-10.87-3.52-16.44
							c-1.66-8.42,2.88-16.85,8.36-23.45c5.49-6.6,12.16-12.38,16.12-19.99c1.9-3.66,2.98-7.85,2.9-11.98
							c-0.06-2.83-1.77-5.75-2.35-8.48c9.68,10.26,9.74,28.11,0.13,38.44c-6.96,7.47-18.65,12.46-19.33,22.65
							c-0.65,9.68,9.8,18.61,6.46,27.73c-3.93,10.74-22.08,8.81-27.3,18.98c-4.98,9.71,5.85,22.8-0.29,31.82
							c-3.89,5.71-12.85,6.47-16.15,12.54c-2.53,4.66-0.63,10.45-1.53,15.67c-0.95,5.53-4.94,10.01-9.04,13.85
							c-4.09,3.84-8.58,7.53-11.05,12.57c-2.47,5.04-2.25,11.96,2.19,15.39c4.25,3.28,0.04,10.09-5.31,10.52
							c-0.41,0.03-0.81-0.01-1.21-0.03c-0.27-0.41-0.59-0.78-0.84-1.21c-3.48-6.24-3.43-13.95-1.44-20.81
							C346.24,388.52,349.98,382.32,353.68,376.21z"/>
					</g>
				</g>
			</g>
		</g>
		<g id="XMLID_106_">
			<g id="XMLID_105_">
				<g id="XMLID_38_">
					<path id="XMLID_35_" class="st2" d="M164.93,421.7V78.3c0-5.38,4.36-9.74,9.74-9.74h169.52c5.38,0,9.74,4.36,9.74,9.74v343.4
						c0,5.38-4.36,9.74-9.74,9.74H174.67C169.29,431.44,164.93,427.08,164.93,421.7z"/>
					<rect id="XMLID_47_" x="168.03" y="96.92" class="st5" width="182.79" height="291.12"/>
					<g id="XMLID_46_">
						<g id="XMLID_44_">
							<circle id="XMLID_36_" class="st6" cx="321.1" cy="85.47" r="5.04"/>
							<path id="XMLID_37_" class="st6" d="M236.42,90.51h46c2.79,0,5.04-2.26,5.04-5.04l0,0c0-2.79-2.26-5.04-5.04-5.04h-46
								c-2.79,0-5.04,2.26-5.04,5.04l0,0C231.38,88.26,233.64,90.51,236.42,90.51z"/>
							<path id="XMLID_34_" class="st6" d="M197.74,90.51h9.45c2.79,0,5.04-2.26,5.04-5.04l0,0c0-2.79-2.26-5.04-5.04-5.04h-9.45
								c-2.79,0-5.04,2.26-5.04,5.04l0,0C192.7,88.26,194.96,90.51,197.74,90.51z"/>
						</g>
					</g>
					<g id="XMLID_49_">
						<path id="XMLID_21_" class="st7" d="M242.24,409.74c0-9.49,7.69-17.18,17.18-17.18s17.18,7.69,17.18,17.18
							s-7.69,17.18-17.18,17.18S242.24,419.23,242.24,409.74z"/>
						<path id="XMLID_48_" class="st6" d="M245.16,409.74c0-7.88,6.38-14.26,14.26-14.26c7.88,0,14.26,6.38,14.26,14.26
							c0,7.88-6.38,14.26-14.26,14.26C251.55,424,245.16,417.62,245.16,409.74z"/>
					</g>
				</g>
				<g>
					<path class="st8" d="M251.47,159.5c0-12.61-10.22-22.83-22.83-22.83h0c-12.61,0-22.83,10.22-22.83,22.83v66.61l-19.45,22.8
						l64.56-0.2l0.55-22.6V159.5z"/>
					<linearGradient id="SVGID_1_" gradientUnits="userSpaceOnUse" x1="260.3635" y1="64.4587" x2="260.3635" y2="293.3121">
						<stop  offset="0" style="stop-color:#ECEAF4"/>
						<stop  offset="0.1352" style="stop-color:#E3E1F0"/>
						<stop  offset="0.3592" style="stop-color:#CAC7E4"/>
						<stop  offset="0.5674" style="stop-color:#AEAAD7"/>
						<stop  offset="0.8652" style="stop-color:#847CBE"/>
						<stop  offset="0.9944" style="stop-color:#696397"/>
					</linearGradient>
					<path class="st9" d="M353.4,136.67v-36.46c0-1.38-1.12-2.51-2.51-2.51H170.13c-1.38,0-2.5,1.11-2.51,2.49
						c-0.08,14.95-0.51,92.4-0.18,129.18c0.01,1.44,0.18,2.89,0.51,4.29c0.32,1.37,0.78,2.71,1.39,3.98
						c0.59,1.25,1.32,2.44,2.16,3.53c0.84,1.09,1.79,2.09,2.84,2.99c1.05,0.9,2.19,1.68,3.41,2.34c1.23,0.67,2.53,1.21,3.87,1.6
						c1.59,0.46,3.24,0.74,4.89,0.8c1.54,0.06,3.08-0.07,4.59-0.38c1.36-0.27,2.69-0.69,3.96-1.25c1.25-0.54,2.44-1.22,3.55-2.01
						c1.1-0.78,2.12-1.68,3.04-2.67c0.92-0.99,1.74-2.08,2.44-3.24c0.71-1.17,1.29-2.42,1.74-3.71c0.46-1.32,0.77-2.7,0.94-4.09
						c0.09-0.79,0.14-1.58,0.14-2.37v-3.08v-66.07c0-12.38,9.63-22.92,22-23.36c12.99-0.46,23.66,9.93,23.66,22.82"/>
					<path class="st11" d="M240.16,226.11l0.55-66.61c0-12.61,2.39-22.83-10.22-22.83h150.82c17.22,0,31.18,13.96,31.18,31.18v95.35
						c0,46.22-8.54,89.12,31.75,133.6h-1.6H269.52c-29.71-22.73-29.36-58-29.36-95.41V226.11z"/>
					<linearGradient id="SVGID_2_" gradientUnits="userSpaceOnUse" x1="341.8192" y1="246.1249" x2="341.8192" y2="574.1304">
						<stop  offset="0" style="stop-color:#ECEAF4"/>
						<stop  offset="0.1352" style="stop-color:#E3E1F0"/>
						<stop  offset="0.3592" style="stop-color:#CAC7E4"/>
						<stop  offset="0.5674" style="stop-color:#AEAAD7"/>
						<stop  offset="0.8652" style="stop-color:#847CBE"/>
						<stop  offset="0.9944" style="stop-color:#696397"/>
					</linearGradient>
					<path class="st12" d="M423.25,263.2v-95.35c0-17.22-13.96-31.18-31.18-31.18H228.64c12.61,0,22.83,10.22,22.83,22.83
						l-0.55,66.61v75.28c0,37.41-0.35,72.68,29.36,95.41H453.4h1.6C414.7,352.32,423.25,309.42,423.25,263.2z"/>
					<g>
						<text transform="matrix(1 0 0 1 273.0625 202.8588)" class="st13 st14 st15">Die Rechnung</text>
						<g>
							<g>
								<line class="st16" x1="280.23" y1="328.09" x2="286.23" y2="328.09"/>
								<line class="st17" x1="299.45" y1="328.09" x2="398.59" y2="328.09"/>
								<line class="st16" x1="405.2" y1="328.09" x2="411.2" y2="328.09"/>
							</g>
						</g>
						<g>
							<text transform="matrix(1 0 0 1 278.0186 234.4311)" class="st18 st19 st20">ARTIKEL 1</text>
							<text transform="matrix(1 0 0 1 361.6729 234.4311)" class="st18 st19 st20">$20.00</text>
						</g>
						<g>
							<text transform="matrix(1 0 0 1 278.0186 257.2514)" class="st18 st19 st20">ARTIKEL 1</text>
							<text transform="matrix(1 0 0 1 361.6729 257.2514)" class="st18 st19 st20">$20.00</text>
						</g>
						<g>
							<text transform="matrix(1 0 0 1 278.0186 278.852)" class="st18 st19 st20">ARTIKEL 1</text>
							<text transform="matrix(1 0 0 1 361.6729 278.852)" class="st18 st19 st20">$20.00</text>
						</g>
						<text transform="matrix(1 0 0 1 310.5391 363.9984)" class="st21 st14 st22">TOTAL: 00.00</text>
						<line class="st23" x1="271.42" y1="298.33" x2="412.83" y2="298.33"/>
						<line class="st23" x1="271.42" y1="315" x2="412.83" y2="315"/>
					</g>
				</g>
			</g>
		</g>
	</g>
</g>
<g id="DESIGNEDBYFREEPIK">
</g>
</svg>
