<?xml version="1.0" encoding="utf-8"?>
<!-- Generator: Adobe Illustrator 25.2.3, SVG Export Plug-In . SVG Version: 6.00 Build 0)  -->
<svg version="1.1" xmlns="http://www.w3.org/2000/svg" xmlns:xlink="http://www.w3.org/1999/xlink" x="0px" y="0px"
	 viewBox="0 0 500 500" style="enable-background:new 0 0 500 500;" xml:space="preserve">
<style type="text/css">
	.st0{fill:#7FBEC0;}
	.st1{opacity:0.15;fill:#443D5E;}
	.st2{fill:#443D5E;}
	.st3{fill:#B8F5D5;}
	.st4{fill:#63779A;}
	.st5{fill:#FFFFFF;}
	.st6{fill:#615D7F;}
	.st7{fill:none;stroke:#615D7F;stroke-width:0.5;stroke-miterlimit:10;}
	.st8{fill:#4B2F91;}
	.st9{fill:url(#SVGID_1_);}
	.st10{fill:#4D4D4D;}
	.st11{opacity:0.12;fill:#1B1464;}
	.st12{fill:url(#SVGID_2_);}
	.st13{fill:none;stroke:#8289E8;stroke-width:2;stroke-miterlimit:10;}
	.st14{fill:none;stroke:#8289E8;stroke-width:2;stroke-miterlimit:10;stroke-dasharray:13.2193,13.2193;}
	.st15{fill:none;stroke:#837BBC;stroke-width:6;stroke-miterlimit:10;}
	.st16{fill:url(#SVGID_3_);}
	.st17{fill:url(#SVGID_4_);}
	.st18{fill:#71AFAF;}
	.st19{opacity:0.25;}
	.st20{opacity:0.25;fill:#FFFFFF;}
	.st21{fill:#36334E;}
	.st22{fill:none;stroke:#443D5E;stroke-width:2;stroke-linecap:round;stroke-linejoin:round;stroke-miterlimit:10;}
</style>
<g id="BACKGROUND">
</g>
<g id="OBJECTS">
	<g id="XMLID_431_">
		<g id="XMLID_468_">
			<g id="XMLID_45_">
				<g id="XMLID_420_">
					<g id="XMLID_441_">
						<g id="XMLID_458_">
							<path id="XMLID_460_" class="st0" d="M498.12,351.79c0,0-25.35,41.39-100.12,41.39c-74.77,0-96.52-41.39-96.52-41.39
								S323.23,310.4,398,310.4C472.77,310.4,498.12,351.79,498.12,351.79z"/>
							<path id="XMLID_459_" class="st1" d="M498.12,351.79H301.48c0,0,21.75,41.39,96.52,41.39
								C472.77,393.18,498.12,351.79,498.12,351.79z"/>
						</g>
						<g id="XMLID_442_">
							<g id="XMLID_455_">
								<path class="st2" d="M464.88,351.79c-10.38,0.39-20.76,0.65-31.14,0.78c-10.38,0.16-20.76,0.2-31.14,0.22
									c-10.38-0.02-20.76-0.06-31.14-0.22c-10.38-0.13-20.76-0.39-31.14-0.78c10.38-0.39,20.76-0.65,31.14-0.78
									c10.38-0.16,20.76-0.2,31.14-0.22c10.38,0.02,20.76,0.06,31.14,0.22C444.12,351.14,454.5,351.4,464.88,351.79z"/>
							</g>
							<g id="XMLID_452_">
								<path class="st2" d="M446.38,337.45c-2.64,2.71-5.4,5.27-8.2,7.77c-2.8,2.51-5.67,4.94-8.56,7.34v-1.54
									c2.89,2.4,5.76,4.83,8.56,7.34c2.81,2.5,5.57,5.06,8.2,7.77c-3.16-2.07-6.2-4.29-9.19-6.57c-3-2.27-5.93-4.63-8.84-7
									l-0.94-0.77l0.94-0.77c2.91-2.38,5.84-4.73,8.84-7C440.18,341.74,443.22,339.52,446.38,337.45z"/>
							</g>
							<g id="XMLID_449_">
								<path class="st2" d="M422.99,337.45c-2.64,2.71-5.4,5.27-8.2,7.77c-2.8,2.51-5.67,4.94-8.56,7.34v-1.54
									c2.89,2.4,5.76,4.83,8.56,7.34c2.81,2.5,5.57,5.06,8.2,7.77c-3.16-2.07-6.2-4.29-9.19-6.57c-3-2.27-5.93-4.63-8.84-7
									l-0.94-0.77l0.94-0.77c2.91-2.38,5.84-4.73,8.84-7C416.79,341.74,419.83,339.52,422.99,337.45z"/>
							</g>
							<g id="XMLID_446_">
								<path class="st2" d="M399.6,337.45c-2.64,2.71-5.4,5.27-8.2,7.77c-2.8,2.51-5.67,4.94-8.56,7.34l0-1.54
									c2.89,2.4,5.76,4.83,8.56,7.34c2.81,2.5,5.57,5.06,8.2,7.77c-3.16-2.07-6.2-4.29-9.19-6.57c-3-2.27-5.93-4.63-8.84-7
									l-0.94-0.77l0.94-0.77c2.91-2.38,5.84-4.73,8.84-7C393.4,341.74,396.44,339.52,399.6,337.45z"/>
							</g>
							<g id="XMLID_443_">
								<path class="st2" d="M376.21,337.45c-2.64,2.71-5.4,5.27-8.2,7.77c-2.8,2.51-5.67,4.94-8.56,7.34v-1.54
									c2.89,2.4,5.76,4.83,8.56,7.34c2.81,2.5,5.57,5.06,8.2,7.77c-3.16-2.07-6.2-4.29-9.19-6.57c-3-2.27-5.93-4.63-8.84-7
									l-0.94-0.77l0.94-0.77c2.91-2.38,5.84-4.73,8.84-7C370.01,341.74,373.05,339.52,376.21,337.45z"/>
							</g>
						</g>
					</g>
					<g id="XMLID_421_">
						<g id="XMLID_438_">
							<path id="XMLID_440_" class="st0" d="M468.35,185.75c0,0,13.59,56.53-49.74,119.86c-63.33,63.33-116.81,46.69-116.81,46.69
								s-16.64-53.48,46.69-116.81C411.83,172.16,468.35,185.75,468.35,185.75z"/>
							<path id="XMLID_439_" class="st1" d="M468.35,185.75L301.81,352.3c0,0,53.48,16.64,116.81-46.69S468.35,185.75,468.35,185.75
								z"/>
						</g>
						<g id="XMLID_422_">
							<g id="XMLID_435_">
								<path class="st2" d="M440.2,213.91c-8.52,9.06-17.13,18.04-25.83,26.92c-8.68,8.9-17.44,17.73-26.22,26.53
									c-8.8,8.78-17.63,17.54-26.53,26.22c-8.88,8.7-17.86,17.31-26.93,25.82c8.52-9.07,17.12-18.04,25.82-26.93
									c8.68-8.9,17.44-17.73,26.22-26.53c8.81-8.78,17.63-17.54,26.53-26.22C422.16,231.03,431.14,222.42,440.2,213.91z"/>
							</g>
							<g id="XMLID_432_">
								<path class="st2" d="M412.39,217.43c-0.02,4.52-0.23,9.02-0.52,13.51c-0.27,4.5-0.66,8.98-1.07,13.46l-1.09-1.09
									c4.48-0.41,8.97-0.8,13.46-1.07c4.49-0.28,9-0.5,13.52-0.52c-4.44,0.85-8.9,1.49-13.37,2.07
									c-4.46,0.59-8.94,1.06-13.42,1.51l-1.21,0.12l0.12-1.21c0.45-4.48,0.92-8.95,1.51-13.42
									C410.9,226.33,411.54,221.87,412.39,217.43z"/>
							</g>
							<g id="XMLID_429_">
								<path class="st2" d="M392.58,237.24c-0.02,4.52-0.23,9.02-0.52,13.51c-0.27,4.5-0.66,8.98-1.07,13.46l-1.09-1.09
									c4.48-0.41,8.97-0.8,13.46-1.07c4.49-0.28,9-0.5,13.52-0.52c-4.44,0.85-8.9,1.49-13.37,2.07
									c-4.46,0.59-8.94,1.06-13.42,1.51l-1.21,0.12l0.12-1.21c0.45-4.48,0.92-8.95,1.51-13.42
									C391.09,246.14,391.73,241.68,392.58,237.24z"/>
							</g>
							<g id="XMLID_426_">
								<path class="st2" d="M372.76,257.05c-0.02,4.52-0.23,9.02-0.52,13.51c-0.27,4.5-0.66,8.98-1.07,13.46l-1.09-1.09
									c4.48-0.41,8.97-0.8,13.46-1.07c4.49-0.28,9-0.5,13.52-0.52c-4.44,0.85-8.9,1.49-13.37,2.07
									c-4.46,0.59-8.94,1.06-13.42,1.51l-1.21,0.12l0.12-1.21c0.45-4.48,0.92-8.95,1.51-13.42
									C371.28,265.95,371.92,261.49,372.76,257.05z"/>
							</g>
							<g id="XMLID_423_">
								<path class="st2" d="M352.95,276.86c-0.02,4.52-0.23,9.02-0.52,13.51c-0.27,4.5-0.66,8.98-1.07,13.46l-1.09-1.09
									c4.48-0.41,8.97-0.8,13.46-1.07c4.49-0.28,9-0.5,13.52-0.52c-4.44,0.85-8.9,1.49-13.37,2.07
									c-4.46,0.59-8.94,1.06-13.42,1.51l-1.21,0.12l0.12-1.21c0.45-4.48,0.92-8.95,1.51-13.42
									C351.46,285.76,352.11,281.3,352.95,276.86z"/>
							</g>
						</g>
					</g>
				</g>
				<g id="XMLID_417_">
					<path id="XMLID_419_" class="st3" d="M306.69,236.81c2.97-6.4-5.25-10.53,0.37-22.64c5.45-11.74,24.1-8.34,28.08-15.73
						c6.59-12.23-5.17-15.62-0.49-26.68c3.86-9.13,20.29-5.17,24.83-13.98c3.38-6.55-1.82-15,2.33-21.05
						c5.1-7.42,23.96,2.54,28.33-6.58c4.43-9.25-0.81-14.37,3.07-23.28c2.53-5.82,11.94-9.95,25.88-3.44
						c13.96,6.44,16.89,16.3,14.08,21.98c-4.3,8.71-11.59,8.01-15.8,17.37c-4.15,9.22,15.63,17.2,13.26,25.88
						c-1.93,7.08-11.74,8.56-14.57,15.37c-3.79,9.15,9.83,19.15,5.35,27.99c-5.42,10.71-15.6,3.92-20.69,16.85
						c-3.07,7.81,11.57,19.86,6.12,31.6c-5.62,12.11-14.08,8.5-17.05,14.9c-2.75,5.93,11.34,17.87,3.94,31.47
						c-7.94,14.59-24.17,15.65-67.03-4.33c-42.93-19.82-52.6-32.91-46.58-48.39C285.72,239.69,303.93,242.74,306.69,236.81z"/>
					<path id="XMLID_418_" class="st1" d="M433.15,125.42c-4.3,8.71-11.59,8.01-15.8,17.37c-4.15,9.22,15.63,17.2,13.26,25.88
						c-1.93,7.08-11.74,8.56-14.57,15.37c-3.79,9.15,9.83,19.15,5.35,27.99c-5.42,10.71-15.6,3.92-20.69,16.85
						c-3.07,7.81,11.57,19.86,6.12,31.6c-5.62,12.11-14.08,8.5-17.05,14.9c-2.75,5.93,11.34,17.87,3.94,31.47
						c-7.94,14.59-24.17,15.65-67.03-4.33l92.38-199.08C433.04,109.87,435.96,119.73,433.15,125.42z"/>
				</g>
				<g id="XMLID_281_">
					<g id="XMLID_287_">
						<path id="XMLID_416_" class="st4" d="M359.71,374.29c-1.05-5.91,3.35-11.66,8.7-14.37c5.36-2.71,11.53-3.16,17.47-3.97
							c5.95-0.81,12.17-2.21,16.57-6.3c6.86-6.38,7.9-18.01,16.04-22.65c4.44-2.53,9.86-2.25,14.97-2.45
							c5.11-0.2,10.78-1.3,13.74-5.47c4.51-6.35,0.16-15.88,4.02-22.64c3.93-6.89,14.36-7.56,18.64-14.24
							c3.4-5.3,1.66-12.23,2.24-18.5c1.16-12.42,11.4-21.76,20.92-29.81c-5.91-4.34-13.61-2.6-19.52,1.75
							c-5.91,4.35-9.68,10.94-13.28,17.33c-4.02,7.14-8.04,14.28-12.07,21.43c-2.16,3.83-4.44,7.8-8.09,10.27
							c-5.03,3.4-11.9,3.39-16.61,7.22c-5.12,4.17-6.15,11.56-10,16.93c-8.46,11.79-26.68,10.15-38.84,18.08
							c-4.75,3.1-8.41,7.58-11.98,11.99c-3.34,4.11-6.67,8.22-10.01,12.34c-3.31,4.08-6.69,8.28-8.34,13.26
							c-1.66,4.98-1.25,11,2.37,14.8c2.44,2.56,6.33,3.81,9.69,2.68C359.72,380.85,360.33,377.77,359.71,374.29z"/>
						<path id="XMLID_415_" class="st1" d="M396.19,337.29c8.36-6.22,13.37-17.05,23.21-20.48c3.49-1.22,7.25-1.35,10.86-2.11
							c3.61-0.76,7.34-2.36,9.22-5.54c2.9-4.91,0.36-11.56,2.85-16.69c2.88-5.93,10.9-7.14,15.46-11.89
							c5.12-5.32,4.81-13.62,6.49-20.8c1.63-6.96,5.64-13.21,10.97-17.92c3.51-3.1,10.18-7.33,16.44-8.75
							c0.45,0.25,0.91,0.47,1.34,0.79c-9.53,8.05-19.77,17.39-20.92,29.81c-0.59,6.27,1.16,13.2-2.24,18.5
							c-4.28,6.67-14.71,7.35-18.64,14.24c-3.86,6.76,0.49,16.29-4.02,22.64c-2.96,4.17-8.64,5.26-13.74,5.47
							c-5.11,0.2-10.53-0.08-14.97,2.45c-8.14,4.64-9.17,16.28-16.04,22.65c-4.4,4.09-10.62,5.48-16.57,6.3
							c-5.95,0.82-12.12,1.26-17.47,3.97c-5.36,2.71-9.75,8.46-8.7,14.37c0.62,3.48,0,6.56-3.35,7.68c-0.4,0.13-0.8,0.23-1.21,0.3
							c-1.38-2.6-2.31-5.43-2.63-8.35c-0.74-6.84,1.73-13.96,6.55-18.87C368.76,345.18,385.09,345.54,396.19,337.29z"/>
					</g>
					<g id="XMLID_283_">
						<path id="XMLID_285_" class="st4" d="M354.09,372.3c-4.44-3.43-4.66-10.35-2.19-15.38c2.47-5.04,6.95-8.73,11.05-12.57
							c4.09-3.84,8.09-8.31,9.03-13.84c0.9-5.22-1-11.01,1.53-15.67c3.3-6.07,12.26-6.83,16.14-12.54
							c6.14-9.02-4.69-22.1,0.28-31.81c5.21-10.17,23.36-8.24,27.29-18.97c3.33-9.11-7.11-18.04-6.46-27.72
							c0.68-10.18,12.37-15.17,19.32-22.64c9.63-10.33,9.55-28.21-0.16-38.46c2.37,6.78-1.73,14.84-6.56,20.15
							c-4.83,5.31-11.13,9.01-16.66,13.59c-5.53,4.58-10.53,10.6-11.15,17.75c-0.78,9.1,5.62,18.72,1.55,26.89
							c-4.73,9.49-19.8,9.14-25.32,18.18c-7.31,11.96,8.02,28.94,0.38,40.7c-3.59,5.53-11.22,7.62-14.23,13.49
							c-1.86,3.64-1.52,7.96-2.18,11.99c-1.42,8.79-7.47,15.98-12.45,23.36c-4.98,7.38-9.2,16.5-6.41,24.96
							c1.68,5.1,6.53,9.47,11.88,9.05C354.13,382.39,358.34,375.58,354.09,372.3z"/>
						<path id="XMLID_284_" class="st1" d="M354.7,341.61c6.41-10.59,12.82-21.18,19.24-31.77c3.56-5.88,7.18-11.93,8.34-18.7
							c1.8-10.56-2.17-23.07,4.94-31.08c6.19-6.97,19.07-7.93,21.24-16.99c1.32-5.52-2.42-10.87-3.52-16.44
							c-1.66-8.42,2.88-16.84,8.36-23.44c5.49-6.6,12.15-12.37,16.12-19.98c1.9-3.66,2.98-7.85,2.9-11.98
							c-0.06-2.83-1.77-5.75-2.35-8.48c9.68,10.26,9.74,28.1,0.13,38.42c-6.96,7.47-18.64,12.46-19.32,22.64
							c-0.65,9.68,9.79,18.61,6.46,27.72c-3.93,10.73-22.07,8.81-27.29,18.97c-4.98,9.71,5.85,22.79-0.29,31.81
							c-3.88,5.71-12.84,6.47-16.14,12.54c-2.53,4.66-0.63,10.44-1.53,15.67c-0.95,5.53-4.94,10-9.03,13.84
							c-4.09,3.84-8.57,7.53-11.05,12.56c-2.47,5.04-2.25,11.95,2.19,15.38c4.25,3.28,0.04,10.09-5.31,10.52
							c-0.41,0.03-0.81-0.01-1.21-0.03c-0.27-0.41-0.59-0.78-0.84-1.21c-3.47-6.23-3.42-13.95-1.44-20.8
							C347.27,353.91,351.01,347.71,354.7,341.61z"/>
					</g>
				</g>
			</g>
			<g id="XMLID_1_">
				<g id="XMLID_424_">
					<g id="XMLID_425_">
						<g id="XMLID_512_">
							<g id="XMLID_535_">
								
									<ellipse id="XMLID_537_" transform="matrix(0.8347 -0.5507 0.5507 0.8347 -83.8888 82.4766)" class="st3" cx="95.44" cy="180.98" rx="37.93" ry="94.95"/>
								<path id="XMLID_536_" class="st1" d="M63.78,201.87c28.88,43.77,66.46,69.9,83.95,58.37L43.16,101.73
									C25.67,113.26,34.91,158.1,63.78,201.87z"/>
							</g>
							<g id="XMLID_513_">
								<g id="XMLID_532_">
									<path class="st2" d="M52.51,115.91c3.77,5.3,7.42,10.67,11.14,16l10.96,16.11c7.29,10.75,14.43,21.61,21.66,32.41
										c7.09,10.89,14.25,21.73,21.27,32.66l10.5,16.42c3.44,5.51,6.94,10.99,10.32,16.54c-3.77-5.3-7.43-10.67-11.14-16
										l-10.97-16.11c-7.29-10.76-14.44-21.61-21.66-32.41c-7.09-10.89-14.25-21.73-21.27-32.66l-10.5-16.42
										C59.4,126.93,55.9,121.46,52.51,115.91z"/>
								</g>
								<g id="XMLID_529_">
									<path class="st2" d="M48.91,129.64c2.77,0.42,5.48,1.02,8.17,1.7c2.69,0.66,5.35,1.43,8.01,2.23l-1.29,0.85
										c0.31-2.75,0.65-5.5,1.1-8.24c0.44-2.74,0.95-5.47,1.66-8.18c0.12,2.8,0.04,5.57-0.11,8.34c-0.14,2.77-0.39,5.53-0.66,8.28
										l-0.12,1.22l-1.17-0.37c-2.64-0.83-5.28-1.69-7.88-2.65C54.02,131.87,51.43,130.85,48.91,129.64z"/>
								</g>
								<g id="XMLID_526_">
									<path class="st2" d="M58.14,148.43c3.43,0.62,6.8,1.43,10.15,2.31c3.36,0.86,6.68,1.84,9.99,2.84L77,154.42
										c0.38-3.44,0.79-6.88,1.32-10.3c0.51-3.43,1.1-6.84,1.88-10.24c0.05,3.49-0.1,6.95-0.33,10.41
										c-0.21,3.46-0.53,6.9-0.88,10.35l-0.12,1.21l-1.16-0.36c-3.3-1.04-6.6-2.09-9.86-3.26
										C64.57,151.06,61.33,149.84,58.14,148.43z"/>
								</g>
								<g id="XMLID_523_">
									<path class="st2" d="M67.37,167.22c4.09,0.82,8.13,1.84,12.14,2.92c4.02,1.07,8,2.25,11.98,3.45l-1.29,0.85
										c0.46-4.13,0.94-8.25,1.54-12.37c0.59-4.11,1.24-8.22,2.1-12.31c-0.03,4.17-0.25,8.33-0.55,12.47
										c-0.28,4.15-0.68,8.28-1.1,12.41l-0.12,1.21l-1.16-0.36c-3.96-1.24-7.92-2.5-11.85-3.87
										C75.13,170.26,71.22,168.83,67.37,167.22z"/>
								</g>
								<g id="XMLID_520_">
									<path class="st2" d="M76.6,186.01c4.75,1.03,9.45,2.24,14.13,3.53c4.68,1.27,9.32,2.65,13.96,4.06l-1.29,0.85
										c0.53-4.82,1.09-9.63,1.76-14.43c0.66-4.8,1.39-9.6,2.32-14.37c-0.1,4.86-0.4,9.7-0.77,14.54
										c-0.36,4.84-0.83,9.66-1.33,14.48l-0.12,1.21l-1.16-0.36c-4.63-1.44-9.25-2.91-13.83-4.48
										C85.68,189.46,81.11,187.83,76.6,186.01z"/>
								</g>
								<g id="XMLID_517_">
									<path class="st2" d="M85.83,204.8c2.71,0.6,5.39,1.32,8.08,1.97c2.68,0.7,5.36,1.41,8.03,2.16
										c5.34,1.47,10.65,3.06,15.95,4.67l-1.29,0.85c0.61-5.51,1.24-11.01,1.98-16.5c0.36-2.75,0.76-5.49,1.17-8.23
										c0.46-2.74,0.85-5.48,1.37-8.21c-0.07,2.78-0.27,5.54-0.39,8.31c-0.18,2.77-0.37,5.53-0.59,8.29
										c-0.43,5.52-0.98,11.04-1.55,16.54l-0.13,1.21l-1.16-0.36c-5.29-1.65-10.57-3.31-15.82-5.09
										c-2.63-0.88-5.24-1.79-7.86-2.72C91.03,206.73,88.41,205.83,85.83,204.8z"/>
								</g>
								<g id="XMLID_514_">
									<path class="st2" d="M95.06,223.59c3.04,0.7,6.05,1.52,9.08,2.28c3.01,0.8,6.02,1.62,9.02,2.47
										c6,1.68,11.97,3.47,17.93,5.28l-1.29,0.85c0.68-6.19,1.38-12.38,2.2-18.56c0.4-3.09,0.83-6.18,1.28-9.26
										c0.5-3.08,0.92-6.17,1.48-9.24c-0.11,3.12-0.34,6.23-0.5,9.34c-0.21,3.11-0.44,6.22-0.7,9.32
										c-0.5,6.21-1.12,12.41-1.77,18.61l-0.13,1.21l-1.16-0.36c-5.95-1.85-11.89-3.72-17.8-5.7c-2.96-0.98-5.9-1.99-8.85-3.02
										C100.92,225.73,97.98,224.72,95.06,223.59z"/>
								</g>
							</g>
						</g>
						<g id="XMLID_509_">
							<path id="XMLID_511_" class="st0" d="M108.36,210.9c-7.59-7.59-24.76,4.14-31.75-2.86c-5.86-5.86,6.67-21.52-7-35.19
								c-10.86-10.86-36.21,11.42-44.57,20.23c-8.81,8.36-31.1,33.71-20.23,44.57c13.67,13.67,29.33,1.14,35.19,7
								c6.99,6.99-4.73,24.17,2.86,31.75c8.74,8.74,23.51-5.01,29.33,0.8c5.07,5.07-1.48,17.38,4.71,23.57
								c6.98,6.98,22.79-6.97,28.2-1.37c4.18,4.32,1.33,13.08,5.83,17.59c3.84,3.84,11.54,5.65,27.61-10.42
								c16.07-16.07,14.27-23.77,10.42-27.61c-4.51-4.51-13.27-1.66-17.59-5.83c-5.61-5.41,8.34-21.22,1.37-28.2
								c-6.19-6.19-18.49,0.36-23.57-4.71C103.35,234.41,117.11,219.64,108.36,210.9z"/>
							<path id="XMLID_510_" class="st1" d="M4.8,237.65c13.67,13.67,29.33,1.14,35.19,7c6.99,6.99-4.73,24.17,2.86,31.75
								c8.74,8.74,23.51-5.01,29.33,0.8c5.07,5.07-1.48,17.38,4.71,23.57c6.98,6.98,22.79-6.97,28.2-1.37
								c4.18,4.32,1.33,13.08,5.83,17.59c3.84,3.84,11.54,5.65,27.61-10.42l-113.5-113.5C16.22,201.44-6.06,226.79,4.8,237.65z"/>
						</g>
						<g id="XMLID_485_">
							<g id="XMLID_506_">
								<path id="XMLID_508_" class="st4" d="M26.74,218.41c0,0,9.46,188.11,98.78,98.78C214.85,227.87,26.74,218.41,26.74,218.41z"
									/>
								<path id="XMLID_507_" class="st1" d="M125.53,317.19l-98.78-98.78C26.74,218.41,36.2,406.52,125.53,317.19z"/>
							</g>
							<g id="XMLID_487_">
								<g id="XMLID_503_">
									<path class="st2" d="M39.95,231.62c6.54,5.99,12.99,12.07,19.34,18.24c6.38,6.15,12.67,12.39,18.95,18.64
										c6.25,6.28,12.49,12.57,18.64,18.95c6.17,6.36,12.25,12.81,18.24,19.34c-6.54-5.99-12.99-12.07-19.34-18.24
										c-6.38-6.15-12.67-12.39-18.95-18.64c-6.25-6.28-12.48-12.57-18.64-18.95C52.02,244.6,45.94,238.15,39.95,231.62z"/>
								</g>
								<g id="XMLID_500_">
									<path class="st2" d="M43.62,250.02c2.76-0.15,5.49-0.1,8.23,0.01c2.73,0.1,5.45,0.32,8.17,0.56l-1.09,1.09
										c-0.24-2.72-0.46-5.44-0.57-8.17c-0.12-2.73-0.16-5.47-0.01-8.23c0.68,2.68,1.15,5.37,1.56,8.08c0.42,2.7,0.72,5.41,1,8.13
										l0.12,1.22l-1.22-0.13c-2.72-0.28-5.43-0.58-8.13-1C48.99,251.17,46.3,250.69,43.62,250.02z"/>
								</g>
								<g id="XMLID_496_">
									<path class="st2" d="M57.41,263.81c2.76-0.15,5.49-0.1,8.23,0.01c2.73,0.1,5.45,0.32,8.17,0.56l-1.09,1.09
										c-0.24-2.72-0.46-5.44-0.57-8.17c-0.12-2.73-0.16-5.47-0.01-8.23c0.68,2.68,1.15,5.37,1.56,8.08c0.42,2.7,0.72,5.42,1,8.13
										l0.12,1.22l-1.22-0.13c-2.72-0.28-5.43-0.58-8.13-1C62.78,264.96,60.08,264.48,57.41,263.81z"/>
								</g>
								<g id="XMLID_493_">
									<path class="st2" d="M71.19,277.6c2.76-0.15,5.49-0.1,8.23,0.01c2.73,0.1,5.45,0.32,8.17,0.56l-1.09,1.09
										c-0.24-2.72-0.46-5.44-0.57-8.17c-0.12-2.73-0.16-5.47-0.01-8.23c0.68,2.68,1.15,5.37,1.56,8.08c0.42,2.7,0.72,5.42,1,8.13
										l0.12,1.22l-1.22-0.13c-2.72-0.28-5.43-0.58-8.13-1C76.57,278.75,73.87,278.27,71.19,277.6z"/>
								</g>
								<g id="XMLID_490_">
									<path class="st2" d="M84.98,291.38c2.76-0.15,5.49-0.1,8.23,0.01c2.73,0.1,5.45,0.32,8.17,0.56l-1.09,1.09
										c-0.24-2.72-0.46-5.44-0.57-8.17c-0.12-2.73-0.16-5.47-0.01-8.23c0.68,2.68,1.15,5.37,1.56,8.08c0.42,2.7,0.72,5.41,1,8.13
										l0.12,1.22l-1.22-0.13c-2.72-0.28-5.43-0.58-8.13-1C90.35,292.53,87.66,292.06,84.98,291.38z"/>
								</g>
							</g>
						</g>
						<g id="XMLID_427_">
							<g id="XMLID_482_">
								<path id="XMLID_484_" class="st4" d="M16.45,338.95c0,0,124.02,112.14,124.02,0S16.45,338.95,16.45,338.95z"/>
								<path id="XMLID_483_" class="st1" d="M140.47,338.95H16.45C16.45,338.95,140.47,451.1,140.47,338.95z"/>
							</g>
							<g id="XMLID_428_">
								<g id="XMLID_479_">
									<path class="st2" d="M33.03,338.95c7.86-0.39,15.73-0.65,23.59-0.78c7.86-0.16,15.73-0.2,23.59-0.22
										c7.86,0.02,15.73,0.06,23.59,0.22c7.86,0.13,15.73,0.39,23.59,0.78c-7.86,0.39-15.73,0.65-23.59,0.78
										c-7.86,0.16-15.73,0.2-23.59,0.22c-7.86-0.02-15.73-0.06-23.59-0.22C48.76,339.6,40.9,339.34,33.03,338.95z"/>
								</g>
								<g id="XMLID_476_">
									<path class="st2" d="M46.89,348.2c1.61-1.86,3.34-3.57,5.11-5.22c1.77-1.66,3.61-3.24,5.47-4.8v1.54
										c-1.86-1.56-3.7-3.13-5.47-4.79c-1.78-1.65-3.51-3.36-5.11-5.23c2.13,1.22,4.14,2.59,6.11,4.02
										c1.97,1.42,3.87,2.93,5.75,4.46l0.95,0.77l-0.95,0.77c-1.88,1.53-3.78,3.04-5.75,4.45
										C51.03,345.61,49.02,346.98,46.89,348.2z"/>
								</g>
								<g id="XMLID_473_">
									<path class="st2" d="M64.2,348.2c1.61-1.86,3.34-3.57,5.11-5.22c1.77-1.66,3.61-3.24,5.47-4.8l0,1.54
										c-1.86-1.56-3.7-3.13-5.47-4.79c-1.78-1.65-3.51-3.36-5.11-5.23c2.13,1.22,4.14,2.59,6.11,4.02
										c1.97,1.42,3.87,2.93,5.75,4.46l0.95,0.77l-0.95,0.77c-1.88,1.53-3.78,3.04-5.75,4.45
										C68.34,345.61,66.33,346.98,64.2,348.2z"/>
								</g>
								<g id="XMLID_470_">
									<path class="st2" d="M81.51,348.2c1.61-1.86,3.34-3.57,5.11-5.22c1.77-1.66,3.61-3.24,5.47-4.8l0,1.54
										c-1.86-1.56-3.7-3.13-5.47-4.79c-1.78-1.65-3.51-3.36-5.11-5.23c2.13,1.22,4.14,2.59,6.11,4.02
										c1.97,1.42,3.87,2.93,5.75,4.46l0.95,0.77l-0.95,0.77c-1.88,1.53-3.78,3.04-5.75,4.45
										C85.65,345.61,83.64,346.98,81.51,348.2z"/>
								</g>
								<g id="XMLID_430_">
									<path class="st2" d="M98.82,348.2c1.61-1.86,3.34-3.57,5.11-5.22c1.77-1.66,3.61-3.24,5.47-4.8l0,1.54
										c-1.86-1.56-3.7-3.13-5.47-4.79c-1.78-1.65-3.51-3.36-5.11-5.23c2.13,1.22,4.14,2.59,6.11,4.02
										c1.97,1.42,3.87,2.93,5.75,4.46l0.95,0.77l-0.95,0.77c-1.88,1.53-3.78,3.04-5.75,4.45
										C102.96,345.61,100.95,346.98,98.82,348.2z"/>
								</g>
							</g>
						</g>
					</g>
				</g>
			</g>
		</g>
		<g id="XMLID_486_">
			<g id="XMLID_488_">
				<g id="XMLID_611_">
					<g id="XMLID_619_">
						<path id="XMLID_621_" class="st18" d="M89.34,328.64V149.67c0-0.91,0.74-1.66,1.66-1.66h205.49c0.91,0,1.66,0.74,1.66,1.66
							v178.96c0,0.91-0.74,1.66-1.66,1.66H91C90.09,330.29,89.34,329.55,89.34,328.64z"/>
						<path id="XMLID_620_" class="st0" d="M287.64,321.44H99.85c-0.91,0-1.66-0.74-1.66-1.66V158.52c0-0.91,0.74-1.66,1.66-1.66
							h187.79c0.91,0,1.66,0.74,1.66,1.66v161.26C289.29,320.7,288.55,321.44,287.64,321.44z"/>
					</g>
					<g id="XMLID_612_">
						<rect id="XMLID_618_" x="89.34" y="170.92" class="st18" width="208.8" height="8.85"/>
						<rect id="XMLID_617_" x="89.34" y="196.44" class="st18" width="208.8" height="8.85"/>
						<rect id="XMLID_616_" x="89.34" y="221.97" class="st18" width="208.8" height="8.85"/>
						<rect id="XMLID_615_" x="89.34" y="247.49" class="st18" width="208.8" height="8.85"/>
						<rect id="XMLID_614_" x="89.34" y="273.02" class="st18" width="208.8" height="8.85"/>
						<rect id="XMLID_613_" x="89.34" y="298.54" class="st18" width="208.8" height="8.85"/>
					</g>
				</g>
				<polygon id="XMLID_610_" class="st2" points="308.53,352.13 308.53,330.29 89.34,330.29 89.34,352.13 89.34,362.56 
					79.49,362.56 79.49,372.51 96.91,372.51 96.91,362.56 94.95,362.56 94.95,352.13 				"/>
				<g id="XMLID_594_">
					<path id="XMLID_609_" class="st5" d="M419.21,166.47H310.54c-1.11,0-2.01,0.9-2.01,2.01v183.66h118.45
						c2.05,0,3.72-1.66,3.72-3.72V177.96C430.7,171.62,425.56,166.47,419.21,166.47z"/>
					<g id="XMLID_603_">
						<path id="XMLID_608_" class="st1" d="M430.7,203.89h-17.33c-10.69,0-19.39,8.7-19.39,19.39v52.7
							c0,10.69,8.7,19.39,19.39,19.39h17.33V203.89z"/>
						<path id="XMLID_607_" class="st4" d="M430.7,210.28h-17.33c-7.18,0-13.01,5.82-13.01,13.01v52.7
							c0,7.18,5.82,13.01,13.01,13.01h17.33V210.28z"/>
						<g id="XMLID_604_" class="st19">
							<polygon id="XMLID_606_" class="st5" points="400.37,256.18 430.7,225.85 430.7,218.06 400.37,248.39 							"/>
							<path id="XMLID_605_" class="st5" d="M430.7,238.3l-30.33,30.33v7.35c0,3.96,1.81,7.47,4.61,9.86l25.72-25.72V238.3z"/>
						</g>
					</g>
					<g id="XMLID_595_">
						<path id="XMLID_602_" class="st1" d="M377.96,203.89h-41.33c-6.24,0-11.3,5.06-11.3,11.3v88.33c0,2.13,1.73,3.86,3.86,3.86
							h26.24c10.31,0,19.87,3.15,27.82,8.52c2.57,1.73,6.01-0.08,6.01-3.18V215.2C389.26,208.95,384.2,203.89,377.96,203.89z"/>
						<g id="XMLID_597_">
							<path id="XMLID_601_" class="st4" d="M380.54,253.87h-46.5c-1.18,0-2.13-0.95-2.13-2.13v-39.33c0-1.18,0.95-2.13,2.13-2.13
								h46.5c1.18,0,2.13,0.95,2.13,2.13v39.33C382.67,252.91,381.72,253.87,380.54,253.87z"/>
							<g id="XMLID_598_">
								<polygon id="XMLID_600_" class="st20" points="331.91,243.81 365.44,210.28 358.1,210.28 331.91,236.46 								"/>
								<path id="XMLID_599_" class="st20" d="M382.67,216.51c0-3.44-2.79-6.23-6.23-6.23h-1.66l-41.37,41.37
									c1.14,1.35,2.83,2.22,4.73,2.22h7.9l36.63-36.63V216.51z"/>
							</g>
						</g>
						<path id="XMLID_596_" class="st1" d="M335.82,279.23h-3.32c-0.32,0-0.58-0.26-0.58-0.58v-16.72c0-0.32,0.26-0.58,0.58-0.58
							h3.32c0.32,0,0.58,0.26,0.58,0.58v16.72C336.4,278.97,336.14,279.23,335.82,279.23z"/>
					</g>
				</g>
				<g id="XMLID_489_">
					<g id="XMLID_578_">
						<g id="XMLID_591_">
							<path id="XMLID_593_" class="st21" d="M182.49,357.35c0-21.91-17.76-39.68-39.68-39.68c-21.91,0-39.68,17.76-39.68,39.68
								H182.49z"/>
							<path id="XMLID_592_" class="st22" d="M182.49,357.35c0-21.91-17.76-39.68-39.68-39.68c-21.91,0-39.68,17.76-39.68,39.68"/>
						</g>
						<g id="XMLID_579_">
							
								<ellipse id="XMLID_590_" transform="matrix(0.2179 -0.976 0.976 0.2179 -237.0689 418.8517)" class="st2" cx="142.81" cy="357.35" rx="30.57" ry="30.57"/>
							<path id="XMLID_589_" class="st4" d="M123.79,357.35c0-10.51,8.52-19.03,19.03-19.03c10.51,0,19.03,8.52,19.03,19.03
								c0,10.51-8.52,19.03-19.03,19.03C132.3,376.37,123.79,367.86,123.79,357.35z"/>
							<g id="XMLID_580_">
								<path id="XMLID_588_" class="st21" d="M140.32,342.77c0-1.38,1.11-2.49,2.49-2.49c1.38,0,2.49,1.11,2.49,2.49
									c0,1.38-1.11,2.49-2.49,2.49C141.44,345.26,140.32,344.14,140.32,342.77z"/>
								<path id="XMLID_587_" class="st21" d="M140.32,372.51c0-1.38,1.11-2.49,2.49-2.49c1.38,0,2.49,1.12,2.49,2.49
									c0,1.38-1.11,2.49-2.49,2.49C141.44,375,140.32,373.88,140.32,372.51z"/>
								<path id="XMLID_586_" class="st21" d="M130.54,348.89c-0.97-0.97-0.97-2.55,0-3.52c0.97-0.97,2.55-0.97,3.52,0
									c0.97,0.97,0.97,2.55,0,3.52C133.09,349.86,131.51,349.86,130.54,348.89z"/>
								<path id="XMLID_585_" class="st21" d="M151.56,369.91c-0.97-0.97-0.97-2.55,0-3.52s2.55-0.97,3.52,0
									c0.97,0.97,0.97,2.55,0,3.52C154.11,370.88,152.54,370.88,151.56,369.91z"/>
								<path id="XMLID_584_" class="st21" d="M127.94,360.13c-1.38,0-2.49-1.11-2.49-2.49c0-1.38,1.11-2.49,2.49-2.49
									c1.38,0,2.49,1.11,2.49,2.49C130.43,359.01,129.32,360.13,127.94,360.13z"/>
								<path id="XMLID_583_" class="st21" d="M157.68,360.13c-1.38,0-2.49-1.11-2.49-2.49c0-1.38,1.11-2.49,2.49-2.49
									c1.38,0,2.49,1.11,2.49,2.49C160.17,359.01,159.06,360.13,157.68,360.13z"/>
								<path id="XMLID_582_" class="st21" d="M134.06,369.91c-0.97,0.97-2.55,0.97-3.52,0c-0.97-0.97-0.97-2.55,0-3.52
									c0.97-0.97,2.55-0.97,3.52,0C135.03,367.36,135.03,368.94,134.06,369.91z"/>
								<path id="XMLID_581_" class="st21" d="M155.09,348.89c-0.97,0.97-2.55,0.97-3.52,0c-0.97-0.97-0.97-2.55,0-3.52
									s2.55-0.97,3.52,0C156.06,346.34,156.06,347.91,155.09,348.89z"/>
							</g>
						</g>
					</g>
					<g id="XMLID_562_">
						<g id="XMLID_575_">
							<path id="XMLID_577_" class="st21" d="M395.11,357.35c0-21.91-17.76-39.68-39.68-39.68s-39.68,17.76-39.68,39.68H395.11z"/>
							<path id="XMLID_576_" class="st22" d="M395.11,357.35c0-21.91-17.76-39.68-39.68-39.68s-39.68,17.76-39.68,39.68"/>
						</g>
						<g id="XMLID_563_">
							
								<ellipse id="XMLID_574_" transform="matrix(0.2288 -0.9735 0.9735 0.2288 -73.7578 621.5934)" class="st2" cx="355.43" cy="357.35" rx="30.57" ry="30.57"/>
							<circle id="XMLID_573_" class="st4" cx="355.43" cy="357.35" r="19.03"/>
							<g id="XMLID_564_">
								<path id="XMLID_572_" class="st21" d="M352.94,342.77c0-1.38,1.11-2.49,2.49-2.49c1.38,0,2.49,1.11,2.49,2.49
									c0,1.38-1.11,2.49-2.49,2.49C354.05,345.26,352.94,344.14,352.94,342.77z"/>
								<path id="XMLID_571_" class="st21" d="M352.94,372.51c0-1.38,1.11-2.49,2.49-2.49c1.38,0,2.49,1.12,2.49,2.49
									c0,1.38-1.11,2.49-2.49,2.49C354.05,375,352.94,373.88,352.94,372.51z"/>
								<path id="XMLID_570_" class="st21" d="M343.15,348.89c-0.97-0.97-0.97-2.55,0-3.52c0.97-0.97,2.55-0.97,3.52,0
									c0.97,0.97,0.97,2.55,0,3.52C345.7,349.86,344.13,349.86,343.15,348.89z"/>
								<path id="XMLID_569_" class="st21" d="M364.18,369.91c-0.97-0.97-0.97-2.55,0-3.52c0.97-0.97,2.55-0.97,3.52,0
									c0.97,0.97,0.97,2.55,0,3.52C366.73,370.88,365.15,370.88,364.18,369.91z"/>
								<path id="XMLID_568_" class="st21" d="M340.56,360.13c-1.38,0-2.49-1.11-2.49-2.49c0-1.38,1.11-2.49,2.49-2.49
									c1.38,0,2.49,1.11,2.49,2.49C343.05,359.01,341.93,360.13,340.56,360.13z"/>
								<path id="XMLID_567_" class="st21" d="M370.3,360.13c-1.38,0-2.49-1.11-2.49-2.49c0-1.38,1.12-2.49,2.49-2.49
									s2.49,1.11,2.49,2.49C372.79,359.01,371.67,360.13,370.3,360.13z"/>
								<path id="XMLID_566_" class="st21" d="M346.68,369.91c-0.97,0.97-2.55,0.97-3.52,0c-0.97-0.97-0.97-2.55,0-3.52
									c0.97-0.97,2.55-0.97,3.52,0C347.65,367.36,347.65,368.94,346.68,369.91z"/>
								<path id="XMLID_565_" class="st21" d="M367.7,348.89c-0.97,0.97-2.55,0.97-3.52,0c-0.97-0.97-0.97-2.55,0-3.52
									c0.97-0.97,2.55-0.97,3.52,0C368.67,346.34,368.67,347.91,367.7,348.89z"/>
							</g>
						</g>
					</g>
					<path id="XMLID_499_" class="st2" d="M434.96,362.77h-15.54c-0.58,0-1.05-0.47-1.05-1.05v-23.16c0-0.58,0.47-1.05,1.05-1.05
						h15.54c0.34,0,0.62,0.28,0.62,0.62v24.02C435.58,362.49,435.3,362.77,434.96,362.77z"/>
				</g>
			</g>
			<path id="XMLID_279_" class="st2" d="M468.41,401H31.59c-5.03,0-9.1-4.07-9.1-9.1l0,0c0-5.03,4.07-9.1,9.1-9.1h436.83
				c5.03,0,9.1,4.07,9.1,9.1l0,0C477.51,396.93,473.44,401,468.41,401z"/>
		</g>
	</g>
</g>
<g id="DESIGNEDBYFREEPIK">
</g>
</svg>
