<?xml version="1.0" encoding="utf-8"?>
<!-- Generator: Adobe Illustrator 25.2.3, SVG Export Plug-In . SVG Version: 6.00 Build 0)  -->
<svg version="1.1" id="Layer_1" xmlns="http://www.w3.org/2000/svg" xmlns:xlink="http://www.w3.org/1999/xlink" x="0px" y="0px"
	 viewBox="0 0 880.82 959.15" style="enable-background:new 0 0 880.82 959.15;" xml:space="preserve">
<style type="text/css">
	.st0{fill:#484848;}
	.st1{fill:#EBECF2;}
	.st2{fill:#FFFFFF;}
	.st3{fill:#FBFBFB;}
	.st4{fill:#F8F7F7;}
	.st5{fill:#F5F4F4;}
	.st6{fill:#F3F2F1;}
	.st7{fill:#F0EFEF;}
	.st8{fill:#EEEDED;}
	.st9{fill:#ECEBEA;}
	.st10{fill:#E9E8E8;}
	.st11{fill:#E7E6E6;}
	.st12{fill:#E5E4E4;}
	.st13{fill:#E3E2E2;}
	.st14{fill:#E0DFE0;}
	.st15{fill:#DEDDDE;}
	.st16{fill:#DCDBDC;}
	.st17{fill:#DAD9D9;}
	.st18{fill:#D8D7D7;}
	.st19{fill:#D6D5D5;}
	.st20{fill:#D4D3D3;}
	.st21{fill:#D1D1D1;}
	.st22{fill:#CFCFCF;}
	.st23{fill:#CDCDCE;}
	.st24{fill:#CBCBCC;}
	.st25{fill:#C9C9CA;}
	.st26{fill:#C7C7C8;}
	.st27{fill:#C5C5C6;}
	.st28{fill:#C3C3C4;}
	.st29{fill:#C1C1C2;}
	.st30{fill:#BFBFC0;}
	.st31{fill:#BDBDBF;}
	.st32{fill:#BBBBBD;}
	.st33{fill:#BAB9BB;}
	.st34{fill:#B8B7B9;}
	.st35{fill:#B6B6B8;}
	.st36{fill:#B4B4B6;}
	.st37{fill:#B2B2B4;}
	.st38{fill:#B0B0B2;}
	.st39{fill:#AEAEB1;}
	.st40{fill:#ACACAF;}
	.st41{fill:#AAABAD;}
	.st42{fill:#A8A9AC;}
	.st43{fill:#A6A7AA;}
	.st44{fill:#F6F8FC;stroke:#F6F8FC;stroke-width:0.25;stroke-miterlimit:10;}
</style>
<g>
	<path class="st0" d="M532.34,928.15H99.51c-40.96,0-74.17-33.21-74.17-74.17V199.98c0-40.96,33.21-74.17,74.17-74.17h432.83
		c40.96,0,74.17,33.21,74.17,74.17v653.99C606.52,894.94,573.31,928.15,532.34,928.15z"/>
	<rect x="134.08" y="446.69" class="st1" width="363.7" height="44.84"/>
	<rect x="134.08" y="315.5" class="st1" width="181.85" height="44.84"/>
	<rect x="134.08" y="577.89" class="st1" width="363.7" height="44.84"/>
	<rect x="134.08" y="709.08" class="st1" width="363.7" height="44.84"/>
	<g>
		<g>
			<path class="st2" d="M880.82,177.13L674.25,57.87v91.82C552.65,160.36,456.93,262.6,456.93,386.91h57.02
				c0-92.85,70.21-169.51,160.3-179.95v89.44L880.82,177.13z"/>
			<path class="st3" d="M880.17,176.48L673.6,57.22v91.82c-121.59,10.67-217.32,112.91-217.32,237.22h57.02
				c0-92.85,70.21-169.51,160.3-179.95v89.44L880.17,176.48z"/>
			<path class="st4" d="M879.52,175.84L672.95,56.57v91.82C551.36,159.06,455.64,261.3,455.64,385.61h57.02
				c0-92.85,70.21-169.51,160.3-179.95v89.44L879.52,175.84z"/>
			<path class="st5" d="M878.87,175.19L672.3,55.93v91.82c-121.59,10.67-217.32,112.91-217.32,237.22h57.02
				c0-92.85,70.21-169.51,160.3-179.95v89.44L878.87,175.19z"/>
			<path class="st6" d="M878.22,174.54L671.65,55.28v91.82C550.06,157.77,454.34,260,454.34,384.32h57.02
				c0-92.85,70.21-169.51,160.3-179.95v89.44L878.22,174.54z"/>
			<path class="st7" d="M877.58,173.89L671.01,54.63v91.82c-121.59,10.67-217.32,112.91-217.32,237.22h57.02
				c0-92.85,70.21-169.51,160.3-179.95v89.44L877.58,173.89z"/>
			<path class="st8" d="M876.93,173.24L670.36,53.98v91.82c-121.59,10.67-217.32,112.91-217.32,237.22h57.02
				c0-92.85,70.21-169.51,160.3-179.95v89.44L876.93,173.24z"/>
			<path class="st9" d="M876.28,172.59L669.71,53.33v91.82C548.12,155.82,452.4,258.06,452.4,382.37h57.02
				c0-92.85,70.21-169.51,160.3-179.95v89.44L876.28,172.59z"/>
			<path class="st10" d="M875.63,171.95L669.06,52.69v91.82c-121.59,10.67-217.32,112.91-217.32,237.22h57.02
				c0-92.85,70.21-169.51,160.3-179.95v89.44L875.63,171.95z"/>
			<path class="st11" d="M874.98,171.3L668.41,52.04v91.82C546.82,154.53,451.1,256.76,451.1,381.08h57.02
				c0-92.85,70.21-169.51,160.3-179.95v89.44L874.98,171.3z"/>
			<path class="st12" d="M874.34,170.65L667.77,51.39v91.82c-121.59,10.67-217.32,112.91-217.32,237.22h57.02
				c0-92.85,70.21-169.51,160.3-179.95v89.44L874.34,170.65z"/>
			<path class="st13" d="M873.69,170L667.12,50.74v91.82C545.53,153.23,449.8,255.47,449.8,379.78h57.02
				c0-92.85,70.21-169.51,160.3-179.95v89.44L873.69,170z"/>
			<path class="st14" d="M873.04,169.35L666.47,50.09v91.82c-121.59,10.67-217.32,112.91-217.32,237.22h57.02
				c0-92.85,70.21-169.51,160.3-179.95v89.44L873.04,169.35z"/>
			<path class="st15" d="M872.39,168.71L665.82,49.45v91.82c-121.59,10.67-217.32,112.91-217.32,237.22h57.02
				c0-92.85,70.21-169.51,160.3-179.95v89.44L872.39,168.71z"/>
			<path class="st16" d="M871.74,168.06L665.17,48.8v91.82c-121.59,10.67-217.32,112.91-217.32,237.22h57.02
				c0-92.85,70.21-169.51,160.3-179.95v89.44L871.74,168.06z"/>
			<path class="st17" d="M871.1,167.41L664.53,48.15v91.82c-121.59,10.67-217.32,112.91-217.32,237.22h57.02
				c0-92.85,70.21-169.51,160.3-179.95v89.44L871.1,167.41z"/>
			<path class="st18" d="M870.45,166.76L663.88,47.5v91.82c-121.59,10.67-217.32,112.91-217.32,237.22h57.02
				c0-92.85,70.21-169.51,160.3-179.95v89.44L870.45,166.76z"/>
			<path class="st19" d="M869.8,166.11L663.23,46.85v91.82c-121.59,10.67-217.32,112.91-217.32,237.22h57.02
				c0-92.85,70.21-169.51,160.3-179.95v89.44L869.8,166.11z"/>
			<path class="st20" d="M869.15,165.47L662.58,46.2v91.82c-121.59,10.67-217.32,112.91-217.32,237.22h57.02
				c0-92.85,70.21-169.51,160.3-179.95v89.44L869.15,165.47z"/>
			<path class="st21" d="M868.5,164.82L661.93,45.56v91.82C540.34,148.04,444.62,250.28,444.62,374.6h57.02
				c0-92.85,70.21-169.51,160.3-179.95v89.44L868.5,164.82z"/>
			<path class="st22" d="M867.85,164.17L661.29,44.91v91.82C539.69,147.4,443.97,249.63,443.97,373.95h57.02
				c0-92.85,70.21-169.51,160.3-179.95v89.44L867.85,164.17z"/>
			<path class="st23" d="M867.21,163.52L660.64,44.26v91.82C539.04,146.75,443.32,248.99,443.32,373.3h57.02
				c0-92.85,70.21-169.51,160.3-179.95v89.44L867.21,163.52z"/>
			<path class="st24" d="M866.56,162.87L659.99,43.61v91.82C538.4,146.1,442.67,248.34,442.67,372.65h57.02
				c0-92.85,70.21-169.51,160.3-179.95v89.44L866.56,162.87z"/>
			<path class="st25" d="M865.91,162.23L659.34,42.96v91.82C537.75,145.45,442.03,247.69,442.03,372h57.02
				c0-92.85,70.21-169.51,160.3-179.95v89.44L865.91,162.23z"/>
			<path class="st26" d="M865.26,161.58L658.69,42.32v91.82C537.1,144.8,441.38,247.04,441.38,371.36h57.02
				c0-92.85,70.21-169.51,160.3-179.95v89.44L865.26,161.58z"/>
			<path class="st27" d="M864.61,160.93L658.05,41.67v91.82c-121.59,10.67-217.32,112.91-217.32,237.22h57.02
				c0-92.85,70.21-169.51,160.3-179.95v89.44L864.61,160.93z"/>
			<path class="st28" d="M863.97,160.28L657.4,41.02v91.82C535.8,143.51,440.08,245.74,440.08,370.06h57.02
				c0-92.85,70.21-169.51,160.3-179.95v89.44L863.97,160.28z"/>
			<path class="st29" d="M863.32,159.63L656.75,40.37v91.82C535.16,142.86,439.43,245.1,439.43,369.41h57.02
				c0-92.85,70.21-169.51,160.3-179.95v89.44L863.32,159.63z"/>
			<path class="st30" d="M862.67,158.99L656.1,39.72v91.82c-121.59,10.67-217.32,112.91-217.32,237.22h57.02
				c0-92.85,70.21-169.51,160.3-179.95v89.44L862.67,158.99z"/>
			<path class="st31" d="M862.02,158.34L655.45,39.08v91.82C533.86,141.56,438.14,243.8,438.14,368.11h57.02
				c0-92.85,70.21-169.51,160.3-179.95v89.44L862.02,158.34z"/>
			<path class="st32" d="M861.37,157.69L654.8,38.43v91.82c-121.59,10.67-217.32,112.91-217.32,237.22h57.02
				c0-92.85,70.21-169.51,160.3-179.95v89.44L861.37,157.69z"/>
			<path class="st33" d="M860.73,157.04L654.16,37.78v91.82C532.56,140.27,436.84,242.5,436.84,366.82h57.02
				c0-92.85,70.21-169.51,160.3-179.95v89.44L860.73,157.04z"/>
			<path class="st34" d="M860.08,156.39L653.51,37.13v91.82c-121.59,10.67-217.32,112.91-217.32,237.22h57.02
				c0-92.85,70.21-169.51,160.3-179.95v89.44L860.08,156.39z"/>
			<path class="st35" d="M859.43,155.75L652.86,36.48v91.82c-121.59,10.67-217.32,112.91-217.32,237.22h57.02
				c0-92.85,70.21-169.51,160.3-179.95v89.44L859.43,155.75z"/>
			<path class="st36" d="M858.78,155.1L652.21,35.84v91.82C530.62,138.32,434.9,240.56,434.9,364.87h57.02
				c0-92.85,70.21-169.51,160.3-179.95v89.44L858.78,155.1z"/>
			<path class="st37" d="M858.13,154.45L651.56,35.19v91.82c-121.59,10.67-217.32,112.91-217.32,237.22h57.02
				c0-92.85,70.21-169.51,160.3-179.95v89.44L858.13,154.45z"/>
			<path class="st38" d="M857.49,153.8L650.92,34.54v91.82C529.32,137.03,433.6,239.26,433.6,363.58h57.02
				c0-92.85,70.21-169.51,160.3-179.95v89.44L857.49,153.8z"/>
			<path class="st39" d="M856.84,153.15L650.27,33.89v91.82c-121.59,10.67-217.32,112.91-217.32,237.22h57.02
				c0-92.85,70.21-169.51,160.3-179.95v89.44L856.84,153.15z"/>
			<path class="st40" d="M856.19,152.51L649.62,33.24v91.82C528.03,135.73,432.3,237.97,432.3,362.28h57.02
				c0-92.85,70.21-169.51,160.3-179.95v89.44L856.19,152.51z"/>
			<path class="st41" d="M855.54,151.86L648.97,32.59v91.82c-121.59,10.67-217.32,112.91-217.32,237.22h57.02
				c0-92.85,70.21-169.51,160.3-179.95v89.44L855.54,151.86z"/>
			<path class="st42" d="M854.89,151.21L648.32,31.95v91.82c-121.59,10.67-217.32,112.91-217.32,237.22h57.02
				c0-92.85,70.21-169.51,160.3-179.95v89.44L854.89,151.21z"/>
			<path class="st43" d="M854.24,150.56L647.68,31.3v91.82c-121.59,10.67-217.32,112.91-217.32,237.22h57.02
				c0-92.85,70.21-169.51,160.3-179.95v89.45L854.24,150.56z"/>
		</g>
		<path class="st44" d="M854.24,150.56L647.68,31.3v91.82c-121.59,10.67-217.32,112.91-217.32,237.22h57.02
			c0-92.85,70.21-169.51,160.3-179.95v89.45L854.24,150.56z"/>
	</g>
</g>
</svg>
