<?xml version="1.0" encoding="utf-8"?>
<!-- Generator: Adobe Illustrator 25.2.3, SVG Export Plug-In . SVG Version: 6.00 Build 0)  -->
<svg version="1.1" xmlns="http://www.w3.org/2000/svg" xmlns:xlink="http://www.w3.org/1999/xlink" x="0px" y="0px"
	 viewBox="0 0 2475 1650" style="enable-background:new 0 0 2475 1650;" xml:space="preserve">
<style type="text/css">
	.st0{fill:#E7F7F2;}
	.st1{fill:#CFF6EB;}
	.st2{fill:#FFFFFF;}
	.st3{fill:#40C9A2;}
	.st4{fill:#636979;}
	.st5{opacity:0.33;fill:#FFFFFF;}
	.st6{opacity:0.25;fill:#FFFFFF;}
	.st7{opacity:0.2;fill:#FFFFFF;}
	.st8{opacity:0.62;fill:#CFF6EB;}
	.st9{opacity:0.62;}
	.st10{filter:url(#Adobe_OpacityMaskFilter);}
	.st11{filter:url(#Adobe_OpacityMaskFilter_1_);}
	.st12{mask:url(#SVGID_1_);fill:url(#SVGID_2_);}
	.st13{fill:#BDD0FB;}
	.st14{fill:url(#SVGID_3_);}
	.st15{fill:url(#SVGID_4_);}
	.st16{fill:url(#SVGID_5_);}
	.st17{fill:url(#SVGID_6_);}
	.st18{fill:url(#SVGID_7_);}
	.st19{opacity:0.39;fill:url(#SVGID_8_);}
	.st20{opacity:0.39;fill:url(#SVGID_9_);}
	.st21{opacity:0.39;fill:url(#SVGID_10_);}
	.st22{opacity:0.39;fill:url(#SVGID_11_);}
	.st23{fill:url(#SVGID_12_);}
	.st24{fill:#7D97F4;}
	.st25{fill:url(#SVGID_13_);}
	.st26{fill:url(#SVGID_14_);}
	.st27{fill:url(#SVGID_15_);}
	.st28{fill:url(#SVGID_16_);}
	.st29{fill:url(#SVGID_17_);}
	.st30{fill:url(#SVGID_18_);}
	.st31{fill:url(#SVGID_19_);}
	.st32{fill:url(#SVGID_20_);}
	.st33{fill:url(#SVGID_21_);}
	.st34{fill:url(#SVGID_22_);}
	.st35{fill:url(#SVGID_23_);}
	.st36{fill:url(#SVGID_24_);}
	.st37{fill:url(#SVGID_25_);}
	.st38{fill:url(#SVGID_26_);}
	.st39{fill:url(#SVGID_27_);}
	.st40{opacity:0.8;fill:#FFFFFF;}
	.st41{opacity:0.8;}
	.st42{fill:url(#SVGID_28_);}
	.st43{opacity:0.71;fill:#FFFFFF;}
	.st44{fill:url(#SVGID_29_);}
	.st45{fill:url(#SVGID_30_);}
	.st46{fill:url(#SVGID_31_);}
	.st47{fill:url(#SVGID_32_);}
	.st48{fill:url(#SVGID_33_);}
	.st49{fill:url(#SVGID_34_);}
	.st50{fill:url(#SVGID_35_);}
	.st51{fill:url(#SVGID_36_);}
	.st52{fill:#16B584;}
</style>
<g id="Background">
</g>
<g id="Illustration">
	<g>
		<path class="st0" d="M1225.05,1472.5c0,0-716.51,8.53-916.09-183.24C109.38,1097.5,184.5,906.32,337.32,852.17
			c152.82-54.16,178.88-110.48,96.65-186.45c-82.23-75.97-186.66-231.92-13.26-388.63s371.26,68.38,526.23,38.49
			c154.98-29.89,93.6-130.56,297.41-61.04c203.81,69.52,158.87-132.9,322.72-151.25c163.85-18.35,147.05,210.54,315.59,124.14
			c168.53-86.4,306.38-74.48,378.84,62.74s40.98,322.02-117.97,432.16c-158.96,110.14-141.89,102.63-82.49,210.85
			c59.41,108.23,112.68,464.13-157.77,514.96C1632.82,1498.98,1225.05,1472.5,1225.05,1472.5z"/>
		<g>
			<path class="st1" d="M165.87,694.73c-34.11-45.96-24.55-110.85,21.37-144.95c45.91-34.09,110.78-24.47,144.89,21.49
				c0,0,0,0.01,0.01,0.01c18.96,25.55,47.97,41.73,79.65,44.45c36.42,3.12,71.38,21.26,94.89,52.94c0,0,0,0.01,0.01,0.01
				c22.95,30.92,58.97,49.4,97.44,50.04c45,0.76,89.18,21.68,118.09,60.64c49.4,66.56,35.55,160.55-30.94,209.92
				c-66.49,49.37-160.44,35.44-209.85-31.13c-2.64-3.56-5.1-7.2-7.38-10.9c-22.34-36.29-58.63-61.76-100.33-70.44
				c-30.59-6.37-59.06-23.55-79.17-50.64c-8.83-11.9-15.37-24.79-19.69-38.15c-8.67-26.82-29.85-47.75-56.74-56.15
				C197.93,725.58,179.46,713.04,165.87,694.73z"/>
			<path class="st2" d="M697.3,916.52c-0.55,0.31-1.24,0.37-1.87,0.1C422.41,798.8,246.53,641.28,244.79,639.7
				c-0.86-0.77-0.92-2.1-0.15-2.96c0.77-0.86,2.1-0.92,2.95-0.15c1.74,1.57,177.14,158.65,449.5,276.19
				c1.06,0.46,1.55,1.69,1.09,2.75C698,915.97,697.68,916.31,697.3,916.52z"/>
			<path class="st2" d="M322.91,699.01c-0.48,0.27-1.07,0.36-1.65,0.18c-1.11-0.34-1.73-1.51-1.39-2.61
				c8.75-28.69-15.36-90.98-15.6-91.61c-0.42-1.08,0.11-2.31,1.19-2.71c1.08-0.42,2.29,0.11,2.71,1.19
				c1.02,2.61,24.87,64.28,15.7,94.35C323.71,698.33,323.36,698.75,322.91,699.01z"/>
			<path class="st2" d="M321.28,700.22c-0.14,0.08-0.28,0.14-0.44,0.19c-1.79,0.53-44.31,13.03-80.56,6.87
				c-1.14-0.19-1.91-1.27-1.71-2.41c0.19-1.14,1.27-1.91,2.41-1.71c35.27,5.99,78.23-6.63,78.66-6.75c1.11-0.33,2.27,0.3,2.6,1.41
				C322.53,698.75,322.1,699.75,321.28,700.22z"/>
			<path class="st2" d="M452.22,786.88c-0.38,0.22-0.84,0.32-1.31,0.26c-1.14-0.15-1.95-1.2-1.8-2.35
				c6.37-48.85-23.28-105.14-23.58-105.71c-0.54-1.02-0.2-2.29,0.86-2.83c1.02-0.54,2.29-0.16,2.83,0.86
				c0.31,0.57,30.58,58.03,24.03,108.22C453.17,786.01,452.77,786.57,452.22,786.88z"/>
			<path class="st2" d="M447.67,791.02c-12.07,6.88-47.17,23.16-99.89,16.41c-1.15-0.15-1.96-1.19-1.81-2.34
				c0.15-1.14,1.19-1.96,2.34-1.81c63.01,8.06,101.17-18.26,101.54-18.54c0.95-0.66,2.25-0.44,2.91,0.5
				c0.67,0.94,0.45,2.25-0.5,2.92C451.98,788.37,450.42,789.45,447.67,791.02z"/>
			<path class="st2" d="M608.08,889.63c-16.82,9.59-51.55,25.63-92.76,23.51c-1.15-0.06-2.04-1.04-1.98-2.2
				c0.06-1.15,1.04-2.04,2.19-1.98c56.52,2.91,100.49-29.21,100.92-29.54c0.92-0.69,2.24-0.49,2.93,0.43
				c0.69,0.93,0.5,2.24-0.43,2.93C618.82,882.88,614.94,885.72,608.08,889.63z"/>
			<path class="st2" d="M619.82,881.38c-0.43,0.25-0.95,0.34-1.47,0.23c-1.13-0.24-1.85-1.36-1.61-2.49
				c0.1-0.45,9.33-46.13-22.67-100.94c-0.58-1-0.25-2.28,0.75-2.86c0.01,0,0.01-0.01,0.02-0.01c0.99-0.57,2.26-0.23,2.84,0.76
				c32.87,56.29,23.56,102.01,23.15,103.93C620.7,880.61,620.32,881.1,619.82,881.38z"/>
		</g>
		<g>
			<path class="st1" d="M526.39,202.67c-57.61-47-141.45-37.66-187.27,20.87c-45.82,58.52-36.27,144.07,21.34,191.07
				c33.05,22.75,54.36,59.62,57.77,100.06c4.68,55.45,32.41,111.25,59.86,133.64c38.73,31.6,76.88,43.61,76.02,94.06
				c-1,59.07,8.08,154.21,56.92,194.06c83.43,68.07,204.86,54.54,271.22-30.22c66.36-84.76,52.53-208.65-30.9-276.72
				c-0.76-0.62-3.37-2.22-7.37-4.47c-51.13-28.67-87.47-78.69-99.5-136.85c-10.09-48.77-34.61-93.88-54.68-110.25
				c-7.73-6.31-27.84-16.9-51.07-25.31c-33.67-12.19-59.65-40.08-69.93-74.97C559.04,244.47,540.43,214.13,526.39,202.67z"/>
			<path class="st2" d="M787.06,910.99c-0.05,0.02-0.1,0.05-0.15,0.06c-1.08,0.43-2.3-0.12-2.72-1.22
				C644.88,546.77,450.5,308.94,448.55,306.58c-0.75-0.91-0.64-2.26,0.25-3.02c0.88-0.76,2.21-0.64,2.96,0.27
				c1.95,2.37,196.76,240.7,336.34,604.46C788.51,909.34,788.04,910.51,787.06,910.99z"/>
			<path class="st2" d="M523.68,409.3c-0.12,0.06-0.24,0.1-0.37,0.14c-38.87,10.49-116.93-23.76-120.23-25.22
				c-1.07-0.47-1.56-1.73-1.1-2.82c0.46-1.08,1.69-1.58,2.76-1.11c0.79,0.35,80.02,35.11,117.48,25.01c1.12-0.3,2.27,0.38,2.57,1.52
				C525.06,407.83,524.58,408.86,523.68,409.3z"/>
			<path class="st2" d="M525.31,407.22c-0.48,0.23-1.04,0.28-1.58,0.09c-1.1-0.38-1.69-1.6-1.32-2.72
				c0.18-0.56,18.32-56.4,12.13-103.09c-0.16-1.17,0.65-2.24,1.8-2.4c1.15-0.15,2.21,0.67,2.36,1.85
				c6.32,47.69-12.12,104.46-12.31,105.03C526.2,406.54,525.8,406.98,525.31,407.22z"/>
			<path class="st2" d="M631.04,583.2c-0.22,0.11-0.46,0.18-0.71,0.2c-64.62,6.09-137-36.34-137.73-36.77
				c-1.01-0.6-1.35-1.91-0.77-2.93c0.58-1.02,1.87-1.36,2.87-0.77c0.71,0.42,71.95,42.17,135.22,36.21
				c1.15-0.11,2.18,0.76,2.29,1.93C632.31,581.99,631.81,582.83,631.04,583.2z"/>
			<path class="st2" d="M632.83,583.12c-0.69,0.33-1.53,0.27-2.18-0.23c-0.92-0.72-1.1-2.06-0.4-3
				c0.36-0.48,36.01-49.37,28.36-132.67c-0.11-1.18,0.74-2.22,1.9-2.32c1.15-0.1,2.18,0.76,2.29,1.94
				c7.82,85.05-28.82,135.15-29.19,135.65C633.38,582.77,633.12,582.98,632.83,583.12z"/>
			<path class="st2" d="M747.28,806.31c-0.7,0.34-1.57,0.27-2.22-0.26c-0.91-0.74-1.06-2.09-0.34-3.01
				c0.44-0.56,43.78-56.85,42.49-131.27c-0.02-1.18,0.9-2.16,2.06-2.17c1.16-0.02,2.12,0.93,2.14,2.11
				c1.32,76-42.95,133.44-43.4,134.01C747.8,805.98,747.55,806.18,747.28,806.31z"/>
			<path class="st2" d="M745.25,807.65c-0.17,0.08-0.35,0.14-0.54,0.18c-0.61,0.11-61.45,10.36-132.18-35.4
				c-0.98-0.64-1.28-1.96-0.66-2.96c0.62-1,1.92-1.29,2.9-0.66c69.37,44.88,128.61,34.9,129.2,34.8c1.14-0.2,2.23,0.57,2.44,1.74
				C746.57,806.32,746.08,807.25,745.25,807.65z"/>
		</g>
		<g>
			<path class="st1" d="M1927.93,142.79c56.4-68.96,157.09-78.04,224.89-20.28c67.8,57.76,77.04,160.5,20.64,229.46
				c-33.37,34.62-49.58,83.01-43.91,131.32c7.77,66.23-11.46,138.39-38.33,171.24c-37.92,46.36-79.84,69.59-66.78,128.63
				c15.3,69.12,27.39,183.01-20.44,241.49c-81.69,99.88-227.51,113.03-325.71,29.37c-98.19-83.66-111.58-232.45-29.89-332.33
				c0.74-0.91,3.42-3.42,7.59-7.01c53.18-45.89,83.89-113.32,84.12-184.49c0.19-59.68,18.19-118.52,37.84-142.54
				c7.57-9.25,28.65-26.5,53.91-41.93c36.63-22.37,60.46-61.33,64.18-104.76C1899.59,199.69,1914.19,159.6,1927.93,142.79z"/>
			<path class="st2" d="M1791.23,1036.87c0.06,0.02,0.12,0.03,0.19,0.04c1.37,0.24,2.67-0.69,2.9-2.09
				c76.77-459.65,248.14-785.4,249.86-788.63c0.66-1.25,0.21-2.8-1.01-3.49c-1.22-0.68-2.75-0.22-3.41,1.02
				c-1.73,3.24-173.48,329.69-250.4,790.22C1789.13,1035.28,1789.96,1036.55,1791.23,1036.87z"/>
			<path class="st2" d="M1980.52,384.78c0.15,0.04,0.31,0.06,0.47,0.07c48.15,3.02,131.62-55.86,135.15-58.37
				c1.14-0.81,1.42-2.41,0.62-3.57c-0.8-1.16-2.37-1.45-3.51-0.64c-0.85,0.6-85.57,60.37-131.98,57.46
				c-1.39-0.09-2.58,0.99-2.66,2.4C1978.55,383.38,1979.37,384.48,1980.52,384.78z"/>
			<path class="st2" d="M1978.11,382.72c0.61,0.16,1.29,0.08,1.88-0.27c1.2-0.71,1.6-2.28,0.9-3.51
				c-0.35-0.61-35-61.85-38.89-118.16c-0.1-1.41-1.3-2.48-2.69-2.39c-1.39,0.1-2.43,1.32-2.33,2.73
				c3.98,57.52,39.21,119.77,39.57,120.39C1976.9,382.14,1977.48,382.56,1978.11,382.72z"/>
			<path class="st2" d="M1896.05,614.66c0.28,0.07,0.58,0.1,0.88,0.06c77.34-8.3,152.18-75.44,152.93-76.12
				c1.04-0.94,1.13-2.56,0.2-3.62c-0.93-1.06-2.52-1.15-3.55-0.22c-0.74,0.67-74.41,66.73-150.13,74.86
				c-1.38,0.15-2.38,1.41-2.23,2.82C1894.27,613.54,1895.05,614.4,1896.05,614.66z"/>
			<path class="st2" d="M1893.93,614.99c0.89,0.23,1.87-0.05,2.51-0.8c0.91-1.06,0.8-2.69-0.24-3.62
				c-0.54-0.48-54.09-49.36-65.02-149c-0.16-1.41-1.4-2.43-2.78-2.27c-1.38,0.15-2.38,1.42-2.22,2.83
				c11.16,101.74,66.16,151.81,66.72,152.31C1893.2,614.71,1893.55,614.89,1893.93,614.99z"/>
			<path class="st2" d="M1812.91,904.44c0.91,0.23,1.91-0.06,2.55-0.84c0.89-1.09,0.74-2.7-0.32-3.62
				c-0.65-0.55-65-56.29-81.28-143.99c-0.26-1.39-1.57-2.32-2.94-2.05c-1.37,0.26-2.26,1.6-2,2.99
				c16.63,89.56,82.35,146.42,83.01,146.99C1812.21,904.18,1812.56,904.35,1812.91,904.44z"/>
			<path class="st2" d="M1815.62,905.53c0.22,0.06,0.44,0.08,0.68,0.08c0.74-0.02,74.63-2.53,146.75-73.18
				c1-0.98,1.03-2.61,0.07-3.63c-0.96-1.03-2.56-1.06-3.56-0.08c-70.73,69.29-142.67,71.74-143.39,71.75
				c-1.39,0.03-2.49,1.21-2.45,2.62C1813.74,904.28,1814.54,905.25,1815.62,905.53z"/>
		</g>
		<g>
			<path class="st1" d="M2328.34,1012.35c18.61-47.98-5.13-102.16-53.03-121.02c-47.9-18.85-101.83,4.76-120.44,52.74
				c0,0,0,0.01,0,0.01c-10.35,26.67-31.63,47.56-58.44,57.37c-30.81,11.28-56.79,35.26-69.62,68.34c0,0,0,0.01,0,0.01
				c-12.52,32.28-39.34,56.81-72.52,66.42c-38.82,11.23-72.12,39.81-87.9,80.49c-26.96,69.49,7.43,147.96,76.8,175.27
				c69.38,27.3,147.47-6.89,174.43-76.39c1.44-3.72,2.71-7.46,3.8-11.22c10.72-36.8,36.1-67.49,70.17-84.83
				c24.99-12.73,45.57-34.36,56.54-62.64c4.82-12.42,7.41-25.17,7.97-37.8c1.13-25.36,14.49-48.54,35.8-62.16
				C2307.91,1046.7,2320.93,1031.46,2328.34,1012.35z"/>
			<path class="st2" d="M1904.41,1314.51c0.37-0.03,0.73-0.15,1.06-0.37c222.84-147.08,353.47-314.3,354.76-315.97
				c0.78-1.01,0.6-2.47-0.41-3.25c-1.01-0.78-2.46-0.6-3.24,0.4c-1.29,1.67-131.49,168.31-353.66,314.95
				c-1.06,0.7-1.36,2.14-0.65,3.21C1902.75,1314.21,1903.59,1314.58,1904.41,1314.51z"/>
			<path class="st2" d="M2201.04,1063.22c0.29-0.03,0.57-0.1,0.84-0.24c1.13-0.58,1.58-1.98,1-3.12
				c-12.21-23.98-0.79-82.86-0.67-83.45c0.25-1.26-0.57-2.48-1.82-2.73c-1.25-0.26-2.47,0.56-2.71,1.81
				c-0.49,2.48-11.85,61.07,1.09,86.47C2199.21,1062.83,2200.12,1063.3,2201.04,1063.22z"/>
			<path class="st2" d="M2241.55,1064.33c10.81-0.95,22.49-2.93,33.17-6.75c1.2-0.43,1.82-1.75,1.39-2.96
				c-0.43-1.21-1.75-1.84-2.95-1.41c-30.17,10.78-70.04,6.26-70.44,6.22c-1.27-0.15-2.41,0.76-2.56,2.03
				c-0.14,1.27,0.77,2.42,2.03,2.57C2203.3,1064.17,2220.82,1066.15,2241.55,1064.33z"/>
			<path class="st2" d="M2100.6,1161.33c0.16-0.01,0.33-0.05,0.49-0.1c1.22-0.38,1.89-1.68,1.5-2.9
				c-13.33-42.23,3.93-96.68,4.11-97.22c0.39-1.22-0.27-2.53-1.49-2.92c-1.22-0.4-2.52,0.27-2.91,1.48
				c-0.74,2.28-17.9,56.39-4.12,100.05C2098.53,1160.77,2099.55,1161.42,2100.6,1161.33z"/>
			<path class="st2" d="M2159.95,1170.32c10.75-0.94,22.67-3.11,35.55-7.11c1.22-0.38,1.89-1.68,1.51-2.9
				c-0.38-1.22-1.68-1.9-2.89-1.53c-54.39,16.94-92.04-0.46-92.42-0.64c-1.15-0.55-2.53-0.06-3.07,1.1
				c-0.54,1.16-0.05,2.54,1.11,3.09C2100.96,1162.91,2123.86,1173.49,2159.95,1170.32z"/>
			<path class="st2" d="M2045.9,1285.95c5.92-0.52,11.99-1.44,18.15-2.85c1.24-0.28,2.02-1.53,1.73-2.77
				c-0.29-1.25-1.54-2.03-2.77-1.74c-49.31,11.32-93.2-10.27-93.64-10.49c-1.14-0.58-2.53-0.11-3.09,1.04
				c-0.57,1.14-0.1,2.53,1.04,3.11C1967.71,1272.43,2002.79,1289.73,2045.9,1285.95z"/>
			<path class="st2" d="M1967.35,1271.27c0.22-0.02,0.45-0.07,0.67-0.16c1.18-0.48,1.74-1.83,1.26-3.02
				c-0.16-0.39-15.49-39.36,4.07-92.8c0.44-1.2-0.18-2.53-1.37-2.98c-1.2-0.44-2.52,0.17-2.96,1.37
				c-20.21,55.23-4.68,94.51-4.01,96.15C1965.41,1270.8,1966.37,1271.36,1967.35,1271.27z"/>
		</g>
		<g>
			<g>
				<path class="st3" d="M2035.66,1403.45c0,15.61-12.78,28.38-28.41,28.38H471.07c-15.62,0-28.41-12.77-28.41-28.38l-12.78-882.8
					c0-15.61,18.39-46.08,52.09-43.79L1983.3,438c19.6-0.51,38.56,7.04,52.44,20.88c13.88,13.84,21.48,32.76,21.02,52.34
					L2035.66,1403.45z"/>
				<path class="st4" d="M2007.62,1376.22c0,14.78-12.09,26.88-26.88,26.88H508.11c-14.78,0-26.88-12.09-26.88-26.88L469.18,574.8
					c1.42-48.23,43.7-65.56,69.33-64.54l1438.89-38.6c13.77-0.37,27.09,4.94,36.84,14.67c9.75,9.73,15.12,23.05,14.77,36.82
					L2007.62,1376.22z"/>
				<g>
					<path class="st2" d="M497.15,993.72c-1.18,0-2.15-0.95-2.17-2.14l-0.95-64.99c-0.02-1.2,0.94-2.19,2.14-2.2
						c1.13-0.04,2.19,0.94,2.2,2.14l0.95,64.99c0.02,1.2-0.94,2.19-2.14,2.2C497.17,993.72,497.16,993.72,497.15,993.72z"/>
					<path class="st5" d="M494.81,834.45c-1.18,0-2.15-0.95-2.17-2.14l-3.66-248.93c0.08-16.63,5.2-29.9,15.22-39.51
						c18.24-17.48,46.78-16.6,47.99-16.55l459.5-12.33c1.2,0.02,2.2,0.91,2.23,2.11c0.03,1.2-0.91,2.19-2.11,2.23l-459.63,12.33
						c-1.29-0.05-28.05-0.87-44.98,15.35c-9.14,8.76-13.82,20.99-13.88,36.36l3.66,248.88c0.02,1.2-0.94,2.19-2.14,2.2
						C494.83,834.45,494.82,834.45,494.81,834.45z"/>
				</g>
				<path class="st6" d="M546.12,1331.76c1.54-66.24,0.97-652.79-2.83-703.45c-3.8-50.66,75.1-60.16,196.22-65.86
					c121.13-5.7,1143.14-28.27,1169.46-30.41c59.15-4.8,71.39,83.61,65.47,275.55c-4.45,144.2-11.81,381.74-15.2,490.97
					c-1.01,32.53-27.59,58.33-60.14,58.42c-245.94,0.68-1188.55,3.38-1251.3,5.25C575.59,1364.38,545.5,1358.03,546.12,1331.76z"/>
			</g>
			<path class="st3" d="M2152.78,1476.89H356.69c-4.13,0-7.51-3.38-7.51-7.51v-62.56c0-4.13,3.38-7.51,7.51-7.51h1796.09
				c4.13,0,7.51,3.38,7.51,7.51v62.56C2160.29,1473.51,2156.91,1476.89,2152.78,1476.89z"/>
		</g>
		<g>
			<g>
				<g>
					<path class="st3" d="M739.06,854.78c2.61,93.2,11.07,414.69,7.03,528.61c-0.43,12.07-11.36,21.76-24.99,22.15
						c-67.42,1.95-314.6,6.9-424.88,2.81c-22.97-0.85-41.24-17.33-41.71-37.68c-2.29-97.83-7.35-372.98,4.67-499.02
						c1.44-15.1,14.83-27.13,31.86-28.64c73.43-6.5,321.66-22.4,416.94-16.93C725.17,827.08,738.63,839.54,739.06,854.78z"/>
					<path class="st4" d="M719.69,895.87v78.98c0,15.15-12.28,27.43-27.43,27.43H314.9c-15.15,0-27.43-12.28-27.43-27.43v-78.98
						c0-15.15,12.28-27.43,27.43-27.43h377.37C707.42,868.45,719.69,880.73,719.69,895.87z"/>
					<path class="st7" d="M307.54,891.99c3.4-3.39,8-5.29,12.8-5.28l353.16,0.67c9.44,0.02,17.28,7.3,17.99,16.71l5.94,78.46
						c0.49,6.42-10.16,11.64-23.61,11.56l-347.18-1.96c-13.43-0.08-24.45-5.4-24.44-11.81l0.03-75.55
						C302.23,899.99,304.14,895.38,307.54,891.99z"/>
				</g>
				<path class="st8" d="M625.35,1082.37c0,13.93,11.3,25.23,25.23,25.23h30.72c13.93,0,25.23-11.3,25.23-25.23l0,0
					c0-13.93-11.3-25.23-25.23-25.23h-30.72C636.65,1057.14,625.35,1068.43,625.35,1082.37L625.35,1082.37z"/>
				<path class="st8" d="M511.26,1082.37c0,13.93,11.3,25.23,25.23,25.23h30.72c13.93,0,25.23-11.3,25.23-25.23l0,0
					c0-13.93-11.3-25.23-25.23-25.23h-30.72C522.56,1057.14,511.26,1068.43,511.26,1082.37L511.26,1082.37z"/>
				<path class="st8" d="M401.56,1082.37c0,13.93,11.3,25.23,25.23,25.23h30.72c13.93,0,25.23-11.3,25.23-25.23l0,0
					c0-13.93-11.3-25.23-25.23-25.23h-30.72C412.86,1057.14,401.56,1068.43,401.56,1082.37L401.56,1082.37z"/>
				<path class="st4" d="M290.36,1086.07c0,14.16,11.48,25.64,25.64,25.64h29.69c14.16,0,25.64-11.48,25.64-25.64l0,0
					c0-14.16-11.48-25.64-25.64-25.64H316C301.84,1060.43,290.36,1071.91,290.36,1086.07L290.36,1086.07z"/>
				<path class="st8" d="M625.35,1161.35c0,13.93,11.3,25.23,25.23,25.23h30.72c13.93,0,25.23-11.3,25.23-25.23l0,0
					c0-13.93-11.3-25.23-25.23-25.23h-30.72C636.65,1136.12,625.35,1147.42,625.35,1161.35L625.35,1161.35z"/>
				<path class="st8" d="M511.26,1161.35c0,13.93,11.3,25.23,25.23,25.23h30.72c13.93,0,25.23-11.3,25.23-25.23l0,0
					c0-13.93-11.3-25.23-25.23-25.23h-30.72C522.56,1136.12,511.26,1147.42,511.26,1161.35L511.26,1161.35z"/>
				<path class="st8" d="M401.56,1161.35c0,13.93,11.3,25.23,25.23,25.23h30.72c13.93,0,25.23-11.3,25.23-25.23l0,0
					c0-13.93-11.3-25.23-25.23-25.23h-30.72C412.86,1136.12,401.56,1147.42,401.56,1161.35L401.56,1161.35z"/>
				<path class="st8" d="M287.47,1161.35c0,13.93,11.3,25.23,25.23,25.23h30.72c13.93,0,25.23-11.3,25.23-25.23l0,0
					c0-13.93-11.3-25.23-25.23-25.23H312.7C298.77,1136.12,287.47,1147.42,287.47,1161.35L287.47,1161.35z"/>
				<g class="st9">
					<path class="st1" d="M625.35,1231.3c0,13.94,11.3,25.23,25.23,25.23h30.72c13.93,0,25.23-11.3,25.23-25.23l0,0
						c0-13.93-11.3-25.23-25.23-25.23h-30.72C636.65,1206.07,625.35,1217.37,625.35,1231.3L625.35,1231.3z"/>
					<path class="st1" d="M511.26,1231.3c0,13.94,11.3,25.23,25.23,25.23h30.72c13.93,0,25.23-11.3,25.23-25.23l0,0
						c0-13.93-11.3-25.23-25.23-25.23h-30.72C522.56,1206.07,511.26,1217.37,511.26,1231.3L511.26,1231.3z"/>
					<path class="st1" d="M401.56,1231.3c0,13.94,11.3,25.23,25.23,25.23h30.72c13.93,0,25.23-11.3,25.23-25.23l0,0
						c0-13.93-11.3-25.23-25.23-25.23h-30.72C412.86,1206.07,401.56,1217.37,401.56,1231.3L401.56,1231.3z"/>
				</g>
				<g class="st9">
					<path class="st1" d="M625.35,1308.09c0,13.94,11.3,25.23,25.23,25.23h30.72c13.93,0,25.23-11.3,25.23-25.23l0,0
						c0-13.93-11.3-25.23-25.23-25.23h-30.72C636.65,1282.86,625.35,1294.16,625.35,1308.09L625.35,1308.09z"/>
					<path class="st1" d="M511.26,1308.09c0,13.94,11.3,25.23,25.23,25.23h30.72c13.93,0,25.23-11.3,25.23-25.23l0,0
						c0-13.93-11.3-25.23-25.23-25.23h-30.72C522.56,1282.86,511.26,1294.16,511.26,1308.09L511.26,1308.09z"/>
					<path class="st1" d="M401.56,1308.09c0,13.94,11.3,25.23,25.23,25.23h30.72c13.93,0,25.23-11.3,25.23-25.23l0,0
						c0-13.93-11.3-25.23-25.23-25.23h-30.72C412.86,1282.86,401.56,1294.16,401.56,1308.09L401.56,1308.09z"/>
				</g>
				<path class="st8" d="M298.44,1306.03c0,17.64,14.3,31.94,31.94,31.94h1.95c17.64,0,31.94-14.3,31.94-31.94v-61.18
					c0-17.64-14.3-31.94-31.94-31.94h-1.95c-17.64,0-31.94,14.3-31.94,31.94V1306.03z"/>
			</g>
		</g>
		<g>
			<g>
				<path class="st3" d="M1865.91,929.82c5.75,4.45,163.48-6.98,229.75,6.74c0,0,51.36-224.1-96.11-232.91
					c-147.48-8.8-198.61,82.21-198.61,82.21L1865.91,929.82z"/>
				<path class="st1" d="M1710.14,693.09l289.4,10.56c0,0-105.45,1.44-93.78,134.82c11.68,133.37,71.1,522.82-79.82,523.2
					s-153.33-68.55-153.33-68.55L1710.14,693.09z"/>
				<path class="st3" d="M1574.99,630.51l111.86-26.04c0,0,74.79-6.72,84.91,59.76c10.11,66.48,7.18,460.33,4.02,541.56
					c-3.17,81.23,4.45,143.7,50.16,155.89l-332.54,5.75L1574.99,630.51z"/>
				<path class="st2" d="M1893.81,989.28c-1.8,0-3.31-1.4-3.42-3.22c-0.05-0.9-5.51-91.19-15.28-166.34
					c-10.14-77.97,32.52-94.41,34.35-95.07c1.79-0.65,3.75,0.27,4.39,2.05c0.65,1.77-0.27,3.73-2.04,4.39l0,0
					c-1.61,0.6-39.29,15.56-29.9,87.75c9.81,75.38,15.27,165.91,15.32,166.81c0.11,1.89-1.33,3.52-3.22,3.63
					C1893.95,989.28,1893.88,989.28,1893.81,989.28z"/>
				<path class="st1" d="M1347.57,635.92c0,0,203.69,11.19,339.28-31.45c0,0-90.14-6.18-90.14,201.94
					c0,159.11,23.6,462.82,2.99,520.47c-20.6,57.65-97.65,135.15-208.08,68.55C1281.18,1328.82,1347.57,635.92,1347.57,635.92z"/>
				<path class="st2" d="M1570.26,1090.85c-1.86,0-3.39-1.49-3.43-3.36c0-0.1-0.21-10.91-1.25-47.92c-0.05-1.89,1.44-3.47,3.33-3.52
					c1.85-0.09,3.47,1.44,3.52,3.33c1.04,37.06,1.25,47.87,1.25,47.98c0.04,1.89-1.47,3.46-3.36,3.49
					C1570.3,1090.85,1570.28,1090.85,1570.26,1090.85z"/>
				<path class="st2" d="M1567.76,1000.51c-1.85,0-3.37-1.47-3.42-3.32c-0.74-24.09-1.89-50.72-3.1-78.92
					c-1.64-38.1-3.34-77.49-4.24-115.44c-2.37-100.16,14.16-138.61,28.43-153.22c7.76-7.95,14.26-8.18,14.98-8.18
					c1.89,0,3.43,1.54,3.43,3.43c0,1.87-1.5,3.39-3.36,3.43c-0.78,0.06-40.17,4.38-36.62,154.38c0.89,37.88,2.59,77.24,4.23,115.31
					c1.22,28.22,2.37,54.87,3.1,79.01c0.06,1.89-1.43,3.47-3.32,3.53C1567.84,1000.51,1567.8,1000.51,1567.76,1000.51z"/>
			</g>
			<g>
				<path class="st3" d="M1293.42,323.91c0,0,224.74,24.5,253.69-13.6c0,0-23.03-68.56-91.42-64
					C1387.29,250.88,1293.42,323.91,1293.42,323.91z"/>
				<path class="st3" d="M562.49,401.04c19.6,220.24,60.76,686.09,78.67,913.01c3.99,50.59,44.54,90.55,95.18,93.8
					c180.4,11.58,586.38,34.05,742.18,13.14h0c-35.69-17.59-58.16-54.06-57.84-93.85l8.27-1018.28
					c0.29-35.98,36.13-61.83,69.82-49.21c21.23,7.95,37.3,24.9,48.33,50.66c-14.71-42.86-37.84-74.23-91.42-64
					c0,0-524.03,5.24-778.31,21.01C608.27,271.61,556.36,332.08,562.49,401.04z"/>
				<defs>
					<filter id="Adobe_OpacityMaskFilter" filterUnits="userSpaceOnUse" x="582.51" y="269.36" width="846.84" height="1144.89">
						<feFlood  style="flood-color:white;flood-opacity:1" result="back"/>
						<feBlend  in="SourceGraphic" in2="back" mode="normal"/>
					</filter>
				</defs>
				<mask maskUnits="userSpaceOnUse" x="582.51" y="269.36" width="846.84" height="1144.89" id="SVGID_1_">
					<g class="st10">
						<defs>
							
								<filter id="Adobe_OpacityMaskFilter_1_" filterUnits="userSpaceOnUse" x="582.51" y="269.36" width="846.84" height="1144.89">
								<feFlood  style="flood-color:white;flood-opacity:1" result="back"/>
								<feBlend  in="SourceGraphic" in2="back" mode="normal"/>
							</filter>
						</defs>
						<mask maskUnits="userSpaceOnUse" x="582.51" y="269.36" width="846.84" height="1144.89" id="SVGID_1_">
							<g class="st11">
							</g>
						</mask>
						<linearGradient id="SVGID_2_" gradientUnits="userSpaceOnUse" x1="1324.2927" y1="485.3014" x2="240.0351" y2="1872.8182">
							<stop  offset="0" style="stop-color:#FFFFFF"/>
							<stop  offset="1" style="stop-color:#000000"/>
						</linearGradient>
						<path class="st12" d="M692.12,296.47l704.14-27.11c-29.04,215-16.79,652.84-5.7,1084.35c0.66,25.58,15.66,48.6,38.8,59.54l0,0
							c0,0-469.65,5.41-671.45-8.9c-47.52-3.37-86.28-39.32-93.34-86.43c-27.7-184.87-93.98-662.47-80.19-915.31
							C587.53,344.7,634.18,298.7,692.12,296.47z"/>
					</g>
				</mask>
				<path class="st13" d="M692.12,296.47l704.14-27.11c-29.04,215-16.79,652.84-5.7,1084.35c0.66,25.58,15.66,48.6,38.8,59.54l0,0
					c0,0-469.65,5.41-671.45-8.9c-47.52-3.37-86.28-39.32-93.34-86.43c-27.7-184.87-93.98-662.47-80.19-915.31
					C587.53,344.7,634.18,298.7,692.12,296.47z"/>
				<g>
					<linearGradient id="SVGID_3_" gradientUnits="userSpaceOnUse" x1="675.5746" y1="544.456" x2="1293.417" y2="544.456">
						<stop  offset="0" style="stop-color:#DAE3FE"/>
						<stop  offset="1" style="stop-color:#E9EFFD"/>
					</linearGradient>
					<path class="st14" d="M696.33,534.01c99-2.38,479.02-11.91,574.98-14.32c12.1-0.3,22.11,7.19,22.11,16.54l0,0
						c0,8.9-9.12,16.21-20.64,16.54l-574.61,16.47c-11.07,0.32-20.63-5.93-22.05-14.41l-0.36-2.15
						C674.13,542.98,683.67,534.31,696.33,534.01z"/>
					<linearGradient id="SVGID_4_" gradientUnits="userSpaceOnUse" x1="686.9012" y1="621.0298" x2="1101.613" y2="621.0298">
						<stop  offset="0" style="stop-color:#DAE3FE"/>
						<stop  offset="1" style="stop-color:#E9EFFD"/>
					</linearGradient>
					<path class="st15" d="M690.11,637.98L690.11,637.98c1.68,2.18,4.75,3.49,8.03,3.43l394.56-6.62c4.96-0.08,8.92-3.21,8.92-7.04
						v-20.08c0-3.99-4.29-7.18-9.46-7.03L708.6,611.72C691.52,612.21,681.35,626.65,690.11,637.98z"/>
				</g>
				<g>
					<path class="st13" d="M731.26,1277.02c74.73,0.76,361.63,3.25,434.07,3.88c9.14,0.08,16.37,7.88,15.97,17.22l0,0
						c-0.37,8.89-7.55,15.9-16.25,15.87l-433.88-1.72c-8.36-0.03-15.3-6.58-16.02-15.09l-0.18-2.15
						C714.15,1285.28,721.7,1276.92,731.26,1277.02z"/>
				</g>
				<g>
					<path class="st2" d="M778.27,457.4l-2.59-98.05l17.17-0.45l2.59,98.05L778.27,457.4z"/>
					<path class="st2" d="M884.84,454.58l-22.27,0.59l-32.19-70.22l-0.87,0.02c1.26,5.38,1.97,11.18,2.14,17.39l1.42,53.59
						l-16.9,0.45l-2.59-98.05l22.4-0.59l31.9,69.49l0.74-0.02c-0.98-4.67-1.55-10.25-1.72-16.73l-1.42-53.52l16.77-0.44
						L884.84,454.58z"/>
					<path class="st2" d="M941.73,354.96l18.38-0.49l-20.48,98.66l-23.2,0.61l-25.53-97.45l18.38-0.49l14.4,59.55
						c1.3,5.07,2.63,12.35,4,21.84c0.72-8.12,1.71-15.46,2.97-22.02L941.73,354.96z"/>
					<path class="st2" d="M1035.44,401.4c0.43,16.23-2.28,28.79-8.13,37.66c-5.85,8.88-14.43,13.47-25.74,13.77
						c-11.36,0.3-20.19-3.82-26.5-12.35c-6.31-8.54-9.68-20.98-10.11-37.35c-0.43-16.23,2.28-28.75,8.13-37.56
						c5.85-8.81,14.5-13.37,25.95-13.67c11.31-0.3,20.1,3.82,26.37,12.36C1031.66,372.79,1035.01,385.17,1035.44,401.4z
						 M983.6,402.78c0.3,11.18,1.93,19.66,4.9,25.44c2.97,5.78,7.18,8.6,12.64,8.46c11-0.29,16.2-11.88,15.59-34.77
						c-0.61-22.89-6.36-34.19-17.27-33.91c-5.54,0.15-9.65,3.18-12.31,9.08C984.48,382.99,983.3,391.56,983.6,402.78z"/>
					<path class="st2" d="M1054.31,450.1l-2.59-98.05l17.17-0.45l2.59,98.05L1054.31,450.1z"/>
					<path class="st2" d="M1122.52,364.74c-5.23,0.14-9.27,3.31-12.13,9.52c-2.85,6.2-4.14,14.76-3.85,25.67
						c0.6,22.71,6.83,33.91,18.67,33.6c5.19-0.14,10.57-1.93,16.17-5.39l0.43,16.23c-4.7,3.3-10.78,5.05-18.25,5.25
						c-11.04,0.29-19.64-3.88-25.8-12.51c-6.16-8.63-9.45-20.9-9.87-36.82c-0.42-15.92,2.3-28.41,8.17-37.46
						c5.87-9.06,14.23-13.73,25.1-14.02c3.58-0.09,7.02,0.31,10.33,1.2c3.31,0.9,6.88,2.53,10.7,4.88l-5.64,14.98
						c-2.05-1.33-4.23-2.54-6.54-3.62C1127.7,365.17,1125.21,364.67,1122.52,364.74z"/>
					<path class="st2" d="M1199.98,446.25l-44.2,1.17l-2.59-98.05l44.2-1.17l0.42,15.76l-25.95,0.69l0.62,23.34l24.08-0.64
						l0.42,15.83l-24.08,0.64l0.72,27.16l25.95-0.69L1199.98,446.25z"/>
				</g>
				<g>
					<path class="st13" d="M1304.09,1200.83H715.61c-7.51,0-13.79-5.85-14.53-13.53l-43.74-454.66c-0.84-8.71,5.72-16.3,14.23-16.48
						l609.74-12.81c7.9-0.17,14.49,6.15,14.88,14.26l22.49,467.48C1319.09,1193.65,1312.44,1200.83,1304.09,1200.83z"/>
					<linearGradient id="SVGID_5_" gradientUnits="userSpaceOnUse" x1="654.7479" y1="952.0833" x2="1321.2126" y2="952.0833">
						<stop  offset="0" style="stop-color:#DAE3FE"/>
						<stop  offset="1" style="stop-color:#E9EFFD"/>
					</linearGradient>
					<path class="st16" d="M1304.09,1203.35H715.61c-8.85,0-16.17-6.8-17.04-15.81l-43.74-454.66c-0.47-4.93,1.12-9.86,4.38-13.52
						c3.19-3.59,7.56-5.62,12.3-5.72l609.74-12.81c9.33-0.19,16.99,7.12,17.45,16.66l22.49,467.48c0.23,4.85-1.53,9.63-4.85,13.11
						C1313.1,1201.47,1308.75,1203.35,1304.09,1203.35z M1281.62,705.86c-0.09,0-0.17,0-0.26,0l-609.74,12.81
						c-3.32,0.07-6.39,1.5-8.65,4.03c-2.33,2.62-3.47,6.15-3.13,9.69l43.74,454.66c0.62,6.42,5.79,11.25,12.02,11.25h588.48
						c3.26,0,6.32-1.32,8.6-3.72c2.4-2.52,3.63-5.85,3.46-9.39l-22.49-467.48C1293.35,711.02,1288.08,705.86,1281.62,705.86z"/>
					<linearGradient id="SVGID_6_" gradientUnits="userSpaceOnUse" x1="1132.2192" y1="955.4257" x2="1168.7148" y2="955.4257">
						<stop  offset="0" style="stop-color:#DAE3FE"/>
						<stop  offset="1" style="stop-color:#E9EFFD"/>
					</linearGradient>
					<path class="st17" d="M1166.19,1199.46c-1.32,0-2.43-1.02-2.51-2.36l-31.46-483.04c-0.09-1.39,0.96-2.59,2.35-2.68
						c1.38-0.09,2.59,0.96,2.68,2.35l31.46,483.04c0.09,1.39-0.96,2.59-2.35,2.68C1166.3,1199.46,1166.25,1199.46,1166.19,1199.46z"
						/>
					<linearGradient id="SVGID_7_" gradientUnits="userSpaceOnUse" x1="666.1759" y1="773.2385" x2="1296.9443" y2="773.2385">
						<stop  offset="0" style="stop-color:#DAE3FE"/>
						<stop  offset="1" style="stop-color:#E9EFFD"/>
					</linearGradient>
					<path class="st18" d="M669.7,783.72c-1.91,0-3.48-1.53-3.52-3.45c-0.04-1.95,1.5-3.56,3.45-3.61l623.71-13.9
						c1.95-0.04,3.56,1.5,3.61,3.45c0.04,1.95-1.5,3.56-3.45,3.6l-623.71,13.9C669.76,783.72,669.73,783.72,669.7,783.72z"/>
					<linearGradient id="SVGID_8_" gradientUnits="userSpaceOnUse" x1="667.1833" y1="849.3339" x2="1301.1287" y2="849.3339">
						<stop  offset="0" style="stop-color:#DAE3FE"/>
						<stop  offset="1" style="stop-color:#E9EFFD"/>
					</linearGradient>
					<path class="st19" d="M669.7,859.38c-1.36,0-2.49-1.09-2.52-2.46c-0.03-1.39,1.07-2.55,2.46-2.58l628.91-15.05
						c1.42-0.04,2.55,1.07,2.58,2.46c0.03,1.39-1.07,2.55-2.46,2.58l-628.91,15.05C669.74,859.38,669.72,859.38,669.7,859.38z"/>
					<linearGradient id="SVGID_9_" gradientUnits="userSpaceOnUse" x1="673.0554" y1="925.9125" x2="1308.7356" y2="925.9125">
						<stop  offset="0" style="stop-color:#DAE3FE"/>
						<stop  offset="1" style="stop-color:#E9EFFD"/>
					</linearGradient>
					<path class="st20" d="M675.57,934.34c-1.37,0-2.49-1.1-2.52-2.47c-0.03-1.39,1.08-2.54,2.47-2.57l630.64-11.82
						c1.43-0.01,2.54,1.08,2.57,2.47c0.03,1.39-1.08,2.54-2.47,2.57l-630.64,11.82C675.61,934.34,675.59,934.34,675.57,934.34z"/>
					<linearGradient id="SVGID_10_" gradientUnits="userSpaceOnUse" x1="681.3899" y1="997.7007" x2="1312.4395" y2="997.7007">
						<stop  offset="0" style="stop-color:#DAE3FE"/>
						<stop  offset="1" style="stop-color:#E9EFFD"/>
					</linearGradient>
					<path class="st21" d="M683.91,1003.03c-1.38,0-2.51-1.11-2.52-2.5c-0.01-1.39,1.11-2.53,2.5-2.54l626.01-5.61
						c1.38-0.02,2.53,1.11,2.54,2.5c0.01,1.39-1.11,2.53-2.5,2.54l-626.01,5.61C683.92,1003.03,683.92,1003.03,683.91,1003.03z"/>
					<linearGradient id="SVGID_11_" gradientUnits="userSpaceOnUse" x1="689.3425" y1="1076.6361" x2="1308.7355" y2="1076.6361">
						<stop  offset="0" style="stop-color:#DAE3FE"/>
						<stop  offset="1" style="stop-color:#E9EFFD"/>
					</linearGradient>
					<path class="st22" d="M691.86,1083.44c-1.38,0-2.5-1.1-2.52-2.48c-0.02-1.39,1.09-2.54,2.48-2.55l614.35-8.56
						c1.35-0.03,2.53,1.09,2.55,2.48c0.02,1.39-1.09,2.54-2.48,2.55l-614.35,8.56C691.89,1083.44,691.87,1083.44,691.86,1083.44z"/>
					<linearGradient id="SVGID_12_" gradientUnits="userSpaceOnUse" x1="695.7628" y1="1140.593" x2="1312.4392" y2="1140.593">
						<stop  offset="0" style="stop-color:#DAE3FE"/>
						<stop  offset="1" style="stop-color:#E9EFFD"/>
					</linearGradient>
					<path class="st23" d="M698.28,1148.35c-1.37,0-2.49-1.1-2.52-2.48c-0.02-1.39,1.08-2.54,2.48-2.56l611.64-10.47
						c1.39-0.04,2.54,1.08,2.56,2.48c0.02,1.39-1.08,2.54-2.48,2.56l-611.64,10.47C698.31,1148.35,698.3,1148.35,698.28,1148.35z"/>
				</g>
			</g>
		</g>
		<g>
			<g>
				<path class="st3" d="M1494.87,826.65c-2.88,116.14-12.22,516.73-7.76,658.69c0.47,15.04,12.53,27.11,27.57,27.6
					c74.38,2.43,288.36,8.6,410.02,3.5c25.34-1.06,45.49-21.59,46.02-46.95c2.53-121.9,8.11-464.76-5.15-621.82
					c-1.59-18.82-16.36-33.8-35.15-35.68c-81.01-8.1-296.15-27.91-401.26-21.09C1510.19,792.13,1495.34,807.66,1494.87,826.65z"/>
				<path class="st4" d="M1525.09,862.74c-4.06,95.11-16.88,411.54-12.81,528.55c0.59,17.1,14.07,30.93,31.16,31.93
					c70.34,4.12,250.75,13.19,353.91,4.93c18.58-1.49,33.15-16.51,34.16-35.12c5.23-97.04,20.24-391.67,16.34-507.37
					c-0.62-18.46-14.92-33.53-33.31-35.18c-76.09-6.83-271.53-23.09-359.2-18.3C1538.88,833.07,1525.79,846.27,1525.09,862.74z"/>
				<path class="st7" d="M1537.22,874.24c-3.78,90.17-15.72,390.16-11.93,501.09c0.55,16.21,13.11,29.32,29.02,30.27
					c65.51,3.9,233.54,12.51,329.63,4.67c17.3-1.41,30.88-15.65,31.81-33.3c4.87-92,18.85-371.33,15.22-481.01
					c-0.58-17.5-13.9-31.79-31.03-33.35c-70.87-6.48-252.9-21.89-334.55-17.35C1550.07,846.11,1537.88,858.63,1537.22,874.24z"/>
				<path class="st24" d="M1678.69,811.19L1678.69,811.19c0,3.56,2.78,6.5,6.34,6.69c17.57,0.92,67.06,3.52,89.18,4.81
					c4.36,0.25,7.78-3.67,6.96-7.96l-0.14-0.73c-0.56-2.93-2.99-5.13-5.96-5.4c-14.95-1.37-60.06-5.17-89.95-4.1
					C1681.52,804.63,1678.69,807.6,1678.69,811.19z"/>
			</g>
			<g>
				<path class="st3" d="M1893.96,1056.95c-0.89,35.28-27.19,63.24-58.74,62.45l-190.04-4.79c-31.55-0.8-56.41-30.05-55.52-65.33
					l0.02-0.78c0.89-35.28,27.19-63.24,58.74-62.45l190.04,4.8c31.55,0.8,56.41,30.04,55.52,65.33L1893.96,1056.95z"/>
			</g>
		</g>
		<g>
			<g>
				
					<linearGradient id="SVGID_13_" gradientUnits="userSpaceOnUse" x1="1565.5143" y1="1595.9904" x2="1418.8475" y2="1469.9902" gradientTransform="matrix(1 0 0 1 855.6062 0)">
					<stop  offset="0" style="stop-color:#FF928E"/>
					<stop  offset="1" style="stop-color:#FEB3B1"/>
				</linearGradient>
				<path class="st25" d="M1831.23,1102.23c-0.42,1.32,4.39,3.33,7.23-2.07c0.1-2.59,1.67-13.68,0.13-15.79
					c-8.24-11.23-24.21-25.31-24.21-25.31c-2.7,2.66-0.48,5.28-0.48,5.28l7.75,8.07c-1.62,2.93-3.6,5.4-4.52,8.94
					c-0.7,2.68-0.27,5.55,1.08,7.99c1.36,2.45,3.22,5.64,4.97,8.13C1826.49,1102.2,1831.23,1102.23,1831.23,1102.23z"/>
				<linearGradient id="SVGID_14_" gradientUnits="userSpaceOnUse" x1="1838.6451" y1="1029.9843" x2="1825.3118" y2="1104.651">
					<stop  offset="0" style="stop-color:#FF928E"/>
					<stop  offset="1" style="stop-color:#FEB3B1"/>
				</linearGradient>
				<path class="st26" d="M1825.04,1077.66l7.06,5.99l2.22,5.96l-6.3,6.98c0,0-2.12-11.82-3.69-14.38
					C1822.75,1079.64,1823.57,1078.4,1825.04,1077.66z"/>
			</g>
			<g>
				
					<linearGradient id="SVGID_15_" gradientUnits="userSpaceOnUse" x1="2679.4138" y1="1529.0682" x2="2507.177" y2="1716.4139" gradientTransform="matrix(-1 0 0 1 4594.8882 0)">
					<stop  offset="0" style="stop-color:#09005D"/>
					<stop  offset="1" style="stop-color:#1A0F91"/>
				</linearGradient>
				<path class="st27" d="M1969.92,1543.02c0,0,1.78,10.1,2.66,20.09c0.34,3.91-2.67,7.3-6.59,7.46c-13.31,0.55-41.79,1.63-52,1.18
					c-1.54-0.07-2.54-1.64-1.97-3.07l0,0c0.48-1.2,1.4-2.17,2.57-2.7l47.03-21.62L1969.92,1543.02z"/>
				
					<linearGradient id="SVGID_16_" gradientUnits="userSpaceOnUse" x1="2623.5083" y1="1542.9825" x2="2638.8071" y2="1542.9825" gradientTransform="matrix(-1 0 0 1 4594.8882 0)">
					<stop  offset="0" style="stop-color:#FF928E"/>
					<stop  offset="1" style="stop-color:#FEB3B1"/>
				</linearGradient>
				<path class="st28" d="M1971.38,1537.09l-1.43,12.08c0,0-8.24,3.84-13.87-0.48l3.41-13.46L1971.38,1537.09z"/>
				<path class="st1" d="M1970.3,1310.01c0.62,3.15,3.32,157.4-13.17,226.53c-0.27,1.13,0.3,2.29,1.38,2.73
					c2.53,1.03,7.49,2.53,13.43,2.73c1.84,0.06,3.49-1.13,4.01-2.9c4.71-16.04,27.3-96.39,30.24-173.15c3.29-85.77,0-2.92,0-2.92
					l-1.93-53.02L1970.3,1310.01z"/>
				
					<linearGradient id="SVGID_17_" gradientUnits="userSpaceOnUse" x1="2640.7749" y1="1493.5461" x2="2468.5388" y2="1680.8907" gradientTransform="matrix(-1 0 0 1 4594.8882 0)">
					<stop  offset="0" style="stop-color:#09005D"/>
					<stop  offset="1" style="stop-color:#1A0F91"/>
				</linearGradient>
				<path class="st29" d="M2024.02,1548.29c0,0,2.84,5.1,5.59,18.64c0.5,2.45-1.21,4.79-3.7,5.03c-4.4,0.43-11.16,0.99-16.58,0.95
					c-2.5-0.02-4.45-2.19-4.15-4.67c0.6-4.94,2.47-13.06,8.25-19.38L2024.02,1548.29z"/>
				
					<linearGradient id="SVGID_18_" gradientUnits="userSpaceOnUse" x1="2568.3711" y1="1542.1982" x2="2581.5803" y2="1542.1982" gradientTransform="matrix(-1 0 0 1 4594.8882 0)">
					<stop  offset="0" style="stop-color:#FF928E"/>
					<stop  offset="1" style="stop-color:#FEB3B1"/>
				</linearGradient>
				<path class="st30" d="M2026.52,1532.76l-3.35,18.27c0,0-3.31,2.46-9.86,0.68l1.6-19.65L2026.52,1532.76z"/>
				<path class="st1" d="M2035.56,1314.74c13.49,81.38-2.93,201.15-8.46,224.59c-0.34,1.44-1.5,2.53-2.95,2.78
					c-2.47,0.41-6.54,0.74-10.55-0.42c-1.38-0.4-2.35-1.65-2.41-3.09c-0.74-18.95,0.59-135.29-11.97-181.27
					c-0.64-2.33-2.06-4.36-4.03-5.76l-24.39-17.34l-1.87-28.02L2035.56,1314.74z"/>
				<g>
					<path class="st3" d="M1949.64,1160.54c40.41-0.67,85,10.61,85,10.61c12.05,70.29,2.11,151.36,2.11,151.36
						c-31.29,8.2-66.58-5.02-66.58-5.02c-5.2-29.38-29.46-112.06-29.46-112.06c-19.75-2.45-36.01-8.15-49.41-15.68
						c10.22-11.84,15.03-26.91,17.13-35.82C1922.71,1158.37,1937.17,1160.74,1949.64,1160.54z"/>
					
						<linearGradient id="SVGID_19_" gradientUnits="userSpaceOnUse" x1="1553.0826" y1="1610.4611" x2="1406.416" y2="1484.4609" gradientTransform="matrix(1 0 0 1 855.6062 0)">
						<stop  offset="0" style="stop-color:#FF928E"/>
						<stop  offset="1" style="stop-color:#FEB3B1"/>
					</linearGradient>
					<path class="st31" d="M1830.27,1101.01c3.97-4.79,8.99-2.53,8.99-2.53c5.95,25.12,37.13,45.49,69.17,55.45
						c-2.09,8.91-6.91,23.98-17.13,35.82C1838.13,1159.86,1830.27,1101.01,1830.27,1101.01z"/>
				</g>
				<path class="st3" d="M2019.14,1210.28l15.5-39.13c0,0,37.75,25.65,43.96,58.17c-7.13,0.53-20.11,2.38-32.81,8.79
					C2042.99,1222.76,2019.14,1210.28,2019.14,1210.28z"/>
				<linearGradient id="SVGID_20_" gradientUnits="userSpaceOnUse" x1="1986.8171" y1="1097.1199" x2="1981.4838" y2="1189.1199">
					<stop  offset="0" style="stop-color:#FF928E"/>
					<stop  offset="1" style="stop-color:#FEB3B1"/>
				</linearGradient>
				<path class="st32" d="M1990.57,1127.73l12.86,37.19c0.21,0.62-0.04,1.3-0.61,1.61c-3.51,1.94-16.13,7.54-31.35-2.11
					c-1.59-1.01-2.66-2.64-2.91-4.51l-4.16-32.18H1990.57z"/>
				<g>
					<linearGradient id="SVGID_21_" gradientUnits="userSpaceOnUse" x1="1959.428" y1="1083.7081" x2="1977.4279" y2="1128.3746">
						<stop  offset="0" style="stop-color:#FF928E"/>
						<stop  offset="1" style="stop-color:#FEB3B1"/>
					</linearGradient>
					<path class="st33" d="M1962.59,1093.29c0,0-14.12,26.58-12.31,37.32c1.81,10.74,19.31,9.97,34.59,1.25l10.68-28.7
						L1962.59,1093.29z"/>
					
						<linearGradient id="SVGID_22_" gradientUnits="userSpaceOnUse" x1="-3994.4666" y1="-152.1768" x2="-3982.2422" y2="-82.4535" gradientTransform="matrix(-0.746 -0.6659 -0.6659 0.746 -1060.3521 -1476.3188)">
						<stop  offset="0" style="stop-color:#09005D"/>
						<stop  offset="1" style="stop-color:#1A0F91"/>
					</linearGradient>
					<path class="st34" d="M1984.2,1117.76c-0.62-0.28-0.85-1.04-0.48-1.6c1.13-1.73,3.25-5.25,3.93-8.34c0,0,2.54-1.63-6.46-3.78
						c-9-2.15-22.42-5.5-25.24-13.16c-2.75-7.47,4.48-26.25,16-11.28c0.44,0.57,1.3,0.58,1.74,0.01c1.89-2.46,6.86-7.57,13.76-4.47
						c6.46,2.9,7.18,7.63,7.09,10.01c-0.03,0.7,0.6,1.25,1.29,1.11c3.26-0.62,11.1-1.16,14.75,6.88c3.01,6.62,1.05,10.36-0.73,12.2
						c-0.58,0.59-0.32,1.57,0.47,1.81c2.14,0.66,4.91,2.48,4.64,7.5c-0.38,6.95-8.15,6.34-10.36,6.02
						c-0.36-0.05-0.73,0.07-0.97,0.34c-1.9,2.1-10.44,11.01-19.69,12.08c-0.8,0.09-1.42-0.7-1.16-1.46l4-11.63
						c0.19-0.54-0.07-1.13-0.59-1.36L1984.2,1117.76z"/>
					
						<linearGradient id="SVGID_23_" gradientUnits="userSpaceOnUse" x1="-4763.2051" y1="-1977.5155" x2="-4745.2051" y2="-1932.8486" gradientTransform="matrix(-0.746 -0.6659 -0.6659 0.746 -1060.3521 -1476.3188)">
						<stop  offset="0" style="stop-color:#FF928E"/>
						<stop  offset="1" style="stop-color:#FEB3B1"/>
					</linearGradient>
					<path class="st35" d="M1982.59,1119.41c0,0,10.05-6.9,10.79-1.09c0.73,5.81-9.05,8.41-13.9,6.25L1982.59,1119.41z"/>
				</g>
				
					<linearGradient id="SVGID_24_" gradientUnits="userSpaceOnUse" x1="-2916.1882" y1="368.1324" x2="-3046.6819" y2="551.1235" gradientTransform="matrix(-1 0 0 1 -1503.7915 0)">
					<stop  offset="0" style="stop-color:#FF928E"/>
					<stop  offset="1" style="stop-color:#FEB3B1"/>
				</linearGradient>
				<path class="st36" d="M2045.78,1238.11c0,0,13.19,59.52,1.24,92.98c14.65,6.79,11.94,5.51,11.94,5.51s28.99-84.69,19.63-107.29
					C2060.14,1227.36,2050.99,1232.32,2045.78,1238.11z"/>
				
					<linearGradient id="SVGID_25_" gradientUnits="userSpaceOnUse" x1="-2875.4329" y1="397.1915" x2="-3005.9263" y2="580.1826" gradientTransform="matrix(-1 0 0 1 -1503.7915 0)">
					<stop  offset="0" style="stop-color:#FF928E"/>
					<stop  offset="1" style="stop-color:#FEB3B1"/>
				</linearGradient>
				<path class="st37" d="M2047.02,1331.09c0,0-7.55,9.77-6.95,13.66c0.6,3.89,0.75,5.48,0.75,5.48s3.79-2.59,3.55-5.91
					c-0.53,10.52-4.05,22.49-0.85,21.91c3.2-0.58,19.78-15.86,16.03-32.15C2051.06,1328.18,2048.67,1328.82,2047.02,1331.09z"/>
			</g>
		</g>
		<g>
			<g>
				
					<ellipse transform="matrix(0.7071 -0.7071 0.7071 0.7071 7.8642 1636.5909)" class="st3" cx="1979.47" cy="808.8" rx="165.69" ry="165.69"/>
				<linearGradient id="SVGID_26_" gradientUnits="userSpaceOnUse" x1="1829.8718" y1="810.5981" x2="2129.7246" y2="810.5981">
					<stop  offset="0" style="stop-color:#DAE3FE"/>
					<stop  offset="1" style="stop-color:#E9EFFD"/>
				</linearGradient>
				<circle class="st38" cx="1979.8" cy="810.6" r="149.93"/>
			</g>
			<g>
				<path class="st3" d="M2136.08,768.63l1.46,124.93l0.22,19.34c0.09,2.52-1.91,4.66-4.43,4.75l-248.19,8.76
					c-2.52,0.09-4.66-1.9-4.75-4.43l-0.96-19.32l-6.14-123.24c-0.09-2.52,2.71-7.55,8.17-7.37l242.34-14.84
					c3.16-0.19,6.27,0.92,8.59,3.08C2134.7,762.45,2136.04,765.46,2136.08,768.63z"/>
				<path class="st1" d="M2131.55,909.21c0.08,2.35-1.82,4.35-4.22,4.43l-236.43,8.35c-2.4,0.08-4.44-1.77-4.52-4.12l-6.67-133.03
					c-0.08-2.35,2.59-7.05,7.78-6.89l230.85-14.01c3.01-0.18,5.97,0.85,8.18,2.86c2.21,2.01,3.48,4.82,3.51,7.78L2131.55,909.21z"/>
				<path class="st2" d="M2100.74,916.11c-0.5,0-0.9-0.39-0.92-0.89c-0.02-0.51,0.38-0.94,0.89-0.96l26.47-0.93
					c1.48-0.05,3-0.81,4.17-2.08c1.17-1.27,1.82-2.85,1.77-4.33l-2.86-80.95c-0.02-0.51,0.38-0.94,0.89-0.96
					c0.53-0.01,0.94,0.38,0.96,0.89l2.86,80.95c0.07,1.97-0.75,4.03-2.26,5.65c-1.51,1.63-3.5,2.6-5.46,2.67l-26.47,0.93
					C2100.76,916.11,2100.75,916.11,2100.74,916.11z"/>
				<path class="st2" d="M1881.67,835.67c-0.5,0-0.9-0.39-0.92-0.89l-1.71-48.52c-0.09-2.51,0.78-5.07,2.39-7.03
					c1.7-2.08,4.01-3.27,6.51-3.36l21.02-0.74c0.54-0.01,0.94,0.38,0.96,0.89c0.02,0.51-0.38,0.94-0.89,0.96l-21.02,0.74
					c-1.95,0.07-3.78,1.02-5.14,2.68c-1.33,1.62-2.05,3.73-1.97,5.79l1.71,48.52c0.02,0.51-0.38,0.94-0.89,0.96
					C1881.69,835.67,1881.68,835.67,1881.67,835.67z"/>
				<g>
					
						<linearGradient id="SVGID_27_" gradientUnits="userSpaceOnUse" x1="784.9119" y1="1161.2054" x2="682.9681" y2="1199.9983" gradientTransform="matrix(0.9994 -0.0353 0.0353 0.9994 1184.3887 -328.7067)">
						<stop  offset="0" style="stop-color:#FE7062"/>
						<stop  offset="1" style="stop-color:#FF928E"/>
					</linearGradient>
					<path class="st39" d="M1941.29,828.84c-0.09-2.54-2.22-4.52-4.75-4.43l-30.66,1.08c-2.54,0.09-4.52,2.22-4.43,4.75l0.82,23.32
						c0.09,2.54,2.22,4.52,4.75,4.43l30.66-1.08c2.54-0.09,4.52-2.22,4.43-4.75L1941.29,828.84z"/>
					<g>
						<path class="st40" d="M1915.99,848.1c-0.59,0-1.15-0.22-1.58-0.62c-0.45-0.42-0.71-1-0.74-1.62l-0.27-7.69
							c-0.04-1.28,0.96-2.35,2.24-2.4l8.74-0.31c0.62-0.02,1.21,0.2,1.66,0.62c0.45,0.42,0.71,1,0.74,1.61l0.27,7.69
							c0.04,1.28-0.96,2.35-2.24,2.4l-8.74,0.31C1916.05,848.1,1916.02,848.1,1915.99,848.1z M1924.47,837.31c-0.01,0-0.01,0-0.02,0
							l-8.74,0.31c-0.26,0.01-0.46,0.23-0.46,0.49l0.27,7.69c0,0.13,0.06,0.24,0.15,0.33c0.09,0.09,0.2,0.13,0.34,0.13l8.74-0.31
							c0.26-0.01,0.46-0.23,0.46-0.49l-0.27-7.69v0c0-0.13-0.06-0.24-0.15-0.33C1924.7,837.35,1924.59,837.31,1924.47,837.31z"/>
						<g>
							<path class="st2" d="M1901.81,841.26c-0.49,0-0.9-0.39-0.92-0.89c-0.02-0.51,0.38-0.94,0.89-0.96l12.58-0.44
								c0.54-0.01,0.94,0.38,0.96,0.89c0.02,0.51-0.38,0.94-0.89,0.96l-12.58,0.44C1901.83,841.26,1901.82,841.26,1901.81,841.26z"
								/>
							<path class="st2" d="M1901.92,844.4c-0.5,0-0.9-0.39-0.92-0.89c-0.02-0.51,0.38-0.94,0.89-0.96l12.58-0.44
								c0.52-0.02,0.94,0.38,0.96,0.89c0.02,0.51-0.38,0.94-0.89,0.96l-12.58,0.44C1901.94,844.4,1901.93,844.4,1901.92,844.4z"/>
						</g>
						<g>
							<path class="st2" d="M1928.02,840.33c-0.5,0-0.9-0.39-0.92-0.89c-0.02-0.51,0.38-0.94,0.89-0.96l13.63-0.48
								c0.53-0.01,0.94,0.38,0.96,0.89c0.02,0.51-0.38,0.94-0.89,0.96l-13.63,0.48C1928.04,840.33,1928.03,840.33,1928.02,840.33z"
								/>
							<path class="st2" d="M1928.13,843.48c-0.5,0-0.9-0.39-0.92-0.89c-0.02-0.51,0.38-0.94,0.89-0.96l13.63-0.48
								c0.53-0.01,0.94,0.38,0.96,0.89c0.02,0.51-0.38,0.94-0.89,0.96l-13.63,0.48C1928.15,843.48,1928.14,843.48,1928.13,843.48z"
								/>
						</g>
						<g>
							<g>
								<path class="st2" d="M1917.14,837.62c-0.41,0-0.78-0.27-0.89-0.68l-3.1-11.31c-0.14-0.49,0.15-1,0.65-1.14
									c0.49-0.14,1,0.15,1.14,0.65l3.1,11.31c0.14,0.49-0.15,1-0.65,1.14C1917.31,837.61,1917.22,837.62,1917.14,837.62z"/>
								<path class="st2" d="M1924.45,837.36c-0.06,0-0.13-0.01-0.19-0.02c-0.5-0.1-0.82-0.59-0.72-1.09l2.4-11.51
									c0.1-0.5,0.59-0.82,1.09-0.72c0.5,0.1,0.82,0.59,0.72,1.09l-2.4,11.51C1925.26,837.06,1924.88,837.36,1924.45,837.36z"/>
							</g>
							<g>
								<path class="st2" d="M1915.2,859.03c-0.06,0-0.12-0.01-0.18-0.02c-0.5-0.1-0.82-0.59-0.72-1.09l2.3-11.5
									c0.1-0.5,0.59-0.82,1.09-0.72c0.5,0.1,0.82,0.59,0.72,1.09l-2.3,11.5C1916.01,858.72,1915.63,859.03,1915.2,859.03z"/>
								<path class="st2" d="M1928,858.58c-0.4,0-0.77-0.27-0.89-0.67l-3.2-11.31c-0.14-0.49,0.15-1,0.64-1.14
									c0.49-0.14,1,0.15,1.14,0.64l3.21,11.31c0.14,0.49-0.15,1-0.64,1.14C1928.17,858.56,1928.09,858.58,1928,858.58z"/>
							</g>
						</g>
					</g>
				</g>
				<path class="st13" d="M1940.09,794.68c0.11,3.01-2.25,5.54-5.26,5.65l-34.18,1.21c-3.01,0.11-5.54-2.25-5.65-5.26l-0.02-0.63
					c-0.11-3.01,2.25-5.54,5.26-5.64l34.18-1.21c3.01-0.11,5.54,2.25,5.65,5.26L1940.09,794.68z"/>
				<g>
					<path class="st13" d="M1946.13,876.6c0.1,2.87-2.15,5.28-5.02,5.39l-37.82,1.34c-2.87,0.1-5.28-2.15-5.39-5.02l0-0.08
						c-0.1-2.87,2.15-5.28,5.02-5.39l37.82-1.34c2.87-0.1,5.28,2.15,5.39,5.02L1946.13,876.6z"/>
					<path class="st13" d="M2000.64,874.67c0.1,2.87-2.15,5.28-5.02,5.39l-37.82,1.34c-2.87,0.1-5.28-2.15-5.39-5.02l0-0.08
						c-0.1-2.87,2.15-5.28,5.02-5.39l37.82-1.34c2.87-0.1,5.28,2.15,5.39,5.02L2000.64,874.67z"/>
					<path class="st13" d="M2055.16,872.75c0.1,2.87-2.15,5.28-5.02,5.39l-37.82,1.34c-2.87,0.1-5.28-2.15-5.39-5.02l0-0.08
						c-0.1-2.87,2.15-5.28,5.02-5.39l37.82-1.34c2.87-0.1,5.28,2.15,5.39,5.02L2055.16,872.75z"/>
					<path class="st13" d="M2110.72,870.79c0.1,2.87-2.15,5.28-5.02,5.39l-37.82,1.34c-2.87,0.1-5.28-2.15-5.39-5.02l0-0.08
						c-0.1-2.87,2.15-5.28,5.02-5.39l37.82-1.34c2.87-0.1,5.28,2.15,5.39,5.02L2110.72,870.79z"/>
				</g>
				<g class="st41">
					<g>
						<path class="st13" d="M1982.59,898.42c0.08,2.28-1.71,4.2-3.99,4.28l-70.36,2.48c-2.28,0.08-4.2-1.71-4.28-3.99l0-0.11
							c-0.08-2.28,1.71-4.2,3.99-4.28l70.36-2.48c2.28-0.08,4.2,1.71,4.28,3.99L1982.59,898.42z"/>
					</g>
					<g>
						<path class="st13" d="M2105.17,891.99c0.08,2.28-1.71,4.2-3.99,4.28l-30.52,1.08c-2.28,0.08-4.2-1.71-4.28-3.99l0-0.11
							c-0.08-2.28,1.71-4.2,3.99-4.28l30.52-1.08c2.28-0.08,4.2,1.71,4.28,3.99L2105.17,891.99z"/>
					</g>
				</g>
			</g>
			<g>
				<g>
					<linearGradient id="SVGID_28_" gradientUnits="userSpaceOnUse" x1="1970.5387" y1="659.3375" x2="1820.3431" y2="886.2402">
						<stop  offset="0" style="stop-color:#FE7062"/>
						<stop  offset="1" style="stop-color:#FF928E"/>
					</linearGradient>
					<circle class="st42" cx="1942.86" cy="701.15" r="36.61"/>
					<path class="st43" d="M1912.68,687.36c-0.22,0-0.43-0.05-0.64-0.15c-0.7-0.35-0.98-1.21-0.63-1.91
						c6.03-11.95,18.08-19.37,31.46-19.37c2.14,0,4.27,0.19,6.35,0.57c0.77,0.14,1.29,0.88,1.14,1.65
						c-0.14,0.77-0.88,1.28-1.65,1.14c-1.91-0.35-3.88-0.52-5.84-0.52c-12.29,0-23.37,6.82-28.92,17.81
						C1913.7,687.08,1913.2,687.36,1912.68,687.36z"/>
					
						<ellipse transform="matrix(0.7071 -0.7071 0.7071 0.7071 72.9353 1579.9707)" class="st43" cx="1943.66" cy="701.94" rx="30.98" ry="30.98"/>
					<g>
						<linearGradient id="SVGID_29_" gradientUnits="userSpaceOnUse" x1="1966.0582" y1="665.839" x2="1886.0822" y2="800.1055">
							<stop  offset="0" style="stop-color:#FE7062"/>
							<stop  offset="1" style="stop-color:#FF928E"/>
						</linearGradient>
						<path class="st44" d="M1940.62,724.98v-3.37c-3.51-0.14-6.99-0.97-9.46-2.05c-0.88-0.39-1.33-1.38-1.08-2.3l0.86-3.14
							c0.31-1.15,1.57-1.75,2.67-1.29c2.45,1.03,5.47,1.84,8.73,1.84c3.38,0,5.91-1.15,5.91-3.5c0-2.12-1.95-3.38-6.65-4.65
							c-6.71-1.84-11.53-4.76-11.53-10.67c0-5.34,3.9-9.41,10.67-10.5v-3.37c0-1.08,0.88-1.96,1.96-1.96h1.98
							c1.08,0,1.96,0.88,1.96,1.96v3.03c3.25,0.13,5.62,0.69,7.5,1.35c0.96,0.34,1.49,1.38,1.22,2.36l-0.79,2.9
							c-0.3,1.12-1.5,1.73-2.59,1.32c-1.73-0.65-4.17-1.34-7.35-1.34c-4.02,0-5.16,1.66-5.16,3.16c0,1.84,2.41,3.1,7.63,4.7
							c7.46,2.24,10.56,5.34,10.56,10.9c0,5.11-3.79,9.7-11.13,10.84v3.77c0,1.08-0.88,1.96-1.96,1.96h-1.98
							C1941.5,726.94,1940.62,726.06,1940.62,724.98z"/>
					</g>
				</g>
				<g>
					<linearGradient id="SVGID_30_" gradientUnits="userSpaceOnUse" x1="2098.833" y1="583.4572" x2="1837.3685" y2="978.4554">
						<stop  offset="0" style="stop-color:#FE7062"/>
						<stop  offset="1" style="stop-color:#FF928E"/>
					</linearGradient>
					<circle class="st45" cx="2050.66" cy="656.24" r="63.73"/>
					<path class="st43" d="M1998.1,631.19c-0.22,0-0.43-0.05-0.64-0.15c-0.7-0.35-0.98-1.21-0.63-1.91
						c10.32-20.44,30.94-33.14,53.82-33.14c3.65,0,7.31,0.33,10.87,0.98c0.77,0.14,1.29,0.88,1.14,1.65
						c-0.14,0.77-0.88,1.28-1.65,1.14c-3.39-0.62-6.88-0.93-10.36-0.93c-21.8,0-41.45,12.1-51.28,31.58
						C1999.12,630.9,1998.62,631.19,1998.1,631.19z"/>
					
						<ellipse transform="matrix(0.9184 -0.3956 0.3956 0.9184 -92.7613 865.4028)" class="st43" cx="2052.04" cy="657.63" rx="53.94" ry="53.94"/>
					<g>
						<linearGradient id="SVGID_31_" gradientUnits="userSpaceOnUse" x1="2091.0332" y1="594.7751" x2="1951.8087" y2="828.5098">
							<stop  offset="0" style="stop-color:#FE7062"/>
							<stop  offset="1" style="stop-color:#FF928E"/>
						</linearGradient>
						<path class="st46" d="M2046.75,697.73v-5.87c-6.12-0.24-12.17-1.69-16.47-3.57c-1.53-0.67-2.32-2.39-1.88-4.01l1.49-5.47
							c0.55-2.01,2.73-3.04,4.64-2.24c4.26,1.79,9.53,3.2,15.2,3.2c5.89,0,10.29-2,10.29-6.09c0-3.7-3.4-5.89-11.58-8.09
							c-11.68-3.2-20.07-8.29-20.07-18.58c0-9.29,6.79-16.38,18.58-18.28v-5.87c0-1.89,1.53-3.42,3.42-3.42h3.45
							c1.89,0,3.42,1.53,3.42,3.42v5.27c5.66,0.23,9.78,1.19,13.05,2.34c1.68,0.59,2.59,2.39,2.13,4.11l-1.37,5.06
							c-0.53,1.95-2.61,3.02-4.5,2.3c-3.01-1.14-7.27-2.32-12.8-2.32c-6.99,0-8.99,2.9-8.99,5.49c0,3.2,4.19,5.39,13.28,8.19
							c12.98,3.89,18.38,9.29,18.38,18.97c0,8.89-6.59,16.88-19.37,18.88v6.57c0,1.89-1.53,3.42-3.42,3.42h-3.45
							C2048.28,701.15,2046.75,699.62,2046.75,697.73z"/>
					</g>
				</g>
				<g>
					<linearGradient id="SVGID_32_" gradientUnits="userSpaceOnUse" x1="2145.6931" y1="728.5863" x2="1876.6493" y2="1135.0348">
						<stop  offset="0" style="stop-color:#FE7062"/>
						<stop  offset="1" style="stop-color:#FF928E"/>
					</linearGradient>
					<circle class="st47" cx="2096.12" cy="803.48" r="65.58"/>
					<path class="st43" d="M2042.04,777.66c-0.22,0-0.43-0.05-0.64-0.15c-0.7-0.35-0.98-1.21-0.63-1.91
						c10.61-21.02,31.82-34.07,55.34-34.07c3.75,0,7.51,0.34,11.18,1c0.77,0.14,1.28,0.88,1.14,1.65c-0.14,0.77-0.88,1.28-1.65,1.14
						c-3.49-0.64-7.08-0.96-10.67-0.96c-22.45,0-42.68,12.46-52.8,32.51C2043.06,777.37,2042.56,777.66,2042.04,777.66z"/>
					
						<ellipse transform="matrix(0.3892 -0.9211 0.9211 0.3892 539.6644 2423.7295)" class="st43" cx="2097.55" cy="804.91" rx="55.5" ry="55.5"/>
					<g>
						<linearGradient id="SVGID_33_" gradientUnits="userSpaceOnUse" x1="2137.6672" y1="740.2324" x2="1994.4067" y2="980.743">
							<stop  offset="0" style="stop-color:#FE7062"/>
							<stop  offset="1" style="stop-color:#FF928E"/>
						</linearGradient>
						<path class="st48" d="M2092.1,846.17v-6.04c-6.29-0.25-12.52-1.74-16.94-3.67c-1.58-0.69-2.38-2.46-1.93-4.13l1.53-5.62
							c0.56-2.06,2.81-3.13,4.78-2.3c4.39,1.84,9.8,3.29,15.64,3.29c6.06,0,10.58-2.06,10.58-6.27c0-3.8-3.49-6.06-11.92-8.32
							c-12.02-3.29-20.66-8.53-20.66-19.11c0-9.56,6.99-16.85,19.11-18.81v-6.04c0-1.94,1.58-3.52,3.52-3.52h3.55
							c1.94,0,3.52,1.58,3.52,3.52v5.42c5.82,0.23,10.06,1.23,13.43,2.41c1.72,0.61,2.67,2.46,2.19,4.23l-1.41,5.2
							c-0.54,2.01-2.69,3.1-4.63,2.37c-3.1-1.17-7.48-2.39-13.17-2.39c-7.19,0-9.25,2.98-9.25,5.65c0,3.29,4.32,5.55,13.67,8.43
							c13.36,4.01,18.91,9.56,18.91,19.53c0,9.15-6.78,17.37-19.94,19.42v6.76c0,1.94-1.58,3.52-3.52,3.52h-3.55
							C2093.68,849.69,2092.1,848.11,2092.1,846.17z"/>
					</g>
				</g>
				<g>
					<linearGradient id="SVGID_34_" gradientUnits="userSpaceOnUse" x1="2219.4614" y1="656.2049" x2="2022.335" y2="954.0066">
						<stop  offset="0" style="stop-color:#FE7062"/>
						<stop  offset="1" style="stop-color:#FF928E"/>
					</linearGradient>
					<circle class="st49" cx="2183.14" cy="711.08" r="48.05"/>
					<path class="st43" d="M2143.52,692.54c-0.22,0-0.43-0.05-0.64-0.15c-0.7-0.35-0.98-1.21-0.63-1.91
						c7.84-15.53,23.51-25.18,40.89-25.18c2.78,0,5.55,0.25,8.26,0.74c0.77,0.14,1.28,0.88,1.14,1.65
						c-0.14,0.77-0.88,1.29-1.65,1.14c-2.53-0.46-5.14-0.7-7.75-0.7c-16.3,0-31,9.05-38.35,23.61
						C2144.54,692.26,2144.04,692.54,2143.52,692.54z"/>
					
						<ellipse transform="matrix(0.9737 -0.2278 0.2278 0.9737 -104.7892 516.2091)" class="st43" cx="2184.19" cy="712.13" rx="40.67" ry="40.67"/>
					<g>
						<linearGradient id="SVGID_35_" gradientUnits="userSpaceOnUse" x1="2213.5808" y1="664.7378" x2="2108.6152" y2="840.9577">
							<stop  offset="0" style="stop-color:#FE7062"/>
							<stop  offset="1" style="stop-color:#FF928E"/>
						</linearGradient>
						<path class="st50" d="M2180.19,742.36v-4.42c-4.61-0.18-9.17-1.27-12.41-2.69c-1.16-0.51-1.75-1.8-1.41-3.02l1.12-4.12
							c0.41-1.51,2.06-2.29,3.5-1.69c3.21,1.35,7.18,2.41,11.46,2.41c4.44,0,7.76-1.51,7.76-4.59c0-2.79-2.56-4.44-8.73-6.1
							c-8.81-2.41-15.13-6.25-15.13-14c0-7,5.12-12.35,14-13.78v-4.42c0-1.42,1.15-2.58,2.58-2.58h2.6c1.42,0,2.58,1.15,2.58,2.58
							v3.97c4.27,0.17,7.37,0.9,9.84,1.77c1.26,0.44,1.95,1.8,1.6,3.1l-1.03,3.81c-0.4,1.47-1.97,2.27-3.39,1.74
							c-2.27-0.86-5.48-1.75-9.65-1.75c-5.27,0-6.78,2.18-6.78,4.14c0,2.41,3.16,4.07,10.01,6.17c9.79,2.94,13.85,7,13.85,14.31
							c0,6.7-4.97,12.72-14.61,14.23v4.95c0,1.42-1.15,2.58-2.58,2.58h-2.6C2181.35,744.93,2180.19,743.78,2180.19,742.36z"/>
					</g>
				</g>
			</g>
		</g>
		<linearGradient id="SVGID_36_" gradientUnits="userSpaceOnUse" x1="869.3349" y1="1278.4805" x2="1055.6078" y2="1278.4805">
			<stop  offset="0" style="stop-color:#4042E2"/>
			<stop  offset="1" style="stop-color:#4F52FF"/>
		</linearGradient>
		<path class="st51" d="M917.58,1374c-3.12,0-6.29-1.51-9.65-4.6c-13.21-12.14-16.26-31.13-17.02-48.91
			c-6.37,7.18-12.92,14.16-19.39,21.05l-2.19-2.05c7.16-7.64,14.43-15.37,21.43-23.38c-0.59-23.86,0.5-47.98,3.25-71.68
			c1.67-14.43,4.08-29.71,10.32-43.61c1.97-4.38,5.22-10.65,10.78-14.53c5.71-3.99,13.16-4.44,18.14-1.1
			c5.62,3.78,7.15,11.05,7.81,16.19c3.97,30.89-8.1,59.24-18.92,77.58c-8.1,13.73-17.93,26.3-28.35,38.25
			c0.52,18.03,2.97,37.86,16.16,49.98c2.88,2.65,5.46,3.89,7.86,3.8c3.98-0.14,7.09-3.84,9.6-7.43
			c10.96-15.7,19.49-32.74,25.45-50.8c0.68-5.35,2.17-10.6,4.44-15.49l2.82,0.99c-1.25,5.13-2.69,10.19-4.32,15.17
			c-0.63,5.2-0.44,10.49,0.59,15.63c0.56,2.8,2.93,12.03,9.94,13.36c5.27,1.01,10.46-2.68,16.33-11.61l20.51-31.17l-1.9,8.17
			c-1.07,4.6-2.83,15.61,3.88,18.37c3.85,1.59,7.9-0.69,12.18-3.1c4.15-2.34,8.43-4.75,13.18-4.12l1.55,0.21l-0.27,1.54
			c-1.1,6.39-0.55,14.26,4.65,15.41c3.4,0.75,6.18-1.81,9.39-4.78c2.7-2.5,5.5-5.08,9.07-5.95l0.71,2.92
			c-2.82,0.68-5.32,3-7.74,5.24c-3.51,3.24-7.13,6.6-12.07,5.51c-6.75-1.49-8.17-9.56-7.21-17.17c-3.22,0.14-6.42,1.94-9.78,3.83
			c-4.71,2.65-9.59,5.4-14.79,3.26c-4.87-2-7.19-7.31-6.72-14.93l-12.13,18.44c-4.17,6.33-10.71,14.56-19.4,12.91
			c-5.97-1.14-10.57-7.01-12.32-15.72c-0.47-2.32-0.77-4.67-0.91-7.04c-5.77,15.05-13.35,29.33-22.66,42.67
			c-2.93,4.2-6.65,8.52-11.95,8.71C917.82,1374,917.7,1374,917.58,1374z M925.47,1185.94c-2.89,0-5.98,0.95-8.63,2.81
			c-4.95,3.46-7.94,9.25-9.76,13.3c-6.08,13.53-8.43,28.53-10.08,42.73c-2.6,22.47-3.71,45.32-3.3,67.96
			c9.51-11.09,18.44-22.73,25.87-35.31c10.59-17.93,22.39-45.62,18.53-75.67c-0.93-7.25-3-11.72-6.51-14.08
			C929.85,1186.52,927.72,1185.94,925.47,1185.94z"/>
		<g>
			<path class="st2" d="M855.35,200.48l-5.88,4.75c-1.09,0.88-2.69,0.72-3.57-0.37c-0.88-1.09-0.72-2.69,0.37-3.57l0.01-0.01
				l5.92-4.72c1.09-0.87,2.67-0.69,3.54,0.4C856.6,198.02,856.43,199.6,855.35,200.48z"/>
			<path class="st2" d="M835.8,216.35l-5.83,4.8c-1.11,0.92-2.75,0.76-3.67-0.34c-0.92-1.11-0.76-2.75,0.34-3.67l0.02-0.01
				l5.87-4.78c1.11-0.9,2.74-0.73,3.64,0.37C837.06,213.82,836.89,215.45,835.8,216.35z"/>
			<path class="st2" d="M816.43,232.43l-5.77,4.87c-1.12,0.96-2.8,0.82-3.76-0.3c-0.96-1.12-0.82-2.8,0.3-3.76l0.02-0.02l5.81-4.86
				c1.12-0.94,2.79-0.79,3.73,0.33C817.69,229.82,817.54,231.49,816.43,232.43z"/>
			<path class="st2" d="M797.3,248.77l-5.68,4.96l-0.01,0.01c-1.14,0.99-2.86,0.88-3.85-0.26c-0.99-1.14-0.88-2.86,0.26-3.85
				l0.01-0.01l5.73-4.95c1.13-0.98,2.85-0.85,3.83,0.28c0.98,1.13,0.86,2.83-0.27,3.82L797.3,248.77z"/>
			<path class="st2" d="M778.46,265.44l-5.58,5.07l-0.01,0.01c-1.14,1.04-2.91,0.95-3.95-0.19c-1.04-1.14-0.95-2.91,0.19-3.95
				l0.01-0.01l5.64-5.07c1.14-1.03,2.89-0.93,3.92,0.21c1.02,1.14,0.93,2.88-0.2,3.91L778.46,265.44z"/>
			<path class="st2" d="M759.99,282.5l-5.47,5.21l-0.02,0.02c-1.14,1.09-2.95,1.05-4.04-0.1c-1.09-1.14-1.04-2.95,0.1-4.04
				l0.01-0.01l5.53-5.21c1.14-1.08,2.94-1.02,4.01,0.12c1.07,1.14,1.02,2.93-0.11,4L759.99,282.5z"/>
			<path class="st2" d="M741.94,300l-5.32,5.35l-0.02,0.02c-1.14,1.14-2.99,1.15-4.13,0.01c-1.14-1.14-1.15-2.99-0.01-4.13
				l0.01-0.01l5.38-5.35c1.14-1.13,2.98-1.13,4.11,0.01c1.13,1.13,1.13,2.96,0,4.1L741.94,300z"/>
			<path class="st2" d="M724.41,317.99l-5.15,5.5l-0.02,0.02c-1.13,1.2-3.02,1.27-4.22,0.14c-1.2-1.13-1.27-3.02-0.14-4.22
				l0.01-0.01l5.21-5.51c1.13-1.19,3-1.24,4.2-0.12c1.19,1.12,1.24,2.99,0.13,4.18L724.41,317.99z"/>
			<path class="st2" d="M707.47,336.51l-4.95,5.67l-0.02,0.02c-1.11,1.27-3.04,1.4-4.31,0.29c-1.27-1.11-1.4-3.04-0.29-4.31
				l0.01-0.01l5.02-5.69c1.11-1.26,3.02-1.37,4.28-0.27c1.25,1.1,1.37,3.01,0.28,4.27L707.47,336.51z"/>
			<path class="st2" d="M691.22,355.6l-4.73,5.84l-0.02,0.03c-1.08,1.34-3.04,1.54-4.38,0.46c-1.34-1.08-1.54-3.04-0.46-4.38
				l0.01-0.01l4.81-5.88c1.08-1.32,3.03-1.52,4.36-0.44c1.32,1.08,1.52,3.02,0.45,4.34L691.22,355.6z"/>
			<path class="st2" d="M675.71,375.31l-4.49,6.04l-0.03,0.03c-1.05,1.41-3.04,1.7-4.45,0.65c-1.41-1.05-1.7-3.04-0.65-4.45
				l0.01-0.01l4.57-6.09c1.05-1.4,3.03-1.68,4.42-0.63c1.39,1.05,1.67,3.02,0.64,4.41L675.71,375.31z"/>
			<path class="st2" d="M661.08,395.66l-4.2,6.23l-0.03,0.04c-1,1.49-3.02,1.88-4.5,0.88c-1.49-1-1.88-3.02-0.88-4.5l0.01-0.01
				l4.29-6.29c1-1.47,3.01-1.85,4.48-0.85c1.47,1,1.85,3,0.86,4.47L661.08,395.66z"/>
			<path class="st2" d="M647.42,416.66l-3.9,6.42l-0.03,0.04c-0.95,1.56-2.98,2.06-4.54,1.11c-1.56-0.95-2.06-2.98-1.11-4.54
				l0.01-0.01l3.98-6.49c0.95-1.55,2.97-2.03,4.52-1.08c1.54,0.95,2.03,2.96,1.09,4.51L647.42,416.66z"/>
			<path class="st2" d="M634.82,438.29l-3.56,6.61l-0.03,0.05c-0.88,1.64-2.93,2.25-4.57,1.37c-1.64-0.88-2.25-2.93-1.37-4.57
				l0.01-0.01l3.65-6.68c0.89-1.62,2.92-2.22,4.55-1.34c1.62,0.88,2.22,2.91,1.35,4.53L634.82,438.29z"/>
			<path class="st2" d="M623.36,460.54l-3.2,6.79l-0.02,0.05c-0.81,1.72-2.85,2.45-4.57,1.64c-1.72-0.81-2.45-2.86-1.64-4.57
				l0.01-0.02l3.28-6.88c0.81-1.7,2.85-2.42,4.55-1.61c1.7,0.81,2.42,2.84,1.62,4.54L623.36,460.54z"/>
			<path class="st2" d="M613.16,483.37l-2.8,6.96l-0.02,0.06c-0.72,1.79-2.76,2.66-4.55,1.94c-1.79-0.72-2.66-2.76-1.94-4.55
				l0.01-0.02l2.88-7.06c0.73-1.78,2.76-2.63,4.54-1.91c1.77,0.72,2.63,2.74,1.91,4.52L613.16,483.37z"/>
			<path class="st2" d="M604.3,506.73l-2.38,7.12l-0.02,0.06c-0.62,1.85-2.62,2.84-4.46,2.22c-1.85-0.62-2.84-2.62-2.22-4.46l0-0.01
				l2.44-7.24c0.62-1.84,2.62-2.83,4.46-2.21c1.84,0.62,2.83,2.62,2.21,4.46L604.3,506.73z"/>
			<path class="st2" d="M596.91,530.6l-1.91,7.24l-0.02,0.07c-0.5,1.89-2.44,3.03-4.33,2.53c-1.89-0.5-3.03-2.44-2.53-4.33l0-0.01
				l1.96-7.37c0.5-1.89,2.44-3.02,4.33-2.51c1.89,0.5,3.02,2.44,2.51,4.33L596.91,530.6z"/>
			<path class="st2" d="M591.13,554.88l-1.4,7.34l-0.01,0.08c-0.37,1.94-2.24,3.21-4.17,2.84c-1.94-0.37-3.21-2.24-2.84-4.17l0-0.01
				l1.44-7.49c0.37-1.93,2.24-3.2,4.17-2.83c1.93,0.37,3.2,2.24,2.83,4.17L591.13,554.88z"/>
			<path class="st2" d="M587.09,579.48l-0.86,7.42l-0.01,0.08c-0.23,1.97-2.01,3.38-3.98,3.16c-1.97-0.23-3.38-2.01-3.16-3.98
				l0-0.01l0.89-7.58c0.23-1.97,2.01-3.37,3.98-3.14c1.97,0.23,3.37,2.01,3.14,3.98L587.09,579.48z"/>
			<path class="st2" d="M584.9,604.3l-0.27,7.46l0,0.09c-0.07,1.99-1.75,3.55-3.74,3.48c-1.99-0.07-3.55-1.75-3.48-3.74l0-0.01
				l0.29-7.65c0.08-1.99,1.75-3.54,3.74-3.47c1.99,0.08,3.54,1.75,3.47,3.74L584.9,604.3z"/>
			<path class="st2" d="M584.73,629.19l0.36,7.46l0,0.09c0.1,2.01-1.45,3.71-3.46,3.81c-2.01,0.1-3.71-1.45-3.81-3.46l0-0.01
				l-0.36-7.64c-0.09-2,1.45-3.7,3.46-3.79c2-0.09,3.7,1.45,3.79,3.46L584.73,629.19z"/>
			<path class="st2" d="M586.66,654.01l0.98,7.4l0.01,0.09c0.27,2-1.14,3.84-3.14,4.11c-2,0.27-3.84-1.14-4.11-3.14l0-0.01l-1-7.59
				c-0.26-2,1.15-3.83,3.15-4.09c2-0.26,3.83,1.15,4.09,3.14L586.66,654.01z"/>
			<path class="st2" d="M590.67,678.58l1.61,7.29l0.02,0.09c0.44,1.98-0.82,3.95-2.8,4.38c-1.98,0.44-3.95-0.82-4.38-2.8l0-0.01
				l-1.63-7.48c-0.43-1.98,0.82-3.94,2.8-4.37c1.98-0.43,3.94,0.82,4.37,2.8L590.67,678.58z"/>
			<path class="st2" d="M596.76,702.7l2.23,7.12l0.03,0.09c0.61,1.95-0.47,4.03-2.42,4.64c-1.95,0.61-4.03-0.47-4.64-2.42l0-0.01
				l-2.28-7.31c-0.61-1.95,0.48-4.02,2.43-4.63c1.95-0.61,4.02,0.48,4.63,2.43L596.76,702.7z"/>
			<path class="st2" d="M604.93,726.19l2.86,6.89l0.04,0.1c0.79,1.9-0.11,4.08-2.01,4.87c-1.9,0.79-4.08-0.11-4.87-2.01l0-0.01
				l-2.93-7.08c-0.78-1.9,0.12-4.07,2.01-4.85c1.9-0.78,4.07,0.12,4.85,2.01L604.93,726.19z"/>
			<path class="st2" d="M615.21,748.81l3.5,6.58l0.05,0.1c0.97,1.83,0.28,4.09-1.55,5.06c-1.83,0.97-4.09,0.27-5.06-1.55l0-0.01
				l-3.59-6.78c-0.96-1.83-0.27-4.09,1.56-5.05c1.83-0.97,4.09-0.27,5.05,1.56L615.21,748.81z"/>
			<path class="st2" d="M627.6,770.33l4.12,6.19l0.06,0.1c1.15,1.73,0.68,4.07-1.05,5.22c-1.73,1.15-4.07,0.68-5.22-1.05l0-0.01
				l-4.24-6.39c-1.15-1.73-0.68-4.06,1.05-5.21c1.73-1.15,4.06-0.68,5.21,1.05L627.6,770.33z"/>
			<path class="st2" d="M642.09,790.46l4.75,5.72l0.08,0.09c1.34,1.61,1.11,4-0.5,5.34c-1.61,1.34-4,1.11-5.34-0.5l0,0l-4.9-5.92
				c-1.33-1.61-1.11-3.99,0.5-5.33c1.61-1.33,3.99-1.11,5.33,0.5L642.09,790.46z"/>
			<path class="st2" d="M658.64,808.9l5.35,5.16l0.09,0.09c1.52,1.46,1.56,3.87,0.1,5.39c-1.46,1.52-3.87,1.56-5.39,0.1l-0.01,0
				l-5.53-5.35c-1.51-1.46-1.55-3.87-0.09-5.38c1.46-1.51,3.87-1.55,5.38-0.09L658.64,808.9z"/>
			<path class="st2" d="M677.13,825.36l5.9,4.5l0.11,0.08c1.68,1.28,2,3.69,0.72,5.37c-1.29,1.68-3.69,2-5.37,0.72l-0.01,0
				l-6.1-4.68c-1.68-1.29-1.99-3.69-0.71-5.36c1.29-1.68,3.69-1.99,5.36-0.71L677.13,825.36z"/>
			<path class="st2" d="M697.38,839.59l6.38,3.82l0.11,0.07c1.83,1.09,2.42,3.46,1.33,5.29c-1.09,1.83-3.46,2.42-5.29,1.33l-0.01,0
				l-6.59-3.96c-1.82-1.09-2.41-3.46-1.32-5.28c1.09-1.82,3.46-2.41,5.28-1.32L697.38,839.59z"/>
			<path class="st2" d="M719.11,851.49l6.76,3.11l0.11,0.05c1.95,0.9,2.8,3.2,1.9,5.14c-0.9,1.95-3.2,2.8-5.14,1.9l-0.01,0
				l-6.97-3.22c-1.94-0.9-2.79-3.2-1.89-5.14c0.9-1.94,3.2-2.79,5.14-1.89L719.11,851.49z"/>
			<path class="st2" d="M742,861.04l7.05,2.41l0.11,0.04c2.04,0.7,3.13,2.91,2.43,4.95c-0.7,2.04-2.91,3.13-4.95,2.43l-0.01,0
				l-7.26-2.49c-2.03-0.7-3.12-2.91-2.42-4.95c0.7-2.03,2.91-3.12,4.95-2.42L742,861.04z"/>
			<path class="st2" d="M765.74,868.24l7.25,1.71l0.11,0.03c2.11,0.5,3.41,2.61,2.92,4.72c-0.5,2.11-2.61,3.41-4.72,2.92l-0.01,0
				l-7.46-1.78c-2.1-0.5-3.4-2.61-2.9-4.71c0.5-2.1,2.61-3.4,4.71-2.9L765.74,868.24z"/>
			<path class="st2" d="M790.09,873.16l7.38,1.03l0.11,0.01c2.16,0.3,3.66,2.3,3.36,4.45c-0.3,2.16-2.3,3.66-4.45,3.36l-0.01,0
				l-7.59-1.08c-2.15-0.3-3.65-2.3-3.34-4.45c0.3-2.15,2.3-3.65,4.45-3.34L790.09,873.16z"/>
			<path class="st2" d="M814.79,875.83l7.45,0.37l0.1,0.01c2.19,0.11,3.87,1.97,3.76,4.16c-0.11,2.19-1.97,3.87-4.16,3.76l-0.01,0
				l-7.66-0.4c-2.18-0.11-3.86-1.97-3.75-4.16c0.11-2.18,1.97-3.86,4.16-3.75L814.79,875.83z"/>
			<path class="st2" d="M839.64,876.31l7.46-0.28l0.1,0c2.2-0.08,4.05,1.64,4.13,3.84c0.08,2.2-1.64,4.05-3.84,4.13l-0.01,0
				l-7.67,0.27c-2.2,0.08-4.04-1.64-4.12-3.84c-0.08-2.2,1.64-4.04,3.84-4.12L839.64,876.31z"/>
			<path class="st2" d="M864.45,874.63l7.4-0.92l0.1-0.01c2.2-0.27,4.2,1.29,4.47,3.49c0.27,2.2-1.29,4.2-3.49,4.47l-0.01,0
				l-7.61,0.93c-2.19,0.27-4.19-1.29-4.46-3.49c-0.27-2.19,1.29-4.19,3.49-4.46L864.45,874.63z"/>
			<path class="st2" d="M889.01,870.84l7.3-1.55l0.1-0.02c2.18-0.46,4.32,0.93,4.78,3.1c0.46,2.18-0.93,4.32-3.1,4.78l-0.01,0
				l-7.51,1.58c-2.17,0.46-4.31-0.93-4.77-3.11c-0.46-2.18,0.93-4.31,3.11-4.77L889.01,870.84z"/>
			<path class="st2" d="M913.16,864.94l7.15-2.15l0.09-0.03c2.14-0.65,4.41,0.57,5.05,2.71c0.64,2.14-0.57,4.4-2.71,5.05l-0.01,0
				l-7.34,2.19c-2.14,0.64-4.4-0.58-5.04-2.72c-0.64-2.14,0.58-4.4,2.72-5.04L913.16,864.94z"/>
			<path class="st2" d="M936.79,857.13l6.97-2.69l0.08-0.03c2.1-0.81,4.46,0.23,5.27,2.33c0.81,2.1-0.23,4.46-2.33,5.27l-0.01,0
				l-7.14,2.75c-2.1,0.81-4.45-0.24-5.26-2.34c-0.81-2.1,0.24-4.45,2.34-5.26L936.79,857.13z"/>
			<path class="st2" d="M959.77,847.55l6.76-3.2l0.08-0.04c2.05-0.97,4.49-0.09,5.46,1.95c0.97,2.05,0.09,4.49-1.95,5.46l-0.01,0
				l-6.92,3.26c-2.04,0.96-4.48,0.09-5.44-1.96c-0.96-2.04-0.09-4.48,1.96-5.44L959.77,847.55z"/>
			<path class="st2" d="M982.03,836.35l6.52-3.66l0.07-0.04c1.98-1.11,4.5-0.41,5.61,1.58c1.11,1.98,0.4,4.5-1.58,5.61l-0.01,0
				l-6.67,3.73c-1.98,1.11-4.49,0.4-5.6-1.59c-1.11-1.98-0.4-4.49,1.59-5.6L982.03,836.35z"/>
			<path class="st2" d="M1003.49,823.66l6.28-4.07l0.07-0.04c1.92-1.25,4.48-0.7,5.73,1.22c1.25,1.92,0.7,4.48-1.22,5.73l-0.01,0
				l-6.41,4.15c-1.92,1.24-4.48,0.69-5.72-1.23c-1.24-1.92-0.69-4.48,1.23-5.72L1003.49,823.66z"/>
			<path class="st2" d="M1024.11,809.63l6.01-4.45l0.06-0.04c1.85-1.37,4.46-0.98,5.82,0.87c1.37,1.85,0.98,4.46-0.87,5.82l-0.01,0
				l-6.14,4.53c-1.85,1.36-4.45,0.97-5.81-0.88c-1.36-1.85-0.97-4.45,0.88-5.81L1024.11,809.63z"/>
			<path class="st2" d="M1043.86,794.38l5.76-4.8l0.05-0.04c1.78-1.48,4.42-1.24,5.9,0.53c1.48,1.78,1.24,4.42-0.53,5.9l-0.01,0
				l-5.87,4.88c-1.78,1.48-4.41,1.23-5.89-0.54c-1.48-1.78-1.23-4.41,0.54-5.89L1043.86,794.38z"/>
			<path class="st2" d="M1062.72,778.01l5.49-5.12l0.05-0.05c1.7-1.58,4.36-1.49,5.95,0.21c1.58,1.7,1.49,4.36-0.21,5.95l-0.01,0.01
				l-5.6,5.2c-1.7,1.58-4.36,1.48-5.94-0.22c-1.58-1.7-1.48-4.36,0.22-5.94L1062.72,778.01z"/>
			<path class="st2" d="M1080.69,760.64l5.22-5.4l0.05-0.05c1.62-1.68,4.3-1.73,5.98-0.1c1.68,1.62,1.73,4.3,0.1,5.98l0,0.01
				l-5.32,5.48c-1.62,1.67-4.3,1.72-5.97,0.09c-1.68-1.62-1.72-4.3-0.09-5.97L1080.69,760.64z"/>
			<path class="st2" d="M1097.74,742.35l4.93-5.65l0.05-0.05c1.54-1.77,4.23-1.95,6-0.41c1.77,1.54,1.95,4.23,0.41,6l0,0.01
				l-5.03,5.74c-1.54,1.76-4.23,1.94-5.99,0.4c-1.76-1.54-1.94-4.23-0.4-5.99L1097.74,742.35z"/>
			<path class="st2" d="M1113.71,723.2l4.52-5.94l0.06-0.08c1.43-1.88,4.11-2.24,5.99-0.81c1.88,1.43,2.24,4.11,0.81,5.99l0,0.01
				l-4.65,6.08c-1.43,1.87-4.11,2.23-5.98,0.8c-1.87-1.43-2.23-4.11-0.8-5.98L1113.71,723.2z"/>
			<path class="st2" d="M1128.21,703.01l4-6.28l0.06-0.1c1.28-2,3.93-2.59,5.93-1.31c2,1.28,2.59,3.93,1.31,5.93l0,0.01l-4.14,6.47
				c-1.28,2-3.93,2.58-5.93,1.3c-1.99-1.28-2.58-3.93-1.3-5.93L1128.21,703.01z"/>
			<path class="st2" d="M1140.82,681.69l3.32-6.63l0.07-0.13c1.07-2.13,3.66-2.99,5.8-1.92c2.13,1.07,2.99,3.66,1.92,5.8l0,0.01
				l-3.47,6.89c-1.07,2.13-3.66,2.98-5.79,1.91c-2.13-1.07-2.98-3.66-1.91-5.79L1140.82,681.69z"/>
			<path class="st2" d="M1150.91,659.2l2.43-6.96l0.06-0.18c0.79-2.26,3.26-3.46,5.53-2.67c2.26,0.79,3.46,3.26,2.67,5.53l0,0.01
				l-2.56,7.31c-0.79,2.26-3.26,3.45-5.52,2.66c-2.26-0.79-3.45-3.26-2.66-5.52L1150.91,659.2z"/>
			<path class="st2" d="M1157.72,635.66l1.26-7.22l0.04-0.23c0.42-2.37,2.68-3.96,5.05-3.54c2.37,0.42,3.96,2.68,3.54,5.05l0,0.01
				l-1.36,7.68c-0.42,2.37-2.68,3.95-5.05,3.53c-2.37-0.42-3.95-2.68-3.53-5.05L1157.72,635.66z"/>
			<path class="st2" d="M1160.33,611.46l-0.15-7.29l-0.01-0.27c-0.05-2.42,1.87-4.42,4.29-4.47c2.42-0.05,4.42,1.87,4.47,4.29
				l0,0.01l0.15,7.83c0.05,2.42-1.87,4.41-4.29,4.46c-2.42,0.05-4.41-1.87-4.46-4.29L1160.33,611.46z"/>
			<path class="st2" d="M1158.03,587.34l-1.72-7.05l-0.07-0.3c-0.58-2.36,0.87-4.75,3.23-5.32c2.36-0.58,4.75,0.87,5.32,3.23l0,0.01
				l1.86,7.64c0.57,2.36-0.88,4.74-3.24,5.31c-2.36,0.57-4.74-0.88-5.31-3.24L1158.03,587.34z"/>
			<path class="st2" d="M1150.44,564.41l-3.25-6.51l-0.13-0.25c-1.09-2.19-0.21-4.85,1.98-5.94c2.19-1.09,4.85-0.21,5.94,1.98
				l0,0.01l3.49,7.02c1.09,2.19,0.2,4.84-1.99,5.93c-2.19,1.09-4.84,0.2-5.93-1.99L1150.44,564.41z"/>
			<path class="st2" d="M1138.05,543.56l-4.52-5.74l-0.16-0.2c-1.52-1.93-1.19-4.73,0.74-6.25c1.93-1.52,4.73-1.19,6.25,0.74l0,0.01
				l4.83,6.15c1.51,1.93,1.18,4.72-0.75,6.24c-1.93,1.51-4.72,1.18-6.24-0.75L1138.05,543.56z"/>
			<path class="st2" d="M1121.76,525.49l-5.52-4.81l-0.18-0.16c-1.86-1.62-2.05-4.45-0.43-6.31c1.62-1.86,4.45-2.05,6.31-0.43
				l0.01,0l5.87,5.14c1.86,1.62,2.04,4.44,0.42,6.3c-1.62,1.86-4.44,2.04-6.3,0.42L1121.76,525.49z"/>
			<path class="st2" d="M1102.43,510.65l-6.28-3.78l-0.2-0.12c-2.12-1.28-2.81-4.03-1.53-6.15c1.28-2.12,4.03-2.81,6.15-1.53
				l6.69,4.02c2.12,1.28,2.81,4.03,1.54,6.16c-1.28,2.12-4.03,2.81-6.16,1.54l0,0L1102.43,510.65z"/>
			<path class="st2" d="M1080.8,499.38l-6.84-2.61l-0.23-0.09c-2.3-0.88-3.45-3.46-2.57-5.76c0.88-2.3,3.45-3.46,5.75-2.58
				l7.29,2.77c2.31,0.88,3.47,3.46,2.59,5.77c-0.88,2.31-3.46,3.47-5.77,2.59l-0.01,0L1080.8,499.38z"/>
			<path class="st2" d="M1057.52,492.14l-7.19-1.31l-0.25-0.05c-2.41-0.44-4.01-2.75-3.57-5.16c0.44-2.41,2.74-4.01,5.16-3.57
				l7.69,1.39c2.42,0.44,4.02,2.75,3.59,5.17c-0.44,2.42-2.75,4.02-5.17,3.59l-0.01,0L1057.52,492.14z"/>
			<path class="st2" d="M1033.31,489.32l-7.34-0.03l-0.22,0c-2.44-0.01-4.41-1.99-4.4-4.43c0.01-2.44,1.99-4.41,4.43-4.4l7.78,0.01
				c2.44,0.01,4.42,1.99,4.42,4.43c0,2.44-1.99,4.42-4.43,4.42l-0.01,0L1033.31,489.32z"/>
			<path class="st2" d="M1008.88,490.63l-7.27,1.15l-0.2,0.03c-2.4,0.38-4.65-1.26-5.03-3.65c-0.38-2.4,1.25-4.65,3.65-5.03
				l7.67-1.23c2.4-0.38,4.66,1.25,5.04,3.65c0.38,2.4-1.25,4.66-3.65,5.04l-0.01,0L1008.88,490.63z"/>
			<path class="st2" d="M984.9,495.73l-7.03,2.22l-0.18,0.06c-2.3,0.73-4.76-0.55-5.49-2.86c-0.73-2.3,0.55-4.76,2.85-5.49
				l7.39-2.34c2.31-0.73,4.77,0.55,5.5,2.85c0.73,2.31-0.55,4.77-2.85,5.5l-0.01,0L984.9,495.73z"/>
			<path class="st2" d="M961.84,504.26l-6.67,3.17l-0.16,0.07c-2.17,1.03-4.77,0.1-5.8-2.07c-1.03-2.17-0.11-4.76,2.06-5.79
				l6.98-3.33c2.17-1.04,4.77-0.11,5.81,2.06c1.04,2.17,0.11,4.77-2.06,5.81l-0.01,0L961.84,504.26z"/>
			<path class="st2" d="M940.1,515.83l-6.22,4.02l-0.14,0.09c-2.01,1.3-4.69,0.72-5.99-1.29c-1.3-2.01-0.73-4.69,1.28-5.98
				l6.49-4.21c2.01-1.3,4.7-0.73,6,1.28c1.3,2.01,0.73,4.7-1.28,6l-0.01,0L940.1,515.83z"/>
			<path class="st2" d="M920.01,530.1l-5.66,4.77l-0.13,0.11c-1.82,1.53-4.54,1.3-6.07-0.52c-1.53-1.82-1.31-4.53,0.51-6.07
				l5.9-4.99c1.82-1.54,4.54-1.31,6.08,0.51c1.54,1.82,1.31,4.54-0.51,6.08l-0.01,0.01L920.01,530.1z"/>
			<path class="st2" d="M901.88,546.81l-5.02,5.45l-0.1,0.11c-1.6,1.74-4.32,1.85-6.06,0.25c-1.74-1.6-1.86-4.31-0.25-6.05
				l5.21-5.68c1.6-1.75,4.32-1.86,6.07-0.26c1.75,1.6,1.86,4.32,0.26,6.07l-0.01,0.01L901.88,546.81z"/>
			<path class="st2" d="M885.89,565.63l-4.38,5.99l-0.08,0.11c-1.39,1.9-4.06,2.32-5.96,0.93c-1.9-1.39-2.32-4.05-0.93-5.95
				l4.54-6.22c1.39-1.91,4.06-2.33,5.97-0.94c1.91,1.39,2.33,4.06,0.94,5.97l0,0.01L885.89,565.63z"/>
			<path class="st2" d="M872.04,586.14l-3.74,6.42l-0.06,0.11c-1.18,2.03-3.78,2.71-5.8,1.53c-2.02-1.18-2.71-3.77-1.54-5.79
				l3.86-6.65c1.18-2.03,3.78-2.72,5.81-1.54c2.03,1.18,2.72,3.78,1.55,5.81l0,0.01L872.04,586.14z"/>
			<path class="st2" d="M860.3,607.97l-3.12,6.76l-0.05,0.1c-0.98,2.12-3.48,3.04-5.6,2.07c-2.12-0.98-3.05-3.48-2.07-5.59l3.2-6.98
				c0.97-2.12,3.48-3.05,5.61-2.08c2.12,0.97,3.05,3.48,2.08,5.61l0,0.01L860.3,607.97z"/>
			<path class="st2" d="M850.61,630.83l-2.52,7.02l-0.04,0.1c-0.78,2.18-3.19,3.31-5.37,2.53c-2.18-0.78-3.32-3.18-2.53-5.37
				l2.58-7.22c0.78-2.19,3.19-3.33,5.38-2.54c2.19,0.78,3.33,3.19,2.54,5.38l0,0.01L850.61,630.83z"/>
			<path class="st2" d="M842.86,654.47l-1.96,7.21l-0.02,0.09c-0.61,2.23-2.9,3.54-5.13,2.93c-2.23-0.61-3.54-2.89-2.94-5.12l2-7.4
				c0.6-2.23,2.9-3.55,5.13-2.95c2.23,0.6,3.55,2.9,2.95,5.13l0,0.01L842.86,654.47z"/>
			<path class="st2" d="M836.96,678.66l-1.43,7.34l-0.02,0.09c-0.44,2.25-2.62,3.72-4.87,3.29c-2.25-0.44-3.72-2.61-3.29-4.86
				l1.45-7.52c0.43-2.26,2.62-3.73,4.87-3.3c2.26,0.43,3.73,2.62,3.3,4.87l0,0.01L836.96,678.66z"/>
			<path class="st2" d="M832.8,703.23l-0.92,7.41l-0.01,0.08c-0.28,2.27-2.34,3.87-4.61,3.59c-2.27-0.28-3.87-2.34-3.59-4.6
				l0.93-7.58c0.28-2.27,2.34-3.88,4.61-3.61c2.27,0.28,3.88,2.34,3.61,4.61l0,0.01L832.8,703.23z"/>
			<path class="st2" d="M830.32,728.02l-0.43,7.47l0,0.08c-0.13,2.27-2.07,4-4.34,3.87c-2.27-0.13-4-2.07-3.87-4.33l0.42-7.63
				c0.13-2.27,2.07-4.01,4.34-3.88c2.27,0.13,4.01,2.07,3.88,4.34l0,0.01L830.32,728.02z"/>
			<path class="st2" d="M829.46,752.94l0.05,7.48l0,0.08c0.02,2.26-1.8,4.1-4.06,4.12c-2.26,0.02-4.1-1.79-4.12-4.05l-0.07-7.64
				c-0.02-2.26,1.8-4.11,4.06-4.13c2.26-0.02,4.11,1.8,4.13,4.06l0,0.01L829.46,752.94z"/>
			<path class="st2" d="M830.19,777.87l0.52,7.47l0,0.08c0.16,2.24-1.53,4.18-3.77,4.34c-2.24,0.16-4.18-1.53-4.34-3.77l-0.55-7.62
				c-0.16-2.24,1.53-4.19,3.77-4.35c2.24-0.16,4.19,1.53,4.36,3.77l0,0.01L830.19,777.87z"/>
			<path class="st2" d="M832.47,802.72l0.98,7.42l0.01,0.07c0.29,2.22-1.27,4.25-3.48,4.54c-2.21,0.29-4.25-1.26-4.54-3.48
				l-1.01-7.57c-0.3-2.22,1.26-4.26,3.48-4.55c2.22-0.3,4.26,1.26,4.55,3.48l0,0.01L832.47,802.72z"/>
			<path class="st2" d="M836.24,827.4l1.41,7.36l0.01,0.07c0.42,2.18-1.01,4.29-3.19,4.71c-2.18,0.42-4.29-1-4.71-3.18l-1.45-7.49
				c-0.42-2.18,1-4.3,3.19-4.72c2.18-0.42,4.3,1,4.72,3.19l0,0.01L836.24,827.4z"/>
			<path class="st2" d="M841.45,851.82l1.84,7.27l0.02,0.07c0.54,2.14-0.76,4.32-2.9,4.86c-2.14,0.54-4.32-0.75-4.86-2.89
				l-1.88-7.39c-0.55-2.15,0.75-4.33,2.9-4.87c2.15-0.55,4.33,0.75,4.87,2.9l0,0.01L841.45,851.82z"/>
			<path class="st2" d="M848.04,875.91l2.24,7.15l0.02,0.06c0.66,2.1-0.51,4.33-2.61,4.99c-2.1,0.66-4.33-0.5-4.98-2.6l-2.29-7.28
				c-0.66-2.1,0.5-4.34,2.6-5c2.1-0.66,4.34,0.51,5,2.6l0,0.01L848.04,875.91z"/>
			<path class="st2" d="M855.96,899.61l2.63,7.01l0.02,0.06c0.77,2.05-0.27,4.33-2.32,5.09c-2.05,0.77-4.32-0.27-5.09-2.31
				l-2.68-7.13c-0.77-2.05,0.26-4.33,2.31-5.1c2.05-0.77,4.33,0.26,5.11,2.31l0,0.01L855.96,899.61z"/>
			<path class="st2" d="M865.15,922.83l3,6.87l0.02,0.06c0.87,1.99-0.04,4.31-2.03,5.18c-1.99,0.87-4.31-0.03-5.18-2.02l-3.07-6.98
				c-0.88-1.99,0.03-4.32,2.02-5.19c1.99-0.88,4.32,0.03,5.19,2.02l0,0.01L865.15,922.83z"/>
			<path class="st2" d="M875.59,945.55l3.37,6.71l0.03,0.06c0.97,1.93,0.19,4.28-1.74,5.25c-1.93,0.97-4.28,0.19-5.25-1.74
				l-3.43-6.81c-0.97-1.93-0.2-4.29,1.74-5.26c1.93-0.97,4.29-0.2,5.26,1.74l0,0.01L875.59,945.55z"/>
			<path class="st2" d="M887.21,967.69l3.72,6.53l0.03,0.05c1.06,1.87,0.41,4.24-1.46,5.31c-1.87,1.06-4.24,0.42-5.3-1.45
				l-3.79-6.63c-1.07-1.87-0.42-4.25,1.45-5.32c1.87-1.07,4.25-0.42,5.32,1.45l0,0.01L887.21,967.69z"/>
			<path class="st2" d="M899.98,989.19l4.05,6.32l0.03,0.05c1.15,1.8,0.63,4.19-1.17,5.34c-1.8,1.15-4.19,0.63-5.34-1.16l-4.13-6.42
				c-1.16-1.8-0.64-4.2,1.16-5.36c1.8-1.16,4.2-0.64,5.36,1.16l0,0.01L899.98,989.19z"/>
			<path class="st2" d="M913.86,1010l4.38,6.1l0.03,0.05c1.24,1.73,0.84,4.13-0.88,5.37c-1.73,1.24-4.13,0.85-5.36-0.88l-4.46-6.19
				c-1.24-1.73-0.85-4.13,0.88-5.38c1.73-1.24,4.13-0.85,5.38,0.88l0,0.01L913.86,1010z"/>
			<path class="st2" d="M928.81,1030.06l4.69,5.86l0.04,0.05c1.32,1.65,1.05,4.06-0.6,5.38c-1.65,1.32-4.05,1.06-5.37-0.59
				l-4.77-5.94c-1.32-1.65-1.06-4.06,0.59-5.39c1.65-1.33,4.06-1.06,5.39,0.59l0,0.01L928.81,1030.06z"/>
			<path class="st2" d="M944.79,1049.29l4.97,5.61l0.04,0.04c1.39,1.57,1.25,3.97-0.32,5.37c-1.57,1.39-3.97,1.25-5.36-0.32
				l-5.06-5.68c-1.4-1.57-1.26-3.98,0.31-5.38c1.57-1.4,3.98-1.26,5.38,0.31l0,0.01L944.79,1049.29z"/>
			<path class="st2" d="M961.7,1067.72l5.25,5.37l0.04,0.04c1.46,1.49,1.43,3.89-0.06,5.35c-1.49,1.46-3.88,1.44-5.34-0.06
				l-5.33-5.44c-1.46-1.49-1.44-3.89,0.05-5.35c1.49-1.46,3.89-1.44,5.36,0.05l0,0L961.7,1067.72z"/>
			<path class="st2" d="M979.48,1085.32l5.5,5.12l0.04,0.04c1.52,1.41,1.6,3.79,0.19,5.31c-1.41,1.52-3.79,1.61-5.31,0.19
				l-5.58-5.18c-1.52-1.41-1.61-3.8-0.2-5.32c1.41-1.52,3.8-1.61,5.32-0.2l0.01,0L979.48,1085.32z"/>
			<path class="st2" d="M998.07,1102.08l5.72,4.86l0.04,0.03c1.57,1.34,1.76,3.69,0.43,5.27c-1.34,1.57-3.69,1.77-5.26,0.43
				l-5.81-4.92c-1.58-1.34-1.78-3.7-0.44-5.27c1.34-1.58,3.7-1.77,5.27-0.44l0.01,0L998.07,1102.08z"/>
			<path class="st2" d="M1017.41,1117.99l5.94,4.6l0.04,0.03c1.62,1.26,1.92,3.59,0.66,5.21c-1.26,1.62-3.59,1.92-5.21,0.66
				l-6.02-4.65c-1.63-1.26-1.93-3.59-0.67-5.22c1.26-1.63,3.59-1.93,5.22-0.67l0.01,0L1017.41,1117.99z"/>
			<path class="st2" d="M1037.43,1133.03l6.13,4.35l0.04,0.03c1.66,1.18,2.06,3.48,0.88,5.15c-1.18,1.66-3.48,2.06-5.14,0.88
				l-6.21-4.39c-1.67-1.18-2.07-3.49-0.89-5.16c1.18-1.67,3.49-2.07,5.16-0.89l0.01,0L1037.43,1133.03z"/>
			<path class="st2" d="M1058.07,1147.22l6.31,4.09l0.04,0.03c1.7,1.1,2.19,3.37,1.08,5.08c-1.1,1.7-3.37,2.19-5.07,1.09l-6.39-4.12
				c-1.71-1.1-2.2-3.38-1.1-5.08c1.1-1.71,3.38-2.2,5.08-1.09l0.01,0L1058.07,1147.22z"/>
			<path class="st2" d="M1079.29,1160.54l6.47,3.83l0.04,0.02c1.73,1.03,2.31,3.26,1.28,5c-1.03,1.73-3.26,2.31-4.99,1.29
				l-6.55-3.86c-1.74-1.03-2.32-3.27-1.29-5c1.03-1.74,3.27-2.32,5-1.29l0.01,0L1079.29,1160.54z"/>
			<path class="st2" d="M1101.03,1173l6.61,3.57l0.04,0.02c1.76,0.95,2.42,3.15,1.47,4.91c-0.95,1.76-3.15,2.42-4.91,1.47l-6.69-3.6
				c-1.77-0.95-2.43-3.15-1.48-4.92c0.95-1.77,3.15-2.43,4.92-1.48l0.01,0L1101.03,1173z"/>
			<path class="st2" d="M1123.24,1184.6l6.75,3.32l0.04,0.02c1.79,0.88,2.52,3.04,1.65,4.82c-0.88,1.79-3.03,2.53-4.82,1.65
				l-6.83-3.34c-1.79-0.88-2.53-3.04-1.66-4.83c0.88-1.79,3.04-2.53,4.83-1.66l0.01,0L1123.24,1184.6z"/>
			<path class="st2" d="M1145.89,1195.37l6.88,3.07l0.04,0.02c1.81,0.81,2.62,2.92,1.81,4.73c-0.81,1.81-2.92,2.62-4.72,1.81
				l-6.95-3.08c-1.81-0.8-2.63-2.92-1.82-4.74c0.8-1.81,2.92-2.63,4.74-1.82l0.01,0L1145.89,1195.37z"/>
			<path class="st2" d="M1168.92,1205.28l6.99,2.81l0.04,0.01c1.82,0.73,2.71,2.81,1.97,4.63c-0.73,1.82-2.8,2.71-4.63,1.97
				l-7.06-2.83c-1.83-0.73-2.72-2.81-1.98-4.64c0.73-1.83,2.81-2.72,4.64-1.98l0.01,0L1168.92,1205.28z"/>
			<path class="st2" d="M1192.31,1214.36l7.08,2.56l0.04,0.01c1.84,0.67,2.79,2.69,2.12,4.53c-0.66,1.84-2.69,2.79-4.52,2.13
				l-7.16-2.58c-1.84-0.66-2.8-2.69-2.13-4.54c0.66-1.84,2.69-2.8,4.54-2.13l0.01,0L1192.31,1214.36z"/>
			<path class="st2" d="M1216,1222.61l7.17,2.31l0.04,0.01c1.85,0.6,2.86,2.58,2.27,4.43c-0.6,1.85-2.57,2.86-4.42,2.27l-7.24-2.32
				c-1.85-0.59-2.87-2.58-2.28-4.43c0.59-1.85,2.58-2.87,4.43-2.28l0.01,0L1216,1222.61z"/>
			<path class="st2" d="M1239.97,1230.03l7.23,2.07l0.03,0.01c1.84,0.53,2.91,2.45,2.38,4.29c-0.53,1.84-2.44,2.9-4.28,2.39
				l-7.31-2.06c-1.86-0.52-2.94-2.45-2.42-4.31c0.52-1.86,2.45-2.94,4.31-2.42l0.02,0L1239.97,1230.03z"/>
			<path class="st2" d="M1264.16,1236.67l7.29,1.83l0.03,0.01c1.83,0.46,2.93,2.31,2.47,4.14c-0.46,1.82-2.3,2.92-4.12,2.48
				l-7.37-1.81c-1.84-0.45-2.96-2.31-2.51-4.15c0.45-1.84,2.31-2.96,4.15-2.51l0.02,0L1264.16,1236.67z"/>
			<path class="st2" d="M1288.56,1242.52l7.36,1.61l0.03,0.01c1.8,0.39,2.95,2.18,2.55,3.98c-0.39,1.8-2.17,2.94-3.96,2.56
				l-7.43-1.58c-1.82-0.39-2.97-2.17-2.59-3.99c0.39-1.82,2.17-2.98,3.99-2.59l0.02,0L1288.56,1242.52z"/>
			<path class="st2" d="M1313.14,1247.62l7.4,1.39l0.03,0.01c1.78,0.33,2.95,2.05,2.62,3.83c-0.33,1.77-2.04,2.95-3.81,2.62
				l-7.47-1.36c-1.79-0.33-2.98-2.04-2.66-3.84c0.33-1.79,2.04-2.98,3.84-2.66l0.02,0L1313.14,1247.62z"/>
			<path class="st2" d="M1337.86,1251.98l7.44,1.17l0.03,0c1.75,0.28,2.95,1.92,2.68,3.68c-0.27,1.75-1.91,2.95-3.66,2.68l-7.5-1.14
				c-1.77-0.27-2.98-1.92-2.71-3.68c0.27-1.77,1.92-2.98,3.68-2.71l0.02,0L1337.86,1251.98z"/>
			<path class="st2" d="M1362.71,1255.63l7.47,0.96l0.03,0c1.73,0.22,2.95,1.8,2.72,3.53c-0.22,1.72-1.79,2.94-3.51,2.73l-7.53-0.93
				c-1.74-0.21-2.97-1.8-2.76-3.54c0.21-1.74,1.8-2.97,3.54-2.76l0.02,0L1362.71,1255.63z"/>
			<path class="st2" d="M1387.66,1258.6l7.5,0.76l0.02,0c1.7,0.17,2.93,1.69,2.76,3.38c-0.17,1.69-1.68,2.92-3.37,2.76l-7.55-0.73
				c-1.71-0.16-2.96-1.68-2.79-3.39c0.16-1.71,1.68-2.96,3.39-2.79l0.02,0L1387.66,1258.6z"/>
			<path class="st2" d="M1412.67,1260.91l7.51,0.57l0.02,0c1.67,0.13,2.91,1.58,2.79,3.24c-0.13,1.66-1.57,2.91-3.23,2.79
				l-7.55-0.53c-1.68-0.12-2.94-1.57-2.82-3.25c0.12-1.68,1.57-2.94,3.25-2.82l0.02,0L1412.67,1260.91z"/>
			<path class="st2" d="M1437.74,1262.59l7.52,0.38l0.02,0c1.63,0.08,2.89,1.47,2.81,3.11c-0.08,1.63-1.47,2.88-3.09,2.81
				l-7.57-0.35c-1.64-0.08-2.91-1.47-2.84-3.11c0.08-1.64,1.47-2.92,3.11-2.84l0.01,0L1437.74,1262.59z"/>
			<path class="st2" d="M1462.83,1263.66l7.54,0.21l0.02,0c1.6,0.04,2.86,1.38,2.82,2.98c-0.04,1.59-1.37,2.85-2.96,2.81l-7.58-0.17
				c-1.61-0.04-2.89-1.37-2.85-2.98c0.04-1.61,1.37-2.88,2.98-2.85l0.01,0L1462.83,1263.66z"/>
			<path class="st2" d="M1487.96,1264.16l7.54,0.04l0.02,0c1.56,0.01,2.83,1.28,2.82,2.85c-0.01,1.56-1.28,2.82-2.83,2.82l-7.58,0
				c-1.57,0-2.85-1.28-2.85-2.85c0-1.57,1.28-2.85,2.85-2.85l0.01,0L1487.96,1264.16z"/>
			<path class="st2" d="M1513.11,1264.11l7.55-0.12l0.02,0c1.53-0.02,2.79,1.2,2.81,2.72c0.02,1.52-1.19,2.78-2.71,2.81l-7.58,0.16
				c-1.54,0.03-2.81-1.19-2.84-2.73c-0.03-1.54,1.19-2.81,2.73-2.84l0.01,0L1513.11,1264.11z"/>
			<path class="st2" d="M1538.27,1263.54l7.55-0.27l0.02,0c1.49-0.05,2.75,1.11,2.8,2.61c0.05,1.49-1.11,2.74-2.59,2.8l-7.58,0.31
				c-1.5,0.06-2.77-1.11-2.83-2.61c-0.06-1.5,1.11-2.77,2.61-2.83l0.01,0L1538.27,1263.54z"/>
			<path class="st2" d="M1563.41,1262.47l7.54-0.41l0.01,0c1.46-0.08,2.7,1.03,2.78,2.49c0.08,1.45-1.03,2.69-2.48,2.78l-7.57,0.46
				c-1.47,0.09-2.73-1.03-2.81-2.49c-0.09-1.47,1.03-2.73,2.5-2.81l0.01,0L1563.41,1262.47z"/>
			<path class="st2" d="M1588.54,1260.92l7.53-0.55l0.01,0c1.42-0.1,2.65,0.96,2.76,2.38c0.1,1.41-0.96,2.65-2.37,2.76l-7.56,0.59
				c-1.43,0.11-2.68-0.96-2.79-2.38c-0.11-1.43,0.96-2.68,2.38-2.79l0.01,0L1588.54,1260.92z"/>
			<path class="st2" d="M1613.63,1258.93l4.42-0.4c1.39-0.13,2.61,0.89,2.74,2.28c0.13,1.38-0.89,2.61-2.27,2.74l-4.43,0.42
				c-1.39,0.13-2.63-0.89-2.76-2.28c-0.13-1.39,0.89-2.63,2.28-2.76L1613.63,1258.93z"/>
		</g>
		<g>
			<polygon class="st24" points="818.04,181.59 823.01,218.17 845.65,199.07 			"/>
			<path class="st1" d="M979.67,138.2l-86.99,100.1c-1.67,1.92-4.04,3.07-6.58,3.2c-2.54,0.13-5.02-0.78-6.87-2.51l-97.21-91.13
				c-1.11-1.04-1.48-2.66-0.93-4.08c0.55-1.42,1.91-2.37,3.43-2.4L979.67,138.2z"/>
			<polygon class="st52" points="818.05,181.59 979.67,138.2 833.69,196.35 834.64,206.55 			"/>
			<polygon class="st52" points="843.03,205.03 823.01,218.17 833.69,196.35 			"/>
		</g>
	</g>
</g>
</svg>
